NotoSans-Thin.ufo
<glyph name="quotedbl" format="2">
  <advance width="655"/>
  <unicode hex="0022"/>
  <outline>
    <contour>
      <point x="207" y="1462" type="line"/>
      <point x="150" y="1462" type="line"/>
      <point x="158" y="934" type="line"/>
      <point x="199" y="934" type="line"/>
    </contour>
    <contour>
      <point x="506" y="1462" type="line"/>
      <point x="449" y="1462" type="line"/>
      <point x="457" y="934" type="line"/>
      <point x="498" y="934" type="line"/>
    </contour>
  </outline>
</glyph>
<glyph name="dollar" format="2">
  <advance width="1167"/>
  <unicode hex="0024"/>
  <outline>
    <contour>
      <point x="518" y="-119" type="line"/>
      <point x="567" y="-119" type="line"/>
      <point x="567" y="20" type="line"/>
      <point x="795" y="33"/>
      <point x="961" y="150"/>
      <point x="961" y="381" type="curve" smooth="yes"/>
      <point x="961" y="598"/>
      <point x="797" y="674"/>
      <point x="567" y="758" type="curve"/>
      <point x="567" y="1391" type="line"/>
      <point x="655" y="1389"/>
      <point x="762" y="1370"/>
      <point x="877" y="1319" type="curve"/>
      <point x="899" y="1366" type="line"/>
      <point x="788" y="1417"/>
      <point x="676" y="1440"/>
      <point x="567" y="1442" type="curve"/>
      <point x="567" y="1554" type="line"/>
      <point x="518" y="1554" type="line"/>
      <point x="518" y="1442" type="line"/>
      <point x="297" y="1430"/>
      <point x="131" y="1313"/>
      <point x="131" y="1098" type="curve" smooth="yes"/>
      <point x="131" y="877"/>
      <point x="307" y="803"/>
      <point x="518" y="723" type="curve"/>
      <point x="518" y="72" type="line"/>
      <point x="369" y="74"/>
      <point x="231" y="102"/>
      <point x="137" y="139" type="curve"/>
      <point x="137" y="80" type="line"/>
      <point x="223" y="51"/>
      <point x="346" y="23"/>
      <point x="518" y="20" type="curve"/>
    </contour>
    <contour>
      <point x="567" y="72" type="curve"/>
      <point x="567" y="702" type="line"/>
      <point x="774" y="623"/>
      <point x="905" y="555"/>
      <point x="905" y="383" type="curve" smooth="yes"/>
      <point x="905" y="178"/>
      <point x="762" y="82"/>
    </contour>
    <contour>
      <point x="518" y="776" type="line"/>
      <point x="344" y="842"/>
      <point x="186" y="911"/>
      <point x="186" y="1102" type="curve" smooth="yes"/>
      <point x="186" y="1290"/>
      <point x="334" y="1382"/>
      <point x="518" y="1391" type="curve"/>
    </contour>
  </outline>
</glyph>
<glyph name="less" format="2">
  <advance width="1167"/>
  <unicode hex="003C"/>
  <outline>
    <contour>
      <point x="1053" y="283" type="line"/>
      <point x="1053" y="336" type="line"/>
      <point x="186" y="741" type="line"/>
      <point x="1053" y="1147" type="line"/>
      <point x="1053" y="1200" type="line"/>
      <point x="115" y="760" type="line"/>
      <point x="115" y="723" type="line"/>
    </contour>
  </outline>
</glyph>
<glyph name="C" format="2">
  <advance width="1257"/>
  <unicode hex="0043"/>
  <anchor x="752" y="0" name="bottom"/>
  <anchor x="793" y="1462" name="top"/>
  <anchor x="1217" y="1462" name="topright"/>
  <outline>
    <contour>
      <point x="829" y="1432" type="curve" smooth="yes"/>
      <point x="942" y="1432"/>
      <point x="1057" y="1417"/>
      <point x="1174" y="1356" type="curve"/>
      <point x="1194" y="1407" type="line"/>
      <point x="1081" y="1458"/>
      <point x="963" y="1483"/>
      <point x="829" y="1483" type="curve" smooth="yes"/>
      <point x="391" y="1483"/>
      <point x="129" y="1163"/>
      <point x="129" y="737" type="curve" smooth="yes"/>
      <point x="129" y="285"/>
      <point x="356" y="-20"/>
      <point x="791" y="-20" type="curve" smooth="yes"/>
      <point x="952" y="-20"/>
      <point x="1077" y="8"/>
      <point x="1167" y="43" type="curve"/>
      <point x="1167" y="90" type="line"/>
      <point x="1069" y="55"/>
      <point x="948" y="31"/>
      <point x="791" y="31" type="curve" smooth="yes"/>
      <point x="387" y="31"/>
      <point x="184" y="313"/>
      <point x="184" y="737" type="curve" smooth="yes"/>
      <point x="184" y="1137"/>
      <point x="418" y="1432"/>
    </contour>
  </outline>
</glyph>
<glyph name="J" format="2">
  <advance width="473"/>
  <unicode hex="004A"/>
  <anchor x="-39" y="-336" name="bottom"/>
  <anchor x="244" y="1462" name="top"/>
  <anchor x="432" y="1462" name="topright"/>
  <outline>
    <contour>
      <point x="-39" y="-356" type="curve" smooth="yes"/>
      <point x="190" y="-356"/>
      <point x="270" y="-199"/>
      <point x="270" y="4" type="curve" smooth="yes"/>
      <point x="270" y="1462" type="line"/>
      <point x="217" y="1462" type="line"/>
      <point x="217" y="10" type="line" smooth="yes"/>
      <point x="217" y="-176"/>
      <point x="158" y="-303"/>
      <point x="-39" y="-303" type="curve" smooth="yes"/>
      <point x="-102" y="-303"/>
      <point x="-164" y="-291"/>
      <point x="-201" y="-274" type="curve"/>
      <point x="-201" y="-332" type="line"/>
      <point x="-166" y="-344"/>
      <point x="-115" y="-356"/>
    </contour>
  </outline>
</glyph>
<glyph name="O" format="2">
  <advance width="1544"/>
  <unicode hex="004F"/>
  <anchor x="772" y="0" name="bottom"/>
  <anchor x="772" y="731" name="center"/>
  <anchor x="772" y="1462" name="top"/>
  <anchor x="1503" y="1462" name="topright"/>
  <outline>
    <contour>
      <point x="1413" y="733" type="curve" smooth="yes"/>
      <point x="1413" y="1208"/>
      <point x="1186" y="1485"/>
      <point x="782" y="1485" type="curve" smooth="yes"/>
      <point x="362" y="1485"/>
      <point x="129" y="1176"/>
      <point x="129" y="735" type="curve" smooth="yes"/>
      <point x="129" y="293"/>
      <point x="344" y="-20"/>
      <point x="770" y="-20" type="curve" smooth="yes"/>
      <point x="1202" y="-20"/>
      <point x="1413" y="293"/>
    </contour>
    <contour>
      <point x="184" y="735" type="curve" smooth="yes"/>
      <point x="184" y="1139"/>
      <point x="381" y="1434"/>
      <point x="782" y="1434" type="curve" smooth="yes"/>
      <point x="1151" y="1434"/>
      <point x="1358" y="1178"/>
      <point x="1358" y="733" type="curve" smooth="yes"/>
      <point x="1358" y="319"/>
      <point x="1174" y="31"/>
      <point x="772" y="31" type="curve" smooth="yes"/>
      <point x="373" y="31"/>
      <point x="184" y="326"/>
    </contour>
  </outline>
</glyph>
<glyph name="W" format="2">
  <advance width="1780"/>
  <unicode hex="0057"/>
  <anchor x="891" y="0" name="bottom"/>
  <anchor x="891" y="1462" name="top"/>
  <anchor x="1739" y="1462" name="topright"/>
  <outline>
    <contour>
      <point x="1718" y="1462" type="line"/>
      <point x="1663" y="1462" type="line"/>
      <point x="1348" y="344" type="line" smooth="yes"/>
      <point x="1317" y="238"/>
      <point x="1305" y="180"/>
      <point x="1288" y="98" type="curve"/>
      <point x="1270" y="180"/>
      <point x="1255" y="238"/>
      <point x="1225" y="344" type="curve" smooth="yes"/>
      <point x="911" y="1462" type="line"/>
      <point x="860" y="1462" type="line"/>
      <point x="555" y="350" type="line" smooth="yes"/>
      <point x="526" y="248"/>
      <point x="510" y="184"/>
      <point x="492" y="106" type="curve"/>
      <point x="473" y="184"/>
      <point x="453" y="248"/>
      <point x="426" y="348" type="curve" smooth="yes"/>
      <point x="123" y="1462" type="line"/>
      <point x="68" y="1462" type="line"/>
      <point x="467" y="0" type="line"/>
      <point x="516" y="0" type="line"/>
      <point x="850" y="1237" type="line" smooth="yes"/>
      <point x="862" y="1284"/>
      <point x="870" y="1313"/>
      <point x="883" y="1382" type="curve"/>
      <point x="899" y="1309"/>
      <point x="913" y="1270"/>
      <point x="934" y="1192" type="curve" smooth="yes"/>
      <point x="1264" y="0" type="line"/>
      <point x="1313" y="0" type="line"/>
    </contour>
  </outline>
</glyph>
<glyph name="asciicircum" format="2">
  <advance width="1167"/>
  <unicode hex="005E"/>
  <outline>
    <contour>
      <point x="94" y="569" type="line"/>
      <point x="154" y="569" type="line"/>
      <point x="598" y="1405" type="line"/>
      <point x="1014" y="569" type="line"/>
      <point x="1073" y="569" type="line"/>
      <point x="625" y="1473" type="line"/>
      <point x="578" y="1473" type="line"/>
    </contour>
  </outline>
</glyph>
<glyph name="underscore" format="2">
  <advance width="801"/>
  <unicode hex="005F"/>
  <outline>
    <contour>
      <point x="805" y="-238" type="line"/>
      <point x="805" y="-186" type="line"/>
      <point x="-4" y="-186" type="line"/>
      <point x="-4" y="-238" type="line"/>
    </contour>
  </outline>
</glyph>
<glyph name="e" format="2">
  <advance width="1106"/>
  <unicode hex="0065"/>
  <anchor x="553" y="0" name="bottom"/>
  <anchor x="553" y="1081" name="top"/>
  <anchor x="1065" y="1081" name="topright"/>
  <outline>
    <contour>
      <point x="588" y="1102" type="curve" smooth="yes"/>
      <point x="272" y="1102"/>
      <point x="121" y="836"/>
      <point x="121" y="530" type="curve" smooth="yes"/>
      <point x="121" y="213"/>
      <point x="266" y="-20"/>
      <point x="606" y="-20" type="curve" smooth="yes"/>
      <point x="737" y="-20"/>
      <point x="836" y="0"/>
      <point x="940" y="47" type="curve"/>
      <point x="940" y="102" type="line"/>
      <point x="813" y="45"/>
      <point x="737" y="31"/>
      <point x="606" y="31" type="curve" smooth="yes"/>
      <point x="326" y="31"/>
      <point x="172" y="215"/>
      <point x="176" y="545" type="curve"/>
      <point x="981" y="545" type="line"/>
      <point x="981" y="596" type="line" smooth="yes"/>
      <point x="981" y="881"/>
      <point x="864" y="1102"/>
    </contour>
    <contour>
      <point x="588" y="1051" type="curve" smooth="yes"/>
      <point x="817" y="1051"/>
      <point x="928" y="866"/>
      <point x="926" y="596" type="curve"/>
      <point x="178" y="596" type="line"/>
      <point x="203" y="893"/>
      <point x="358" y="1051"/>
    </contour>
  </outline>
</glyph>
<glyph name="i" format="2">
  <advance width="424"/>
  <unicode hex="0069"/>
  <anchor x="213" y="0" name="bottom"/>
  <anchor x="213" y="1477" name="top"/>
  <anchor x="383" y="1477" name="topright"/>
  <outline>
    <contour>
      <point x="238" y="1081" type="line"/>
      <point x="184" y="1081" type="line"/>
      <point x="184" y="0" type="line"/>
      <point x="238" y="0" type="line"/>
    </contour>
    <contour>
      <point x="211" y="1477" type="curve" smooth="yes"/>
      <point x="170" y="1477"/>
      <point x="160" y="1446"/>
      <point x="160" y="1413" type="curve" smooth="yes"/>
      <point x="160" y="1378"/>
      <point x="170" y="1350"/>
      <point x="211" y="1350" type="curve" smooth="yes"/>
      <point x="260" y="1350"/>
      <point x="266" y="1378"/>
      <point x="266" y="1413" type="curve" smooth="yes"/>
      <point x="266" y="1446"/>
      <point x="260" y="1477"/>
    </contour>
  </outline>
</glyph>
<glyph name="m" format="2">
  <advance width="1745"/>
  <unicode hex="006D"/>
  <anchor x="881" y="0" name="bottom"/>
  <anchor x="872" y="1081" name="top"/>
  <anchor x="1704" y="1081" name="topright"/>
  <outline>
    <contour>
      <point x="1257" y="1102" type="curve" smooth="yes"/>
      <point x="1063" y="1102"/>
      <point x="942" y="1012"/>
      <point x="891" y="879" type="curve"/>
      <point x="887" y="879" type="line"/>
      <point x="850" y="1024"/>
      <point x="737" y="1102"/>
      <point x="588" y="1102" type="curve" smooth="yes"/>
      <point x="379" y="1102"/>
      <point x="283" y="985"/>
      <point x="240" y="885" type="curve"/>
      <point x="236" y="885" type="line"/>
      <point x="227" y="1081" type="line"/>
      <point x="184" y="1081" type="line"/>
      <point x="184" y="0" type="line"/>
      <point x="238" y="0" type="line"/>
      <point x="238" y="666" type="line" smooth="yes"/>
      <point x="238" y="940"/>
      <point x="397" y="1051"/>
      <point x="588" y="1051" type="curve" smooth="yes"/>
      <point x="737" y="1051"/>
      <point x="854" y="956"/>
      <point x="854" y="737" type="curve" smooth="yes"/>
      <point x="854" y="0" type="line"/>
      <point x="907" y="0" type="line"/>
      <point x="907" y="666" type="line" smooth="yes"/>
      <point x="907" y="940"/>
      <point x="1053" y="1051"/>
      <point x="1257" y="1051" type="curve" smooth="yes"/>
      <point x="1407" y="1051"/>
      <point x="1524" y="956"/>
      <point x="1524" y="737" type="curve" smooth="yes"/>
      <point x="1524" y="0" type="line"/>
      <point x="1577" y="0" type="line"/>
      <point x="1577" y="739" type="line" smooth="yes"/>
      <point x="1577" y="987"/>
      <point x="1442" y="1102"/>
    </contour>
  </outline>
</glyph>
<glyph name="q" format="2">
  <advance width="1194"/>
  <unicode hex="0071"/>
  <anchor x="979" y="-475" name="bottom"/>
  <anchor x="598" y="1081" name="top"/>
  <anchor x="1153" y="1081" name="topright"/>
  <outline>
    <contour>
      <point x="952" y="-475" type="line"/>
      <point x="1006" y="-475" type="line"/>
      <point x="1006" y="1081" type="line"/>
      <point x="961" y="1081" type="line"/>
      <point x="952" y="868" type="line"/>
      <point x="948" y="868" type="line"/>
      <point x="901" y="997"/>
      <point x="778" y="1102"/>
      <point x="584" y="1102" type="curve" smooth="yes"/>
      <point x="254" y="1102"/>
      <point x="115" y="848"/>
      <point x="115" y="537" type="curve" smooth="yes"/>
      <point x="115" y="172"/>
      <point x="264" y="-23"/>
      <point x="551" y="-23" type="curve" smooth="yes"/>
      <point x="758" y="-23"/>
      <point x="907" y="92"/>
      <point x="952" y="250" type="curve"/>
      <point x="956" y="250" type="line"/>
      <point x="954" y="182"/>
      <point x="952" y="72"/>
      <point x="952" y="6" type="curve" smooth="yes"/>
    </contour>
    <contour>
      <point x="551" y="29" type="curve" smooth="yes"/>
      <point x="297" y="29"/>
      <point x="170" y="201"/>
      <point x="170" y="537" type="curve" smooth="yes"/>
      <point x="170" y="864"/>
      <point x="313" y="1051"/>
      <point x="584" y="1051" type="curve" smooth="yes"/>
      <point x="831" y="1051"/>
      <point x="952" y="881"/>
      <point x="952" y="563" type="curve" smooth="yes"/>
      <point x="952" y="543" type="line" smooth="yes"/>
      <point x="952" y="223"/>
      <point x="827" y="29"/>
    </contour>
  </outline>
</glyph>
<glyph name="x" format="2">
  <advance width="981"/>
  <unicode hex="0078"/>
  <anchor x="492" y="0" name="bottom"/>
  <anchor x="492" y="1081" name="top"/>
  <anchor x="940" y="1081" name="topright"/>
  <outline>
    <contour>
      <point x="449" y="557" type="line"/>
      <point x="53" y="0" type="line"/>
      <point x="117" y="0" type="line"/>
      <point x="483" y="518" type="line"/>
      <point x="854" y="0" type="line"/>
      <point x="920" y="0" type="line"/>
      <point x="520" y="557" type="line"/>
      <point x="895" y="1081" type="line"/>
      <point x="829" y="1081" type="line"/>
      <point x="483" y="594" type="line"/>
      <point x="137" y="1081" type="line"/>
      <point x="70" y="1081" type="line"/>
    </contour>
  </outline>
</glyph>
<glyph name="z" format="2">
  <advance width="934"/>
  <unicode hex="007A"/>
  <anchor x="467" y="0" name="bottom"/>
  <anchor x="467" y="1081" name="top"/>
  <anchor x="893" y="1081" name="topright"/>
  <outline>
    <contour>
      <point x="844" y="0" type="line"/>
      <point x="844" y="51" type="line"/>
      <point x="158" y="51" type="line"/>
      <point x="850" y="1051" type="line"/>
      <point x="850" y="1081" type="line"/>
      <point x="139" y="1081" type="line"/>
      <point x="139" y="1030" type="line"/>
      <point x="772" y="1030" type="line"/>
      <point x="84" y="35" type="line"/>
      <point x="84" y="0" type="line"/>
    </contour>
  </outline>
</glyph>
<glyph name="exclamdown" format="2">
  <advance width="457"/>
  <unicode hex="00A1"/>
  <outline>
    <contour>
      <point x="201" y="725" type="line"/>
      <point x="197" y="-381" type="line"/>
      <point x="254" y="-381" type="line"/>
      <point x="250" y="725" type="line"/>
    </contour>
    <contour>
      <point x="281" y="1034" type="curve" smooth="yes"/>
      <point x="281" y="1069"/>
      <point x="270" y="1098"/>
      <point x="229" y="1098" type="curve" smooth="yes"/>
      <point x="180" y="1098"/>
      <point x="174" y="1069"/>
      <point x="174" y="1034" type="curve" smooth="yes"/>
      <point x="174" y="1001"/>
      <point x="180" y="971"/>
      <point x="229" y="971" type="curve" smooth="yes"/>
      <point x="270" y="971"/>
      <point x="281" y="1001"/>
    </contour>
  </outline>
</glyph>
<glyph name="sterling" format="2">
  <advance width="1167"/>
  <unicode hex="00A3"/>
  <outline>
    <contour>
      <point x="705" y="1481" type="curve" smooth="yes"/>
      <point x="467" y="1481"/>
      <point x="338" y="1339"/>
      <point x="338" y="1057" type="curve" smooth="yes"/>
      <point x="338" y="737" type="line"/>
      <point x="119" y="737" type="line"/>
      <point x="119" y="686" type="line"/>
      <point x="338" y="686" type="line"/>
      <point x="338" y="383" type="line" smooth="yes"/>
      <point x="338" y="182"/>
      <point x="252" y="76"/>
      <point x="86" y="47" type="curve"/>
      <point x="86" y="0" type="line"/>
      <point x="1061" y="0" type="line"/>
      <point x="1061" y="51" type="line"/>
      <point x="227" y="51" type="line"/>
      <point x="322" y="98"/>
      <point x="391" y="195"/>
      <point x="391" y="385" type="curve" smooth="yes"/>
      <point x="391" y="686" type="line"/>
      <point x="799" y="686" type="line"/>
      <point x="799" y="737" type="line"/>
      <point x="391" y="737" type="line"/>
      <point x="391" y="1049" type="line" smooth="yes"/>
      <point x="391" y="1309"/>
      <point x="494" y="1430"/>
      <point x="705" y="1430" type="curve" smooth="yes"/>
      <point x="819" y="1430"/>
      <point x="897" y="1407"/>
      <point x="987" y="1370" type="curve"/>
      <point x="1006" y="1421" type="line"/>
      <point x="926" y="1454"/>
      <point x="834" y="1481"/>
    </contour>
  </outline>
</glyph>
<glyph name="threesuperior" format="2">
  <advance width="672"/>
  <unicode hex="00B3"/>
  <outline>
    <contour>
      <point x="348" y="1743" type="curve" smooth="yes"/>
      <point x="238" y="1743"/>
      <point x="147" y="1710"/>
      <point x="72" y="1659" type="curve"/>
      <point x="92" y="1614" type="line"/>
      <point x="170" y="1661"/>
      <point x="246" y="1692"/>
      <point x="348" y="1692" type="curve" smooth="yes"/>
      <point x="475" y="1692"/>
      <point x="547" y="1628"/>
      <point x="547" y="1530" type="curve" smooth="yes"/>
      <point x="547" y="1407"/>
      <point x="465" y="1337"/>
      <point x="319" y="1337" type="curve" smooth="yes"/>
      <point x="182" y="1337" type="line"/>
      <point x="182" y="1286" type="line"/>
      <point x="319" y="1286" type="line" smooth="yes"/>
      <point x="487" y="1286"/>
      <point x="567" y="1229"/>
      <point x="567" y="1104" type="curve" smooth="yes"/>
      <point x="567" y="973"/>
      <point x="477" y="895"/>
      <point x="309" y="895" type="curve" smooth="yes"/>
      <point x="215" y="895"/>
      <point x="135" y="918"/>
      <point x="53" y="952" type="curve"/>
      <point x="53" y="895" type="line"/>
      <point x="123" y="864"/>
      <point x="213" y="844"/>
      <point x="309" y="844" type="curve" smooth="yes"/>
      <point x="506" y="844"/>
      <point x="623" y="938"/>
      <point x="623" y="1104" type="curve" smooth="yes"/>
      <point x="623" y="1221"/>
      <point x="559" y="1290"/>
      <point x="446" y="1315" type="curve"/>
      <point x="446" y="1319" type="line"/>
      <point x="537" y="1339"/>
      <point x="602" y="1415"/>
      <point x="602" y="1530" type="curve" smooth="yes"/>
      <point x="602" y="1665"/>
      <point x="502" y="1743"/>
    </contour>
  </outline>
</glyph>
<glyph name="acute" format="2">
  <advance width="510"/>
  <unicode hex="00B4"/>
  <outline>
    <contour>
      <point x="428" y="1569" type="line"/>
      <point x="367" y="1569" type="line"/>
      <point x="307" y="1481"/>
      <point x="174" y="1335"/>
      <point x="82" y="1253" type="curve"/>
      <point x="82" y="1241" type="line"/>
      <point x="125" y="1241" type="line"/>
      <point x="233" y="1331"/>
      <point x="356" y="1462"/>
      <point x="428" y="1554" type="curve"/>
    </contour>
  </outline>
</glyph>
<glyph name="guillemotright" format="2">
  <advance width="797"/>
  <unicode hex="00BB"/>
  <outline>
    <contour>
      <point x="743" y="561" type="line"/>
      <point x="743" y="588" type="line"/>
      <point x="432" y="967" type="line"/>
      <point x="399" y="944" type="line"/>
      <point x="680" y="573" type="line"/>
      <point x="399" y="203" type="line"/>
      <point x="432" y="178" type="line"/>
    </contour>
    <contour>
      <point x="397" y="561" type="line"/>
      <point x="397" y="588" type="line"/>
      <point x="86" y="967" type="line"/>
      <point x="53" y="944" type="line"/>
      <point x="334" y="573" type="line"/>
      <point x="53" y="203" type="line"/>
      <point x="86" y="178" type="line"/>
    </contour>
  </outline>
</glyph>
<glyph name="ae" format="2">
  <advance width="1741"/>
  <unicode hex="00E6"/>
  <anchor x="870" y="0" name="bottom"/>
  <anchor x="870" y="1081" name="top"/>
  <outline>
    <contour>
      <point x="1237" y="1102" type="curve" smooth="yes"/>
      <point x="1036" y="1102"/>
      <point x="907" y="971"/>
      <point x="848" y="786" type="curve"/>
      <point x="829" y="1004"/>
      <point x="725" y="1100"/>
      <point x="535" y="1100" type="curve" smooth="yes"/>
      <point x="420" y="1100"/>
      <point x="307" y="1069"/>
      <point x="199" y="1020" type="curve"/>
      <point x="217" y="967" type="line"/>
      <point x="334" y="1026"/>
      <point x="432" y="1049"/>
      <point x="535" y="1049" type="curve" smooth="yes"/>
      <point x="711" y="1049"/>
      <point x="803" y="948"/>
      <point x="803" y="702" type="curve" smooth="yes"/>
      <point x="803" y="614" type="line"/>
      <point x="606" y="602" type="line" smooth="yes"/>
      <point x="291" y="582"/>
      <point x="98" y="479"/>
      <point x="98" y="264" type="curve" smooth="yes"/>
      <point x="98" y="92"/>
      <point x="209" y="-20"/>
      <point x="430" y="-20" type="curve" smooth="yes"/>
      <point x="659" y="-20"/>
      <point x="786" y="106"/>
      <point x="836" y="297" type="curve"/>
      <point x="887" y="113"/>
      <point x="1026" y="-20"/>
      <point x="1255" y="-20" type="curve" smooth="yes"/>
      <point x="1372" y="-20"/>
      <point x="1470" y="0"/>
      <point x="1575" y="47" type="curve"/>
      <point x="1575" y="102" type="line"/>
      <point x="1448" y="45"/>
      <point x="1372" y="31"/>
      <point x="1255" y="31" type="curve" smooth="yes"/>
      <point x="1006" y="31"/>
      <point x="852" y="215"/>
      <point x="856" y="545" type="curve"/>
      <point x="1616" y="545" type="line"/>
      <point x="1616" y="596" type="line" smooth="yes"/>
      <point x="1628" y="881"/>
      <point x="1499" y="1102"/>
    </contour>
    <contour>
      <point x="803" y="563" type="line"/>
      <point x="803" y="451" type="line" smooth="yes"/>
      <point x="799" y="203"/>
      <point x="684" y="31"/>
      <point x="430" y="31" type="curve" smooth="yes"/>
      <point x="252" y="31"/>
      <point x="156" y="119"/>
      <point x="156" y="264" type="curve" smooth="yes"/>
      <point x="156" y="455"/>
      <point x="338" y="539"/>
      <point x="610" y="553" type="curve" smooth="yes"/>
    </contour>
    <contour>
      <point x="1237" y="1051" type="curve" smooth="yes"/>
      <point x="1452" y="1051"/>
      <point x="1563" y="866"/>
      <point x="1561" y="596" type="curve"/>
      <point x="858" y="596" type="line"/>
      <point x="883" y="893"/>
      <point x="1038" y="1051"/>
    </contour>
  </outline>
</glyph>
<glyph name="eth" format="2">
  <advance width="1135"/>
  <unicode hex="00F0"/>
  <anchor x="567" y="0" name="bottom"/>
  <anchor x="567" y="1550" name="top"/>
  <outline>
    <contour>
      <point x="418" y="1550" type="curve"/>
      <point x="391" y="1507" type="line"/>
      <point x="473" y="1473"/>
      <point x="553" y="1423"/>
      <point x="610" y="1376" type="curve"/>
      <point x="358" y="1225" type="line"/>
      <point x="385" y="1184" type="line"/>
      <point x="649" y="1343" type="line"/>
      <point x="799" y="1204"/>
      <point x="897" y="997"/>
      <point x="936" y="801" type="curve"/>
      <point x="932" y="801" type="line"/>
      <point x="864" y="887"/>
      <point x="764" y="952"/>
      <point x="571" y="952" type="curve" smooth="yes"/>
      <point x="311" y="952"/>
      <point x="117" y="762"/>
      <point x="117" y="457" type="curve" smooth="yes"/>
      <point x="117" y="170"/>
      <point x="276" y="-20"/>
      <point x="561" y="-20" type="curve" smooth="yes"/>
      <point x="866" y="-20"/>
      <point x="1012" y="240"/>
      <point x="1012" y="557" type="curve" smooth="yes"/>
      <point x="1012" y="872"/>
      <point x="911" y="1153"/>
      <point x="694" y="1370" type="curve"/>
      <point x="907" y="1497" type="line"/>
      <point x="881" y="1540" type="line"/>
      <point x="657" y="1403" type="line"/>
      <point x="596" y="1454"/>
      <point x="518" y="1503"/>
    </contour>
    <contour>
      <point x="571" y="901" type="curve" smooth="yes"/>
      <point x="887" y="901"/>
      <point x="956" y="702"/>
      <point x="956" y="584" type="curve" smooth="yes"/>
      <point x="956" y="223"/>
      <point x="809" y="31"/>
      <point x="561" y="31" type="curve" smooth="yes"/>
      <point x="328" y="31"/>
      <point x="172" y="182"/>
      <point x="172" y="457" type="curve" smooth="yes"/>
      <point x="172" y="737"/>
      <point x="346" y="901"/>
    </contour>
  </outline>
</glyph>
<glyph name="oslash" format="2">
  <advance width="1178"/>
  <unicode hex="00F8"/>
  <anchor x="590" y="0" name="bottom"/>
  <anchor x="590" y="1081" name="top"/>
  <outline>
    <contour>
      <point x="1055" y="541" type="curve" smooth="yes"/>
      <point x="1055" y="705"/>
      <point x="1018" y="850"/>
      <point x="938" y="952" type="curve"/>
      <point x="1061" y="1104" type="line"/>
      <point x="1022" y="1137" type="line"/>
      <point x="903" y="989" type="line"/>
      <point x="831" y="1061"/>
      <point x="731" y="1102"/>
      <point x="598" y="1102" type="curve" smooth="yes"/>
      <point x="297" y="1102"/>
      <point x="121" y="885"/>
      <point x="121" y="541" type="curve" smooth="yes"/>
      <point x="121" y="387"/>
      <point x="158" y="252"/>
      <point x="229" y="152" type="curve"/>
      <point x="88" y="-23" type="line"/>
      <point x="127" y="-55" type="line"/>
      <point x="262" y="111" type="line"/>
      <point x="338" y="29"/>
      <point x="444" y="-20"/>
      <point x="586" y="-20" type="curve" smooth="yes"/>
      <point x="907" y="-20"/>
      <point x="1055" y="223"/>
    </contour>
    <contour>
      <point x="176" y="541" type="curve" smooth="yes"/>
      <point x="176" y="860"/>
      <point x="328" y="1051"/>
      <point x="598" y="1051" type="curve" smooth="yes"/>
      <point x="717" y="1051"/>
      <point x="805" y="1012"/>
      <point x="868" y="948" type="curve"/>
      <point x="262" y="195" type="line"/>
      <point x="205" y="283"/>
      <point x="176" y="401"/>
    </contour>
    <contour>
      <point x="999" y="541" type="curve" smooth="yes"/>
      <point x="999" y="244"/>
      <point x="872" y="31"/>
      <point x="586" y="31" type="curve" smooth="yes"/>
      <point x="459" y="31"/>
      <point x="362" y="76"/>
      <point x="295" y="152" type="curve"/>
      <point x="903" y="907" type="line"/>
      <point x="971" y="815"/>
      <point x="999" y="686"/>
    </contour>
  </outline>
</glyph>
<glyph name="Hbar" format="2">
  <advance width="1446"/>
  <unicode hex="0126"/>
  <anchor x="723" y="0" name="bottom"/>
  <anchor x="723" y="1462" name="top"/>
  <outline>
    <contour>
      <point x="211" y="0" type="line"/>
      <point x="264" y="0" type="line"/>
      <point x="264" y="743" type="line"/>
      <point x="1182" y="743" type="line"/>
      <point x="1182" y="0" type="line"/>
      <point x="1235" y="0" type="line"/>
      <point x="1235" y="1124" type="line"/>
      <point x="1446" y="1124" type="line"/>
      <point x="1446" y="1176" type="line"/>
      <point x="1235" y="1176" type="line"/>
      <point x="1235" y="1462" type="line"/>
      <point x="1182" y="1462" type="line"/>
      <point x="1182" y="1176" type="line"/>
      <point x="264" y="1176" type="line"/>
      <point x="264" y="1462" type="line"/>
      <point x="211" y="1462" type="line"/>
      <point x="211" y="1176" type="line"/>
      <point x="0" y="1176" type="line"/>
      <point x="0" y="1124" type="line"/>
      <point x="211" y="1124" type="line"/>
    </contour>
    <contour>
      <point x="264" y="795" type="line"/>
      <point x="264" y="1124" type="line"/>
      <point x="1182" y="1124" type="line"/>
      <point x="1182" y="795" type="line"/>
    </contour>
  </outline>
</glyph>
<glyph name="lslash" format="2">
  <advance width="424"/>
  <unicode hex="0142"/>
  <anchor x="213" y="0" name="bottom"/>
  <anchor x="213" y="1556" name="top"/>
  <outline>
    <contour>
      <point x="193" y="0" type="line"/>
      <point x="246" y="0" type="line"/>
      <point x="246" y="729" type="line"/>
      <point x="436" y="856" type="line"/>
      <point x="412" y="895" type="line"/>
      <point x="246" y="784" type="line"/>
      <point x="246" y="1556" type="line"/>
      <point x="193" y="1556" type="line"/>
      <point x="193" y="754" type="line"/>
      <point x="20" y="639" type="line"/>
      <point x="49" y="596" type="line"/>
      <point x="193" y="694" type="line"/>
    </contour>
  </outline>
</glyph>
<glyph name="tbar" format="2">
  <advance width="653"/>
  <unicode hex="0167"/>
  <anchor x="391" y="0" name="bottom"/>
  <anchor x="223" y="1350" name="top"/>
  <outline>
    <contour>
      <point x="37" y="584" type="line"/>
      <point x="553" y="584" type="line"/>
      <point x="553" y="635" type="line"/>
      <point x="37" y="635" type="line"/>
    </contour>
    <component base="t"/>
  </outline>
</glyph>
<glyph name="uni0188" format="2">
  <advance width="938"/>
  <unicode hex="0188"/>
  <anchor x="469" y="0" name="bottom"/>
  <anchor x="469" y="1577" name="top"/>
  <outline>
    <contour>
      <point x="618" y="-20" type="curve" smooth="yes"/>
      <point x="731" y="-20"/>
      <point x="829" y="4"/>
      <point x="897" y="33" type="curve"/>
      <point x="897" y="84" type="line"/>
      <point x="817" y="51"/>
      <point x="717" y="31"/>
      <point x="618" y="31" type="curve" smooth="yes"/>
      <point x="307" y="31"/>
      <point x="176" y="256"/>
      <point x="176" y="535" type="curve" smooth="yes"/>
      <point x="176" y="838"/>
      <point x="358" y="1051"/>
      <point x="653" y="1051" type="curve" smooth="yes"/>
      <point x="731" y="1051"/>
      <point x="813" y="1038"/>
      <point x="895" y="1001" type="curve"/>
      <point x="905" y="1053" type="line"/>
      <point x="905" y="1346" type="line" smooth="yes"/>
      <point x="905" y="1485"/>
      <point x="956" y="1528"/>
      <point x="1044" y="1528" type="curve" smooth="yes"/>
      <point x="1090" y="1528"/>
      <point x="1120" y="1518"/>
      <point x="1141" y="1509" type="curve"/>
      <point x="1141" y="1561" type="line"/>
      <point x="1118" y="1569"/>
      <point x="1096" y="1577"/>
      <point x="1044" y="1577" type="curve" smooth="yes"/>
      <point x="930" y="1577"/>
      <point x="854" y="1509"/>
      <point x="854" y="1356" type="curve" smooth="yes"/>
      <point x="854" y="1073" type="line"/>
      <point x="795" y="1092"/>
      <point x="729" y="1102"/>
      <point x="653" y="1102" type="curve" smooth="yes"/>
      <point x="322" y="1102"/>
      <point x="121" y="864"/>
      <point x="121" y="535" type="curve" smooth="yes"/>
      <point x="121" y="217"/>
      <point x="272" y="-20"/>
    </contour>
  </outline>
</glyph>
<glyph name="uni0191" format="2">
  <advance width="1231"/>
  <unicode hex="0191"/>
  <anchor x="256" y="-10" name="bottom"/>
  <anchor x="850" y="1462" name="top"/>
  <anchor x="1251" y="1462" name="topright"/>
  <outline>
    <contour>
      <point x="256" y="-31" type="curve" smooth="yes"/>
      <point x="449" y="-31"/>
      <point x="528" y="115"/>
      <point x="528" y="311" type="curve" smooth="yes"/>
      <point x="528" y="735" type="line"/>
      <point x="1186" y="735" type="line"/>
      <point x="1186" y="786" type="line"/>
      <point x="528" y="786" type="line"/>
      <point x="528" y="1411" type="line"/>
      <point x="1225" y="1411" type="line"/>
      <point x="1225" y="1462" type="line"/>
      <point x="475" y="1462" type="line"/>
      <point x="475" y="313" type="line" smooth="yes"/>
      <point x="475" y="135"/>
      <point x="403" y="18"/>
      <point x="252" y="18" type="curve" smooth="yes"/>
      <point x="125" y="18"/>
      <point x="43" y="96"/>
      <point x="43" y="223" type="curve" smooth="yes"/>
      <point x="43" y="285"/>
      <point x="55" y="322"/>
      <point x="63" y="344" type="curve"/>
      <point x="8" y="362" type="line"/>
      <point x="-2" y="326"/>
      <point x="-12" y="281"/>
      <point x="-12" y="225" type="curve" smooth="yes"/>
      <point x="-12" y="68"/>
      <point x="94" y="-31"/>
    </contour>
  </outline>
</glyph>
<glyph name="uni019C" format="2">
  <advance width="1968"/>
  <unicode hex="019C"/>
  <anchor x="985" y="0" name="bottom"/>
  <anchor x="985" y="1462" name="top"/>
  <outline>
    <contour>
      <point x="561" y="-20" type="curve" smooth="yes"/>
      <point x="795" y="-20"/>
      <point x="915" y="84"/>
      <point x="967" y="231" type="curve"/>
      <point x="971" y="231" type="line"/>
      <point x="1014" y="80"/>
      <point x="1112" y="-20"/>
      <point x="1333" y="-20" type="curve" smooth="yes"/>
      <point x="1585" y="-20"/>
      <point x="1679" y="104"/>
      <point x="1722" y="213" type="curve"/>
      <point x="1726" y="213" type="line"/>
      <point x="1735" y="0" type="line"/>
      <point x="1778" y="0" type="line"/>
      <point x="1778" y="1462" type="line"/>
      <point x="1724" y="1462" type="line"/>
      <point x="1724" y="477" type="line" smooth="yes"/>
      <point x="1724" y="141"/>
      <point x="1567" y="31"/>
      <point x="1333" y="31" type="curve" smooth="yes"/>
      <point x="1122" y="31"/>
      <point x="1006" y="125"/>
      <point x="1006" y="406" type="curve" smooth="yes"/>
      <point x="1006" y="1462" type="line"/>
      <point x="952" y="1462" type="line"/>
      <point x="952" y="477" type="line" smooth="yes"/>
      <point x="952" y="141"/>
      <point x="807" y="31"/>
      <point x="561" y="31" type="curve" smooth="yes"/>
      <point x="350" y="31"/>
      <point x="233" y="125"/>
      <point x="233" y="406" type="curve" smooth="yes"/>
      <point x="233" y="1462" type="line"/>
      <point x="180" y="1462" type="line"/>
      <point x="180" y="403" type="line" smooth="yes"/>
      <point x="180" y="94"/>
      <point x="315" y="-20"/>
    </contour>
  </outline>
</glyph>
<glyph name="uni01A2" format="2">
  <advance width="2165"/>
  <unicode hex="01A2"/>
  <anchor x="1083" y="0" name="bottom"/>
  <anchor x="1083" y="1462" name="top"/>
  <outline>
    <contour>
      <point x="1372" y="733" type="curve" smooth="yes"/>
      <point x="1372" y="936"/>
      <point x="1329" y="1102"/>
      <point x="1253" y="1225" type="curve"/>
      <point x="1313" y="1354"/>
      <point x="1430" y="1430"/>
      <point x="1583" y="1430" type="curve" smooth="yes"/>
      <point x="1790" y="1430"/>
      <point x="1917" y="1298"/>
      <point x="1917" y="1038" type="curve" smooth="yes"/>
      <point x="1917" y="0" type="line"/>
      <point x="1970" y="0" type="line"/>
      <point x="1970" y="1051" type="line" smooth="yes"/>
      <point x="1970" y="1331"/>
      <point x="1819" y="1481"/>
      <point x="1587" y="1481" type="curve" smooth="yes"/>
      <point x="1403" y="1481"/>
      <point x="1284" y="1389"/>
      <point x="1221" y="1274" type="curve"/>
      <point x="1116" y="1411"/>
      <point x="961" y="1485"/>
      <point x="762" y="1485" type="curve" smooth="yes"/>
      <point x="362" y="1485"/>
      <point x="129" y="1176"/>
      <point x="129" y="735" type="curve" smooth="yes"/>
      <point x="129" y="293"/>
      <point x="344" y="-20"/>
      <point x="750" y="-20" type="curve" smooth="yes"/>
      <point x="1161" y="-20"/>
      <point x="1372" y="293"/>
    </contour>
    <contour>
      <point x="184" y="735" type="curve" smooth="yes"/>
      <point x="184" y="1139"/>
      <point x="381" y="1434"/>
      <point x="762" y="1434" type="curve" smooth="yes"/>
      <point x="1110" y="1434"/>
      <point x="1317" y="1178"/>
      <point x="1317" y="733" type="curve" smooth="yes"/>
      <point x="1317" y="319"/>
      <point x="1133" y="31"/>
      <point x="752" y="31" type="curve" smooth="yes"/>
      <point x="373" y="31"/>
      <point x="184" y="326"/>
    </contour>
  </outline>
</glyph>
<glyph name="uni01A4" format="2">
  <advance width="1317"/>
  <unicode hex="01A4"/>
  <anchor x="664" y="0" name="bottom"/>
  <anchor x="664" y="1462" name="top"/>
  <outline>
    <contour>
      <point x="354" y="0" type="line"/>
      <point x="408" y="0" type="line"/>
      <point x="408" y="625" type="line"/>
      <point x="668" y="625" type="line" smooth="yes"/>
      <point x="991" y="625"/>
      <point x="1200" y="745"/>
      <point x="1200" y="1063" type="curve" smooth="yes"/>
      <point x="1200" y="1348"/>
      <point x="1022" y="1462"/>
      <point x="696" y="1462" type="curve" smooth="yes"/>
      <point x="305" y="1462" type="line" smooth="yes"/>
      <point x="115" y="1462"/>
      <point x="20" y="1350"/>
      <point x="20" y="1208" type="curve" smooth="yes"/>
      <point x="20" y="1163"/>
      <point x="27" y="1120"/>
      <point x="39" y="1092" type="curve"/>
      <point x="92" y="1092" type="line"/>
      <point x="84" y="1110"/>
      <point x="72" y="1157"/>
      <point x="72" y="1202" type="curve" smooth="yes"/>
      <point x="72" y="1329"/>
      <point x="141" y="1411"/>
      <point x="309" y="1411" type="curve" smooth="yes"/>
      <point x="354" y="1411" type="line"/>
    </contour>
    <contour>
      <point x="408" y="676" type="line"/>
      <point x="408" y="1411" type="line"/>
      <point x="688" y="1411" type="line" smooth="yes"/>
      <point x="999" y="1411"/>
      <point x="1145" y="1309"/>
      <point x="1145" y="1061" type="curve" smooth="yes"/>
      <point x="1145" y="762"/>
      <point x="950" y="676"/>
      <point x="664" y="676" type="curve" smooth="yes"/>
    </contour>
  </outline>
</glyph>
<glyph name="uni01AA" format="2">
  <advance width="719"/>
  <unicode hex="01AA"/>
  <anchor x="360" y="-485" name="bottom"/>
  <anchor x="360" y="1567" name="top"/>
  <outline>
    <contour>
      <point x="236" y="1567" type="curve" smooth="yes"/>
      <point x="76" y="1567"/>
      <point x="-20" y="1468"/>
      <point x="-20" y="1335" type="curve" smooth="yes"/>
      <point x="-20" y="1182"/>
      <point x="86" y="1104"/>
      <point x="250" y="1104" type="curve" smooth="yes"/>
      <point x="434" y="1104" type="line"/>
      <point x="434" y="-201" type="line" smooth="yes"/>
      <point x="434" y="-389"/>
      <point x="530" y="-485"/>
      <point x="698" y="-485" type="curve" smooth="yes"/>
      <point x="748" y="-485"/>
      <point x="788" y="-477"/>
      <point x="817" y="-465" type="curve"/>
      <point x="817" y="-414" type="line"/>
      <point x="788" y="-426"/>
      <point x="752" y="-434"/>
      <point x="696" y="-434" type="curve" smooth="yes"/>
      <point x="569" y="-434"/>
      <point x="487" y="-367"/>
      <point x="487" y="-186" type="curve" smooth="yes"/>
      <point x="487" y="1298" type="line" smooth="yes"/>
      <point x="487" y="1462"/>
      <point x="393" y="1567"/>
    </contour>
    <contour>
      <point x="231" y="1516" type="curve" smooth="yes"/>
      <point x="358" y="1516"/>
      <point x="434" y="1444"/>
      <point x="434" y="1276" type="curve" smooth="yes"/>
      <point x="434" y="1155" type="line"/>
      <point x="264" y="1155" type="line" smooth="yes"/>
      <point x="106" y="1155"/>
      <point x="35" y="1223"/>
      <point x="35" y="1337" type="curve" smooth="yes"/>
      <point x="35" y="1440"/>
      <point x="104" y="1516"/>
    </contour>
  </outline>
</glyph>
<glyph name="uni01BA" format="2">
  <advance width="948"/>
  <unicode hex="01BA"/>
  <anchor x="475" y="-492" name="bottom"/>
  <anchor x="475" y="1081" name="top"/>
  <outline>
    <contour>
      <point x="410" y="-492" type="curve" smooth="yes"/>
      <point x="561" y="-492"/>
      <point x="682" y="-467"/>
      <point x="758" y="-440" type="curve"/>
      <point x="758" y="-387" type="line"/>
      <point x="651" y="-422"/>
      <point x="547" y="-440"/>
      <point x="410" y="-440" type="curve" smooth="yes"/>
      <point x="215" y="-440"/>
      <point x="117" y="-377"/>
      <point x="117" y="-256" type="curve" smooth="yes"/>
      <point x="117" y="-135"/>
      <point x="180" y="-68"/>
      <point x="391" y="-49" type="curve" smooth="yes"/>
      <point x="643" y="-27"/>
      <point x="791" y="49"/>
      <point x="791" y="285" type="curve" smooth="yes"/>
      <point x="791" y="557"/>
      <point x="549" y="594"/>
      <point x="315" y="590" type="curve"/>
      <point x="758" y="1042" type="line"/>
      <point x="758" y="1081" type="line"/>
      <point x="111" y="1081" type="line"/>
      <point x="111" y="1030" type="line"/>
      <point x="672" y="1030" type="line"/>
      <point x="246" y="590" type="line"/>
      <point x="246" y="539" type="line"/>
      <point x="319" y="539" type="line" smooth="yes"/>
      <point x="541" y="539"/>
      <point x="735" y="512"/>
      <point x="735" y="285" type="curve" smooth="yes"/>
      <point x="735" y="82"/>
      <point x="610" y="25"/>
      <point x="391" y="2" type="curve" smooth="yes"/>
      <point x="162" y="-20"/>
      <point x="59" y="-98"/>
      <point x="59" y="-252" type="curve" smooth="yes"/>
      <point x="59" y="-406"/>
      <point x="176" y="-492"/>
    </contour>
  </outline>
</glyph>
<glyph name="uni01BD" format="2">
  <advance width="850"/>
  <unicode hex="01BD"/>
  <anchor x="426" y="0" name="bottom"/>
  <anchor x="426" y="1081" name="top"/>
  <outline>
    <contour>
      <point x="367" y="-14" type="curve" smooth="yes"/>
      <point x="657" y="-14"/>
      <point x="776" y="139"/>
      <point x="776" y="322" type="curve" smooth="yes"/>
      <point x="776" y="500"/>
      <point x="657" y="623"/>
      <point x="434" y="623" type="curve" smooth="yes"/>
      <point x="285" y="623" type="line"/>
      <point x="285" y="1030" type="line"/>
      <point x="758" y="1030" type="line"/>
      <point x="758" y="1081" type="line"/>
      <point x="74" y="1081" type="line"/>
      <point x="74" y="1030" type="line"/>
      <point x="231" y="1030" type="line"/>
      <point x="231" y="571" type="line"/>
      <point x="416" y="571" type="line" smooth="yes"/>
      <point x="631" y="571"/>
      <point x="721" y="475"/>
      <point x="721" y="322" type="curve" smooth="yes"/>
      <point x="721" y="174"/>
      <point x="633" y="37"/>
      <point x="377" y="37" type="curve" smooth="yes"/>
      <point x="248" y="37"/>
      <point x="141" y="72"/>
      <point x="57" y="117" type="curve"/>
      <point x="57" y="55" type="line"/>
      <point x="117" y="23"/>
      <point x="231" y="-14"/>
    </contour>
  </outline>
</glyph>
<glyph name="uni023C" format="2">
  <advance width="967"/>
  <unicode hex="023C"/>
  <anchor x="606" y="-303" name="bottom"/>
  <anchor x="627" y="1407" name="top"/>
  <outline>
    <contour>
      <point x="924" y="1407" type="line"/>
      <point x="870" y="1407" type="line"/>
      <point x="276" y="-303" type="line"/>
      <point x="330" y="-303" type="line"/>
    </contour>
    <component base="c"/>
  </outline>
</glyph>
<glyph name="uni024B" format="2">
  <advance width="1194"/>
  <unicode hex="024B"/>
  <anchor x="598" y="-498" name="bottom"/>
  <anchor x="598" y="1081" name="top"/>
  <outline>
    <contour>
      <point x="584" y="1102" type="curve" smooth="yes"/>
      <point x="254" y="1102"/>
      <point x="115" y="848"/>
      <point x="115" y="537" type="curve" smooth="yes"/>
      <point x="115" y="172"/>
      <point x="264" y="-23"/>
      <point x="551" y="-23" type="curve" smooth="yes"/>
      <point x="758" y="-23"/>
      <point x="907" y="92"/>
      <point x="952" y="250" type="curve"/>
      <point x="956" y="250" type="line"/>
      <point x="954" y="182"/>
      <point x="952" y="72"/>
      <point x="952" y="6" type="curve" smooth="yes"/>
      <point x="952" y="-256" type="line" smooth="yes"/>
      <point x="952" y="-414"/>
      <point x="1024" y="-498"/>
      <point x="1165" y="-498" type="curve" smooth="yes"/>
      <point x="1212" y="-498"/>
      <point x="1249" y="-489"/>
      <point x="1278" y="-477" type="curve"/>
      <point x="1278" y="-426" type="line"/>
      <point x="1245" y="-438"/>
      <point x="1214" y="-446"/>
      <point x="1169" y="-446" type="curve" smooth="yes"/>
      <point x="1059" y="-446"/>
      <point x="1006" y="-383"/>
      <point x="1006" y="-242" type="curve" smooth="yes"/>
      <point x="1006" y="1081" type="line"/>
      <point x="961" y="1081" type="line"/>
      <point x="952" y="868" type="line"/>
      <point x="948" y="868" type="line"/>
      <point x="901" y="997"/>
      <point x="778" y="1102"/>
    </contour>
    <contour>
      <point x="584" y="1051" type="curve" smooth="yes"/>
      <point x="831" y="1051"/>
      <point x="952" y="881"/>
      <point x="952" y="563" type="curve" smooth="yes"/>
      <point x="952" y="543" type="line" smooth="yes"/>
      <point x="952" y="223"/>
      <point x="827" y="29"/>
      <point x="551" y="29" type="curve" smooth="yes"/>
      <point x="297" y="29"/>
      <point x="170" y="201"/>
      <point x="170" y="537" type="curve" smooth="yes"/>
      <point x="170" y="864"/>
      <point x="313" y="1051"/>
    </contour>
  </outline>
</glyph>
<glyph name="uni024C" format="2">
  <advance width="1182"/>
  <unicode hex="024C"/>
  <anchor x="608" y="0" name="bottom"/>
  <anchor x="592" y="1462" name="top"/>
  <outline>
    <contour>
      <point x="260" y="655" type="line"/>
      <point x="260" y="707" type="line"/>
      <point x="20" y="707" type="line"/>
      <point x="20" y="655" type="line"/>
    </contour>
    <component base="R"/>
  </outline>
</glyph>
<glyph name="uni0263" format="2">
  <advance width="881"/>
  <unicode hex="0263"/>
  <anchor x="440" y="-492" name="bottom"/>
  <anchor x="440" y="1081" name="top"/>
  <outline>
    <contour>
      <point x="451" y="-492" type="curve" smooth="yes"/>
      <point x="569" y="-492"/>
      <point x="639" y="-406"/>
      <point x="639" y="-285" type="curve" smooth="yes"/>
      <point x="639" y="-137"/>
      <point x="571" y="-10"/>
      <point x="489" y="156" type="curve"/>
      <point x="907" y="1081" type="line"/>
      <point x="846" y="1081" type="line"/>
      <point x="559" y="440" type="line" smooth="yes"/>
      <point x="514" y="340"/>
      <point x="477" y="256"/>
      <point x="459" y="207" type="curve"/>
      <point x="455" y="207" type="line"/>
      <point x="432" y="256"/>
      <point x="393" y="346"/>
      <point x="350" y="438" type="curve" smooth="yes"/>
      <point x="61" y="1081" type="line"/>
      <point x="0" y="1081" type="line"/>
      <point x="422" y="154" type="line"/>
      <point x="338" y="-10"/>
      <point x="266" y="-150"/>
      <point x="266" y="-285" type="curve" smooth="yes"/>
      <point x="266" y="-408"/>
      <point x="336" y="-492"/>
    </contour>
    <contour>
      <point x="455" y="-440" type="curve" smooth="yes"/>
      <point x="373" y="-440"/>
      <point x="322" y="-389"/>
      <point x="322" y="-281" type="curve" smooth="yes"/>
      <point x="322" y="-160"/>
      <point x="387" y="-31"/>
      <point x="457" y="109" type="curve"/>
      <point x="520" y="-31"/>
      <point x="584" y="-152"/>
      <point x="584" y="-281" type="curve" smooth="yes"/>
      <point x="584" y="-385"/>
      <point x="539" y="-440"/>
    </contour>
  </outline>
</glyph>
<glyph name="uni026C" format="2">
  <advance width="530"/>
  <unicode hex="026C"/>
  <anchor x="266" y="0" name="bottom"/>
  <anchor x="266" y="1556" name="top"/>
  <outline>
    <contour>
      <point x="281" y="0" type="line"/>
      <point x="334" y="0" type="line"/>
      <point x="334" y="651" type="line"/>
      <point x="510" y="651" type="line"/>
      <point x="510" y="702" type="line"/>
      <point x="334" y="702" type="line"/>
      <point x="334" y="1556" type="line"/>
      <point x="281" y="1556" type="line"/>
      <point x="281" y="868" type="line"/>
      <point x="252" y="922"/>
      <point x="203" y="954"/>
      <point x="133" y="954" type="curve" smooth="yes"/>
      <point x="35" y="954"/>
      <point x="-29" y="895"/>
      <point x="-29" y="809" type="curve" smooth="yes"/>
      <point x="-29" y="700"/>
      <point x="49" y="651"/>
      <point x="160" y="651" type="curve" smooth="yes"/>
      <point x="281" y="651" type="line"/>
    </contour>
    <contour>
      <point x="168" y="702" type="line" smooth="yes"/>
      <point x="76" y="702"/>
      <point x="25" y="737"/>
      <point x="25" y="811" type="curve" smooth="yes"/>
      <point x="25" y="866"/>
      <point x="61" y="905"/>
      <point x="135" y="905" type="curve" smooth="yes"/>
      <point x="242" y="905"/>
      <point x="276" y="809"/>
      <point x="281" y="717" type="curve" smooth="yes"/>
      <point x="281" y="702" type="line"/>
    </contour>
  </outline>
</glyph>
<glyph name="uni0270" format="2">
  <advance width="1745"/>
  <unicode hex="0270"/>
  <anchor x="872" y="-492" name="bottom"/>
  <anchor x="872" y="1081" name="top"/>
  <outline>
    <contour>
      <point x="1507" y="-492" type="line"/>
      <point x="1561" y="-492" type="line"/>
      <point x="1561" y="1081" type="line"/>
      <point x="1507" y="1081" type="line"/>
      <point x="1507" y="416" type="line" smooth="yes"/>
      <point x="1507" y="141"/>
      <point x="1348" y="31"/>
      <point x="1157" y="31" type="curve" smooth="yes"/>
      <point x="1008" y="31"/>
      <point x="891" y="125"/>
      <point x="891" y="344" type="curve" smooth="yes"/>
      <point x="891" y="1081" type="line"/>
      <point x="838" y="1081" type="line"/>
      <point x="838" y="416" type="line" smooth="yes"/>
      <point x="838" y="141"/>
      <point x="692" y="31"/>
      <point x="487" y="31" type="curve" smooth="yes"/>
      <point x="338" y="31"/>
      <point x="221" y="125"/>
      <point x="221" y="344" type="curve" smooth="yes"/>
      <point x="221" y="1081" type="line"/>
      <point x="168" y="1081" type="line"/>
      <point x="168" y="342" type="line" smooth="yes"/>
      <point x="168" y="94"/>
      <point x="303" y="-20"/>
      <point x="487" y="-20" type="curve" smooth="yes"/>
      <point x="670" y="-20"/>
      <point x="797" y="59"/>
      <point x="850" y="201" type="curve"/>
      <point x="854" y="201" type="line"/>
      <point x="899" y="55"/>
      <point x="1014" y="-20"/>
      <point x="1157" y="-20" type="curve" smooth="yes"/>
      <point x="1366" y="-20"/>
      <point x="1460" y="90"/>
      <point x="1503" y="190" type="curve"/>
      <point x="1507" y="190" type="line"/>
      <point x="1507" y="133"/>
      <point x="1507" y="76"/>
      <point x="1507" y="18" type="curve"/>
    </contour>
  </outline>
</glyph>
<glyph name="uni0273" format="2">
  <advance width="1174"/>
  <unicode hex="0273"/>
  <anchor x="588" y="-485" name="bottom"/>
  <anchor x="588" y="1081" name="top"/>
  <anchor x="1133" y="1081" name="topright"/>
  <outline>
    <contour>
      <point x="1001" y="-186" type="curve" smooth="yes"/>
      <point x="1001" y="709" type="line" smooth="yes"/>
      <point x="1001" y="977"/>
      <point x="866" y="1102"/>
      <point x="633" y="1102" type="curve" smooth="yes"/>
      <point x="403" y="1102"/>
      <point x="287" y="979"/>
      <point x="240" y="854" type="curve"/>
      <point x="236" y="854" type="line"/>
      <point x="227" y="1081" type="line"/>
      <point x="184" y="1081" type="line"/>
      <point x="184" y="0" type="line"/>
      <point x="238" y="0" type="line"/>
      <point x="238" y="618" type="line" smooth="yes"/>
      <point x="238" y="913"/>
      <point x="397" y="1051"/>
      <point x="633" y="1051" type="curve" smooth="yes"/>
      <point x="831" y="1051"/>
      <point x="948" y="946"/>
      <point x="948" y="707" type="curve" smooth="yes"/>
      <point x="948" y="-201" type="line" smooth="yes"/>
      <point x="948" y="-389"/>
      <point x="1042" y="-485"/>
      <point x="1208" y="-485" type="curve" smooth="yes"/>
      <point x="1257" y="-485"/>
      <point x="1307" y="-475"/>
      <point x="1333" y="-465" type="curve"/>
      <point x="1333" y="-414" type="line"/>
      <point x="1307" y="-424"/>
      <point x="1266" y="-434"/>
      <point x="1210" y="-434" type="curve" smooth="yes"/>
      <point x="1083" y="-434"/>
      <point x="1001" y="-367"/>
    </contour>
  </outline>
</glyph>
<glyph name="uni027D" format="2">
  <advance width="768"/>
  <unicode hex="027D"/>
  <anchor x="385" y="-485" name="bottom"/>
  <anchor x="385" y="1081" name="top"/>
  <outline>
    <contour>
      <point x="569" y="1098" type="curve" smooth="yes"/>
      <point x="395" y="1098"/>
      <point x="283" y="999"/>
      <point x="244" y="874" type="curve"/>
      <point x="240" y="874" type="line"/>
      <point x="236" y="1081" type="line"/>
      <point x="186" y="1081" type="line"/>
      <point x="186" y="-201" type="line" smooth="yes"/>
      <point x="186" y="-389"/>
      <point x="281" y="-485"/>
      <point x="446" y="-485" type="curve" smooth="yes"/>
      <point x="496" y="-485"/>
      <point x="545" y="-475"/>
      <point x="571" y="-465" type="curve"/>
      <point x="571" y="-414" type="line"/>
      <point x="545" y="-424"/>
      <point x="504" y="-434"/>
      <point x="449" y="-434" type="curve" smooth="yes"/>
      <point x="322" y="-434"/>
      <point x="240" y="-367"/>
      <point x="240" y="-186" type="curve" smooth="yes"/>
      <point x="240" y="608" type="line" smooth="yes"/>
      <point x="240" y="877"/>
      <point x="342" y="1047"/>
      <point x="569" y="1047" type="curve" smooth="yes"/>
      <point x="631" y="1047"/>
      <point x="672" y="1040"/>
      <point x="723" y="1026" type="curve"/>
      <point x="735" y="1075" type="line"/>
      <point x="686" y="1090"/>
      <point x="635" y="1098"/>
    </contour>
  </outline>
</glyph>
<glyph name="uni0288" format="2">
  <advance width="653"/>
  <unicode hex="0288"/>
  <anchor x="434" y="-489" name="bottom"/>
  <anchor x="223" y="1350" name="top"/>
  <anchor x="612" y="1350" name="topright"/>
  <outline>
    <contour>
      <point x="434" y="-438" type="curve" smooth="yes"/>
      <point x="283" y="-438"/>
      <point x="240" y="-344"/>
      <point x="240" y="-176" type="curve" smooth="yes"/>
      <point x="240" y="1030" type="line"/>
      <point x="592" y="1030" type="line"/>
      <point x="592" y="1081" type="line"/>
      <point x="240" y="1081" type="line"/>
      <point x="240" y="1350" type="line"/>
      <point x="197" y="1350" type="line"/>
      <point x="184" y="1081" type="line"/>
      <point x="20" y="1075" type="line"/>
      <point x="20" y="1030" type="line"/>
      <point x="186" y="1030" type="line"/>
      <point x="186" y="-182" type="line" smooth="yes"/>
      <point x="186" y="-373"/>
      <point x="244" y="-489"/>
      <point x="434" y="-489" type="curve" smooth="yes"/>
      <point x="506" y="-489"/>
      <point x="551" y="-477"/>
      <point x="596" y="-463" type="curve"/>
      <point x="596" y="-412" type="line"/>
      <point x="551" y="-428"/>
      <point x="502" y="-438"/>
    </contour>
  </outline>
</glyph>
<glyph name="uni0291" format="2">
  <advance width="1061"/>
  <unicode hex="0291"/>
  <anchor x="530" y="-172" name="bottom"/>
  <anchor x="530" y="1081" name="top"/>
  <outline>
    <contour>
      <point x="356" y="-172" type="line"/>
      <point x="377" y="-111"/>
      <point x="401" y="-49"/>
      <point x="424" y="0" type="curve"/>
      <point x="707" y="0" type="line" smooth="yes"/>
      <point x="936" y="0"/>
      <point x="1040" y="92"/>
      <point x="1040" y="229" type="curve" smooth="yes"/>
      <point x="1040" y="346"/>
      <point x="961" y="416"/>
      <point x="834" y="416" type="curve" smooth="yes"/>
      <point x="637" y="416"/>
      <point x="496" y="272"/>
      <point x="387" y="51" type="curve"/>
      <point x="152" y="51" type="line"/>
      <point x="850" y="1040" type="line"/>
      <point x="850" y="1081" type="line"/>
      <point x="139" y="1081" type="line"/>
      <point x="139" y="1030" type="line"/>
      <point x="776" y="1030" type="line"/>
      <point x="84" y="41" type="line"/>
      <point x="84" y="0" type="line"/>
      <point x="365" y="0" type="line"/>
      <point x="342" y="-49"/>
      <point x="322" y="-102"/>
      <point x="303" y="-158" type="curve"/>
    </contour>
    <contour>
      <point x="446" y="51" type="line"/>
      <point x="543" y="240"/>
      <point x="668" y="365"/>
      <point x="829" y="365" type="curve" smooth="yes"/>
      <point x="930" y="365"/>
      <point x="985" y="307"/>
      <point x="985" y="229" type="curve" smooth="yes"/>
      <point x="985" y="133"/>
      <point x="911" y="51"/>
      <point x="700" y="51" type="curve" smooth="yes"/>
    </contour>
  </outline>
</glyph>
<glyph name="uni029D" format="2">
  <advance width="424"/>
  <unicode hex="029D"/>
  <anchor x="213" y="-492" name="bottom"/>
  <anchor x="213" y="1477" name="top"/>
  <outline>
    <contour>
      <point x="25" y="-492" type="curve" smooth="yes"/>
      <point x="164" y="-492"/>
      <point x="236" y="-401"/>
      <point x="236" y="-152" type="curve"/>
      <point x="393" y="-152" type="line"/>
      <point x="393" y="-100" type="line"/>
      <point x="238" y="-100" type="line"/>
      <point x="238" y="1081" type="line"/>
      <point x="184" y="1081" type="line"/>
      <point x="184" y="-100" type="line"/>
      <point x="74" y="-100" type="line" smooth="yes"/>
      <point x="-74" y="-100"/>
      <point x="-164" y="-174"/>
      <point x="-164" y="-299" type="curve" smooth="yes"/>
      <point x="-164" y="-420"/>
      <point x="-86" y="-492"/>
    </contour>
    <contour>
      <point x="25" y="-440" type="curve" smooth="yes"/>
      <point x="-57" y="-440"/>
      <point x="-109" y="-389"/>
      <point x="-109" y="-299" type="curve" smooth="yes"/>
      <point x="-109" y="-205"/>
      <point x="-53" y="-152"/>
      <point x="78" y="-152" type="curve" smooth="yes"/>
      <point x="182" y="-152" type="line"/>
      <point x="182" y="-197" type="line" smooth="yes"/>
      <point x="182" y="-381"/>
      <point x="121" y="-440"/>
    </contour>
    <contour>
      <point x="211" y="1350" type="curve" smooth="yes"/>
      <point x="260" y="1350"/>
      <point x="266" y="1378"/>
      <point x="266" y="1413" type="curve" smooth="yes"/>
      <point x="266" y="1446"/>
      <point x="260" y="1477"/>
      <point x="211" y="1477" type="curve" smooth="yes"/>
      <point x="170" y="1477"/>
      <point x="160" y="1446"/>
      <point x="160" y="1413" type="curve" smooth="yes"/>
      <point x="160" y="1378"/>
      <point x="170" y="1350"/>
    </contour>
  </outline>
</glyph>
<glyph name="uni02AB" format="2">
  <advance width="1077"/>
  <unicode hex="02AB"/>
  <anchor x="528" y="0" name="bottom"/>
  <anchor x="528" y="1556" name="top"/>
  <outline>
    <contour>
      <point x="186" y="0" type="line"/>
      <point x="987" y="0" type="line"/>
      <point x="987" y="51" type="line"/>
      <point x="301" y="51" type="line"/>
      <point x="993" y="1051" type="line"/>
      <point x="993" y="1081" type="line"/>
      <point x="240" y="1081" type="line"/>
      <point x="240" y="1556" type="line"/>
      <point x="186" y="1556" type="line"/>
    </contour>
    <contour>
      <point x="240" y="53" type="line"/>
      <point x="240" y="1030" type="line"/>
      <point x="915" y="1030" type="line"/>
    </contour>
  </outline>
</glyph>
<glyph name="uni02AC" format="2">
  <advance width="1004"/>
  <unicode hex="02AC"/>
  <anchor x="502" y="0" name="bottom"/>
  <anchor x="502" y="1462" name="top"/>
  <outline>
    <contour>
      <point x="979" y="1462" type="line"/>
      <point x="928" y="1462" type="line"/>
      <point x="745" y="842" type="line"/>
      <point x="541" y="1462" type="line"/>
      <point x="489" y="1462" type="line"/>
      <point x="270" y="842" type="line"/>
      <point x="82" y="1462" type="line"/>
      <point x="27" y="1462" type="line"/>
      <point x="240" y="778" type="line"/>
      <point x="299" y="778" type="line"/>
      <point x="514" y="1395" type="line"/>
      <point x="715" y="778" type="line"/>
      <point x="778" y="778" type="line"/>
    </contour>
    <contour>
      <point x="979" y="684" type="line"/>
      <point x="928" y="684" type="line"/>
      <point x="745" y="63" type="line"/>
      <point x="541" y="684" type="line"/>
      <point x="489" y="684" type="line"/>
      <point x="270" y="63" type="line"/>
      <point x="82" y="684" type="line"/>
      <point x="27" y="684" type="line"/>
      <point x="240" y="0" type="line"/>
      <point x="299" y="0" type="line"/>
      <point x="514" y="616" type="line"/>
      <point x="715" y="0" type="line"/>
      <point x="778" y="0" type="line"/>
    </contour>
  </outline>
</glyph>
<glyph name="uni02AD" format="2">
  <advance width="1241"/>
  <unicode hex="02AD"/>
  <anchor x="621" y="0" name="bottom"/>
  <anchor x="621" y="1462" name="top"/>
  <outline>
    <contour>
      <point x="174" y="477" type="line"/>
      <point x="174" y="0" type="line"/>
      <point x="227" y="0" type="line"/>
      <point x="227" y="426" type="line"/>
      <point x="981" y="426" type="line"/>
      <point x="981" y="0" type="line"/>
      <point x="1034" y="0" type="line"/>
      <point x="1034" y="477" type="line"/>
    </contour>
    <contour>
      <point x="174" y="1462" type="line"/>
      <point x="174" y="985" type="line"/>
      <point x="227" y="985" type="line"/>
      <point x="227" y="1411" type="line"/>
      <point x="981" y="1411" type="line"/>
      <point x="981" y="985" type="line"/>
      <point x="1034" y="985" type="line"/>
      <point x="1034" y="1462" type="line"/>
    </contour>
  </outline>
</glyph>
<glyph name="uni02AF" format="2">
  <advance width="1196"/>
  <unicode hex="02AF"/>
  <anchor x="598" y="-485" name="bottom"/>
  <anchor x="598" y="1081" name="top"/>
  <outline>
    <contour>
      <point x="-4" y="1118" type="curve" smooth="yes"/>
      <point x="-53" y="1118"/>
      <point x="-80" y="1112"/>
      <point x="-104" y="1106" type="curve"/>
      <point x="-104" y="1055" type="line"/>
      <point x="-82" y="1061"/>
      <point x="-53" y="1067"/>
      <point x="-8" y="1067" type="curve" smooth="yes"/>
      <point x="106" y="1067"/>
      <point x="172" y="995"/>
      <point x="172" y="834" type="curve" smooth="yes"/>
      <point x="172" y="373" type="line" smooth="yes"/>
      <point x="172" y="104"/>
      <point x="307" y="-20"/>
      <point x="541" y="-20" type="curve" smooth="yes"/>
      <point x="770" y="-20"/>
      <point x="893" y="98"/>
      <point x="936" y="227" type="curve"/>
      <point x="940" y="227" type="line"/>
      <point x="938" y="168"/>
      <point x="936" y="127"/>
      <point x="936" y="66" type="curve" smooth="yes"/>
      <point x="936" y="-201" type="line" smooth="yes"/>
      <point x="936" y="-389"/>
      <point x="1030" y="-485"/>
      <point x="1196" y="-485" type="curve" smooth="yes"/>
      <point x="1245" y="-485"/>
      <point x="1294" y="-475"/>
      <point x="1321" y="-465" type="curve"/>
      <point x="1321" y="-414" type="line"/>
      <point x="1294" y="-424"/>
      <point x="1253" y="-434"/>
      <point x="1198" y="-434" type="curve" smooth="yes"/>
      <point x="1071" y="-434"/>
      <point x="989" y="-367"/>
      <point x="989" y="-186" type="curve" smooth="yes"/>
      <point x="989" y="1081" type="line"/>
      <point x="936" y="1081" type="line"/>
      <point x="936" y="463" type="line" smooth="yes"/>
      <point x="936" y="168"/>
      <point x="776" y="31"/>
      <point x="541" y="31" type="curve" smooth="yes"/>
      <point x="342" y="31"/>
      <point x="225" y="135"/>
      <point x="225" y="375" type="curve" smooth="yes"/>
      <point x="225" y="856" type="line" smooth="yes"/>
      <point x="225" y="1022"/>
      <point x="143" y="1118"/>
    </contour>
  </outline>
</glyph>
<glyph name="breve" format="2">
  <advance width="666"/>
  <unicode hex="02D8"/>
  <outline>
    <contour>
      <point x="584" y="1470" type="curve"/>
      <point x="532" y="1470" type="line"/>
      <point x="520" y="1362"/>
      <point x="465" y="1290"/>
      <point x="332" y="1290" type="curve" smooth="yes"/>
      <point x="207" y="1290"/>
      <point x="143" y="1362"/>
      <point x="133" y="1470" type="curve"/>
      <point x="82" y="1470" type="line"/>
      <point x="94" y="1321"/>
      <point x="184" y="1241"/>
      <point x="332" y="1241" type="curve" smooth="yes"/>
      <point x="479" y="1241"/>
      <point x="565" y="1321"/>
    </contour>
  </outline>
</glyph>
<glyph name="uni02F1" format="2">
  <advance width="584"/>
  <unicode hex="02F1"/>
  <outline>
    <contour>
      <point x="498" y="-420" type="line"/>
      <point x="498" y="-367" type="line"/>
      <point x="164" y="-221" type="line"/>
      <point x="498" y="-78" type="line"/>
      <point x="502" y="-25" type="line"/>
      <point x="82" y="-205" type="line"/>
      <point x="82" y="-240" type="line"/>
    </contour>
  </outline>
</glyph>
<glyph name="uni02FD" format="2">
  <advance width="762"/>
  <unicode hex="02FD"/>
  <outline>
    <contour>
      <point x="680" y="-367" type="line"/>
      <point x="680" y="-100" type="line"/>
      <point x="600" y="-100" type="line"/>
      <point x="600" y="-311" type="line"/>
      <point x="164" y="-311" type="line"/>
      <point x="164" y="-100" type="line"/>
      <point x="82" y="-100" type="line"/>
      <point x="82" y="-367" type="line"/>
    </contour>
  </outline>
</glyph>
<glyph name="candraBinducomb" format="2">
  <unicode hex="0310"/>
  <anchor x="2" y="1081" name="_top"/>
  <anchor x="2" y="1526" name="top"/>
  <outline>
    <contour>
      <point x="252" y="1470" type="curve"/>
      <point x="201" y="1470" type="line"/>
      <point x="188" y="1362"/>
      <point x="133" y="1290"/>
      <point x="0" y="1290" type="curve" smooth="yes"/>
      <point x="-125" y="1290"/>
      <point x="-188" y="1362"/>
      <point x="-199" y="1470" type="curve"/>
      <point x="-250" y="1470" type="line"/>
      <point x="-238" y="1321"/>
      <point x="-147" y="1241"/>
      <point x="0" y="1241" type="curve" smooth="yes"/>
      <point x="147" y="1241"/>
      <point x="233" y="1321"/>
    </contour>
    <contour>
      <point x="-4" y="1526" type="curve" smooth="yes"/>
      <point x="-45" y="1526"/>
      <point x="-55" y="1495"/>
      <point x="-55" y="1462" type="curve" smooth="yes"/>
      <point x="-55" y="1427"/>
      <point x="-45" y="1399"/>
      <point x="-4" y="1399" type="curve" smooth="yes"/>
      <point x="45" y="1399"/>
      <point x="51" y="1427"/>
      <point x="51" y="1462" type="curve" smooth="yes"/>
      <point x="51" y="1495"/>
      <point x="45" y="1526"/>
    </contour>
  </outline>
</glyph>
<glyph name="righttackbelowcomb" format="2">
  <unicode hex="0319"/>
  <anchor x="0" y="0" name="_bottom"/>
  <anchor x="0" y="-420" name="bottom"/>
  <outline>
    <contour>
      <point x="137" y="-285" type="line"/>
      <point x="137" y="-219" type="line"/>
      <point x="-68" y="-219" type="line"/>
      <point x="-68" y="-84" type="line"/>
      <point x="-137" y="-84" type="line"/>
      <point x="-137" y="-420" type="line"/>
      <point x="-68" y="-420" type="line"/>
      <point x="-68" y="-285" type="line"/>
    </contour>
  </outline>
</glyph>
<glyph name="ringhalfleftbelowcomb" format="2">
  <unicode hex="031C"/>
  <anchor x="-4" y="0" name="_bottom"/>
  <anchor x="-4" y="-483" name="bottom"/>
  <outline>
    <contour>
      <point x="109" y="-483" type="curve"/>
      <point x="109" y="-442" type="line"/>
      <point x="-8" y="-442"/>
      <point x="-72" y="-377"/>
      <point x="-72" y="-266" type="curve" smooth="yes"/>
      <point x="-72" y="-156"/>
      <point x="6" y="-92"/>
      <point x="109" y="-92" type="curve"/>
      <point x="109" y="-51" type="line"/>
      <point x="-25" y="-51"/>
      <point x="-115" y="-131"/>
      <point x="-115" y="-266" type="curve" smooth="yes"/>
      <point x="-115" y="-403"/>
      <point x="-25" y="-483"/>
    </contour>
  </outline>
</glyph>
<glyph name="hookpalatalizedbelowcomb" format="2">
  <unicode hex="0321"/>
  <anchor x="-131" y="0" name="_bottom"/>
  <anchor x="-131" y="-481" name="bottom"/>
  <outline>
    <contour>
      <point x="-184" y="-481" type="curve" smooth="yes"/>
      <point x="-51" y="-481"/>
      <point x="0" y="-395"/>
      <point x="0" y="-287" type="curve" smooth="yes"/>
      <point x="0" y="63" type="line"/>
      <point x="-61" y="63" type="line"/>
      <point x="-61" y="-307" type="line" smooth="yes"/>
      <point x="-61" y="-365"/>
      <point x="-98" y="-420"/>
      <point x="-154" y="-420" type="curve" smooth="yes"/>
      <point x="-205" y="-420"/>
      <point x="-246" y="-408"/>
      <point x="-262" y="-401" type="curve"/>
      <point x="-262" y="-459" type="line"/>
      <point x="-254" y="-463"/>
      <point x="-219" y="-481"/>
    </contour>
  </outline>
</glyph>
<glyph name="hookretroflexbelowcomb" format="2">
  <unicode hex="0322"/>
  <anchor x="131" y="0" name="_bottom"/>
  <anchor x="131" y="-481" name="bottom"/>
  <outline>
    <contour>
      <point x="184" y="-481" type="curve" smooth="yes"/>
      <point x="219" y="-481"/>
      <point x="254" y="-463"/>
      <point x="260" y="-459" type="curve"/>
      <point x="260" y="-401" type="line"/>
      <point x="246" y="-408"/>
      <point x="205" y="-420"/>
      <point x="152" y="-420" type="curve" smooth="yes"/>
      <point x="96" y="-420"/>
      <point x="59" y="-365"/>
      <point x="59" y="-307" type="curve" smooth="yes"/>
      <point x="59" y="63" type="line"/>
      <point x="0" y="63" type="line"/>
      <point x="0" y="-287" type="line" smooth="yes"/>
      <point x="0" y="-395"/>
      <point x="49" y="-481"/>
    </contour>
  </outline>
</glyph>
<glyph name="dblarchinvertedbelowcomb" format="2">
  <unicode hex="032B"/>
  <anchor x="2" y="0" name="_bottom"/>
  <anchor x="2" y="-334" name="bottom"/>
  <outline>
    <contour>
      <point x="340" y="-125" type="curve"/>
      <point x="279" y="-125" type="line"/>
      <point x="279" y="-217"/>
      <point x="227" y="-260"/>
      <point x="158" y="-260" type="curve" smooth="yes"/>
      <point x="78" y="-260"/>
      <point x="33" y="-217"/>
      <point x="33" y="-125" type="curve"/>
      <point x="-37" y="-125" type="line"/>
      <point x="-37" y="-217"/>
      <point x="-86" y="-260"/>
      <point x="-158" y="-260" type="curve" smooth="yes"/>
      <point x="-233" y="-260"/>
      <point x="-276" y="-217"/>
      <point x="-276" y="-125" type="curve"/>
      <point x="-338" y="-125" type="line"/>
      <point x="-338" y="-262"/>
      <point x="-258" y="-334"/>
      <point x="-152" y="-334" type="curve" smooth="yes"/>
      <point x="-78" y="-334"/>
      <point x="-23" y="-285"/>
      <point x="0" y="-231" type="curve"/>
      <point x="25" y="-285"/>
      <point x="78" y="-334"/>
      <point x="160" y="-334" type="curve" smooth="yes"/>
      <point x="258" y="-334"/>
      <point x="340" y="-264"/>
    </contour>
  </outline>
</glyph>
<glyph name="slashlongoverlaycomb" format="2">
  <unicode hex="0338"/>
  <anchor x="0" y="721" name="_center"/>
  <outline>
    <contour>
      <point x="346" y="1559" type="line"/>
      <point x="272" y="1559" type="line"/>
      <point x="-346" y="-119" type="line"/>
      <point x="-272" y="-119" type="line"/>
    </contour>
  </outline>
</glyph>
<glyph name="gbridgeabovecomb" format="2">
  <unicode hex="0346"/>
  <anchor x="0" y="1081" name="_top"/>
  <anchor x="0" y="1505" name="top"/>
  <outline>
    <contour>
      <point x="-305" y="1505" type="line"/>
      <point x="-305" y="1245" type="line"/>
      <point x="-236" y="1245" type="line"/>
      <point x="-236" y="1442" type="line"/>
      <point x="236" y="1442" type="line"/>
      <point x="236" y="1245" type="line"/>
      <point x="305" y="1245" type="line"/>
      <point x="305" y="1505" type="line"/>
    </contour>
  </outline>
</glyph>
<glyph name="arrowheadrightheadupbelowcomb" format="2">
  <unicode hex="0356"/>
  <anchor x="4" y="0" name="_bottom"/>
  <anchor x="4" y="-504" name="bottom"/>
  <outline>
    <contour>
      <point x="-57" y="-428" type="curve"/>
      <point x="-57" y="-440" type="line"/>
      <point x="-14" y="-440" type="line"/>
      <point x="45" y="-377"/>
      <point x="117" y="-276"/>
      <point x="164" y="-201" type="curve"/>
      <point x="207" y="-272"/>
      <point x="279" y="-373"/>
      <point x="340" y="-440" type="curve"/>
      <point x="381" y="-440" type="line"/>
      <point x="381" y="-428" type="line"/>
      <point x="311" y="-344"/>
      <point x="225" y="-201"/>
      <point x="180" y="-119" type="curve"/>
      <point x="145" y="-119" type="line"/>
      <point x="102" y="-201"/>
      <point x="6" y="-348"/>
    </contour>
    <contour>
      <point x="-362" y="-66" type="curve"/>
      <point x="-375" y="-66" type="line"/>
      <point x="-375" y="-109" type="line"/>
      <point x="-311" y="-168"/>
      <point x="-211" y="-240"/>
      <point x="-135" y="-287" type="curve"/>
      <point x="-207" y="-330"/>
      <point x="-307" y="-401"/>
      <point x="-375" y="-463" type="curve"/>
      <point x="-375" y="-504" type="line"/>
      <point x="-362" y="-504" type="line"/>
      <point x="-279" y="-434"/>
      <point x="-135" y="-348"/>
      <point x="-53" y="-303" type="curve"/>
      <point x="-53" y="-268" type="line"/>
      <point x="-135" y="-225"/>
      <point x="-283" y="-129"/>
    </contour>
  </outline>
</glyph>
<glyph name="breveinverteddoublecomb" format="2">
  <unicode hex="0361"/>
  <anchor x="-721" y="1229" name="_top"/>
  <anchor x="2" y="1712" name="top"/>
  <outline>
    <contour>
      <point x="-8" y="1712" type="curve" smooth="yes"/>
      <point x="-340" y="1712"/>
      <point x="-623" y="1610"/>
      <point x="-766" y="1350" type="curve"/>
      <point x="-690" y="1350" type="line"/>
      <point x="-584" y="1548"/>
      <point x="-311" y="1626"/>
      <point x="-4" y="1626" type="curve" smooth="yes"/>
      <point x="393" y="1626"/>
      <point x="606" y="1530"/>
      <point x="694" y="1350" type="curve"/>
      <point x="768" y="1350" type="line"/>
      <point x="647" y="1591"/>
      <point x="356" y="1712"/>
    </contour>
  </outline>
</glyph>
<glyph name="Heta" format="2">
  <advance width="819"/>
  <unicode hex="0370"/>
  <anchor x="410" y="0" name="bottom"/>
  <anchor x="410" y="1462" name="top"/>
  <outline>
    <contour>
      <point x="717" y="743" type="line"/>
      <point x="717" y="795" type="line"/>
      <point x="264" y="795" type="line"/>
      <point x="264" y="1462" type="line"/>
      <point x="211" y="1462" type="line"/>
      <point x="211" y="0" type="line"/>
      <point x="264" y="0" type="line"/>
      <point x="264" y="743" type="line"/>
    </contour>
  </outline>
</glyph>
<glyph name="uni0375" format="2">
  <advance width="410"/>
  <unicode hex="0375"/>
  <outline>
    <contour>
      <point x="373" y="-141" type="curve"/>
      <point x="373" y="-123" type="line"/>
      <point x="336" y="-123" type="line"/>
      <point x="244" y="-197"/>
      <point x="141" y="-326"/>
      <point x="84" y="-430" type="curve"/>
      <point x="84" y="-451" type="line"/>
      <point x="154" y="-451" type="line"/>
      <point x="197" y="-354"/>
      <point x="291" y="-221"/>
    </contour>
  </outline>
</glyph>
<glyph name="Gamma" format="2">
  <advance width="1001"/>
  <unicode hex="0393"/>
  <anchor x="502" y="0" name="bottom"/>
  <anchor x="586" y="1462" name="top"/>
  <outline>
    <contour>
      <point x="997" y="1462" type="line"/>
      <point x="211" y="1462" type="line"/>
      <point x="211" y="0" type="line"/>
      <point x="264" y="0" type="line"/>
      <point x="264" y="1411" type="line"/>
      <point x="997" y="1411" type="line"/>
    </contour>
  </outline>
</glyph>
<glyph name="Xi" format="2">
  <advance width="1059"/>
  <unicode hex="039E"/>
  <anchor x="530" y="0" name="bottom"/>
  <anchor x="530" y="1462" name="top"/>
  <outline>
    <contour>
      <point x="23" y="0" type="line"/>
      <point x="1036" y="0" type="line"/>
      <point x="1036" y="51" type="line"/>
      <point x="23" y="51" type="line"/>
    </contour>
    <contour>
      <point x="145" y="743" type="line"/>
      <point x="913" y="743" type="line"/>
      <point x="913" y="795" type="line"/>
      <point x="145" y="795" type="line"/>
    </contour>
    <contour>
      <point x="63" y="1411" type="line"/>
      <point x="995" y="1411" type="line"/>
      <point x="995" y="1462" type="line"/>
      <point x="63" y="1462" type="line"/>
    </contour>
  </outline>
</glyph>
<glyph name="Omega" format="2">
  <advance width="1579"/>
  <unicode hex="03A9"/>
  <anchor x="791" y="0" name="bottom"/>
  <anchor x="791" y="1462" name="top"/>
  <anchor x="41" y="1462" name="topleft"/>
  <outline>
    <contour>
      <point x="786" y="1434" type="curve" smooth="yes"/>
      <point x="1137" y="1434"/>
      <point x="1386" y="1198"/>
      <point x="1386" y="788" type="curve" smooth="yes"/>
      <point x="1386" y="416"/>
      <point x="1225" y="209"/>
      <point x="938" y="47" type="curve"/>
      <point x="938" y="0" type="line"/>
      <point x="1493" y="0" type="line"/>
      <point x="1493" y="51" type="line"/>
      <point x="1030" y="51" type="line"/>
      <point x="1274" y="195"/>
      <point x="1442" y="408"/>
      <point x="1442" y="788" type="curve" smooth="yes"/>
      <point x="1442" y="1231"/>
      <point x="1176" y="1485"/>
      <point x="786" y="1485" type="curve" smooth="yes"/>
      <point x="403" y="1485"/>
      <point x="135" y="1200"/>
      <point x="135" y="788" type="curve" smooth="yes"/>
      <point x="135" y="408"/>
      <point x="313" y="199"/>
      <point x="549" y="51" type="curve"/>
      <point x="84" y="51" type="line"/>
      <point x="84" y="0" type="line"/>
      <point x="637" y="0" type="line"/>
      <point x="637" y="47" type="line"/>
      <point x="377" y="211"/>
      <point x="190" y="403"/>
      <point x="190" y="788" type="curve" smooth="yes"/>
      <point x="190" y="1182"/>
      <point x="440" y="1434"/>
    </contour>
  </outline>
</glyph>
<glyph name="gamma" format="2">
  <advance width="936"/>
  <unicode hex="03B3"/>
  <anchor x="469" y="-492" name="bottom"/>
  <anchor x="469" y="1081" name="top"/>
  <anchor x="895" y="1081" name="topright"/>
  <outline>
    <contour>
      <point x="907" y="1081" type="line"/>
      <point x="850" y="1081" type="line"/>
      <point x="545" y="289" type="line" smooth="yes"/>
      <point x="516" y="217"/>
      <point x="496" y="166"/>
      <point x="471" y="96" type="curve"/>
      <point x="467" y="96" type="line"/>
      <point x="440" y="172"/>
      <point x="420" y="217"/>
      <point x="389" y="291" type="curve" smooth="yes"/>
      <point x="57" y="1081" type="line"/>
      <point x="0" y="1081" type="line"/>
      <point x="442" y="31" type="line"/>
      <point x="401" y="-98"/>
      <point x="352" y="-313"/>
      <point x="352" y="-492" type="curve"/>
      <point x="406" y="-492" type="line"/>
      <point x="410" y="-315"/>
      <point x="442" y="-113"/>
      <point x="520" y="86" type="curve" smooth="yes"/>
    </contour>
  </outline>
</glyph>
<glyph name="zeta" format="2">
  <advance width="936"/>
  <unicode hex="03B6"/>
  <anchor x="469" y="-403" name="bottom"/>
  <anchor x="469" y="1556" name="top"/>
  <outline>
    <contour>
      <point x="862" y="-158" type="curve" smooth="yes"/>
      <point x="862" y="6"/>
      <point x="748" y="43"/>
      <point x="555" y="74" type="curve" smooth="yes"/>
      <point x="295" y="115"/>
      <point x="176" y="231"/>
      <point x="176" y="459" type="curve" smooth="yes"/>
      <point x="176" y="821"/>
      <point x="375" y="1024"/>
      <point x="877" y="1511" type="curve"/>
      <point x="877" y="1556" type="line"/>
      <point x="188" y="1556" type="line"/>
      <point x="188" y="1505" type="line"/>
      <point x="571" y="1505" type="line" smooth="yes"/>
      <point x="651" y="1505"/>
      <point x="721" y="1505"/>
      <point x="801" y="1507" type="curve"/>
      <point x="328" y="1047"/>
      <point x="121" y="827"/>
      <point x="121" y="459" type="curve" smooth="yes"/>
      <point x="121" y="209"/>
      <point x="248" y="70"/>
      <point x="539" y="25" type="curve" smooth="yes"/>
      <point x="725" y="-4"/>
      <point x="801" y="-35"/>
      <point x="807" y="-158" type="curve" smooth="yes"/>
      <point x="811" y="-225"/>
      <point x="770" y="-311"/>
      <point x="694" y="-403" type="curve"/>
      <point x="756" y="-403" type="line"/>
      <point x="825" y="-317"/>
      <point x="862" y="-240"/>
    </contour>
  </outline>
</glyph>
<glyph name="upsilon" format="2">
  <advance width="1196"/>
  <unicode hex="03C5"/>
  <anchor x="598" y="0" name="bottom"/>
  <anchor x="598" y="1081" name="top"/>
  <outline>
    <contour>
      <point x="586" y="-20" type="curve" smooth="yes"/>
      <point x="895" y="-20"/>
      <point x="1053" y="190"/>
      <point x="1053" y="598" type="curve" smooth="yes"/>
      <point x="1053" y="768"/>
      <point x="1034" y="926"/>
      <point x="993" y="1081" type="curve"/>
      <point x="936" y="1081" type="line"/>
      <point x="981" y="926"/>
      <point x="997" y="760"/>
      <point x="997" y="598" type="curve" smooth="yes"/>
      <point x="997" y="219"/>
      <point x="856" y="31"/>
      <point x="590" y="31" type="curve" smooth="yes"/>
      <point x="352" y="31"/>
      <point x="221" y="168"/>
      <point x="221" y="481" type="curve" smooth="yes"/>
      <point x="221" y="1081" type="line"/>
      <point x="168" y="1081" type="line"/>
      <point x="168" y="473" type="line" smooth="yes"/>
      <point x="168" y="141"/>
      <point x="319" y="-20"/>
    </contour>
  </outline>
</glyph>
<glyph name="chi" format="2">
  <advance width="1008"/>
  <unicode hex="03C7"/>
  <anchor x="504" y="-492" name="bottom"/>
  <anchor x="504" y="1081" name="top"/>
  <anchor x="967" y="1081" name="topright"/>
  <outline>
    <contour>
      <point x="111" y="1100" type="curve" smooth="yes"/>
      <point x="74" y="1100"/>
      <point x="45" y="1092"/>
      <point x="27" y="1083" type="curve"/>
      <point x="27" y="1034" type="line"/>
      <point x="51" y="1042"/>
      <point x="72" y="1049"/>
      <point x="102" y="1049" type="curve" smooth="yes"/>
      <point x="147" y="1049"/>
      <point x="180" y="1024"/>
      <point x="213" y="942" type="curve" smooth="yes"/>
      <point x="459" y="328" type="line"/>
      <point x="41" y="-492" type="line"/>
      <point x="100" y="-492" type="line"/>
      <point x="489" y="274" type="line"/>
      <point x="711" y="-293" type="line" smooth="yes"/>
      <point x="766" y="-434"/>
      <point x="811" y="-492"/>
      <point x="913" y="-492" type="curve" smooth="yes"/>
      <point x="944" y="-492"/>
      <point x="967" y="-485"/>
      <point x="985" y="-479" type="curve"/>
      <point x="985" y="-430" type="line"/>
      <point x="967" y="-436"/>
      <point x="946" y="-440"/>
      <point x="918" y="-440" type="curve" smooth="yes"/>
      <point x="846" y="-440"/>
      <point x="813" y="-403"/>
      <point x="754" y="-252" type="curve" smooth="yes"/>
      <point x="528" y="324" type="line"/>
      <point x="913" y="1081" type="line"/>
      <point x="856" y="1081" type="line"/>
      <point x="496" y="377" type="line"/>
      <point x="260" y="969" type="line" smooth="yes"/>
      <point x="227" y="1053"/>
      <point x="186" y="1100"/>
    </contour>
  </outline>
</glyph>
<glyph name="KaiSymbol" format="2">
  <advance width="1149"/>
  <unicode hex="03CF"/>
  <outline>
    <contour>
      <point x="592" y="-492" type="curve" smooth="yes"/>
      <point x="901" y="-492"/>
      <point x="1059" y="-317"/>
      <point x="1143" y="0" type="curve"/>
      <point x="520" y="854" type="line"/>
      <point x="1130" y="1462" type="line"/>
      <point x="1053" y="1462" type="line"/>
      <point x="367" y="770" type="line" smooth="yes"/>
      <point x="330" y="733"/>
      <point x="295" y="698"/>
      <point x="264" y="664" type="curve"/>
      <point x="264" y="1462" type="line"/>
      <point x="211" y="1462" type="line"/>
      <point x="211" y="0" type="line"/>
      <point x="264" y="0" type="line"/>
      <point x="264" y="600" type="line"/>
      <point x="479" y="815" type="line"/>
      <point x="1083" y="-12" type="line"/>
      <point x="1001" y="-301"/>
      <point x="864" y="-440"/>
      <point x="592" y="-440" type="curve" smooth="yes"/>
      <point x="403" y="-440"/>
      <point x="289" y="-381"/>
      <point x="209" y="-340" type="curve"/>
      <point x="209" y="-399" type="line"/>
      <point x="272" y="-432"/>
      <point x="389" y="-492"/>
    </contour>
  </outline>
</glyph>
<glyph name="uni03D8" format="2">
  <advance width="1567"/>
  <unicode hex="03D8"/>
  <anchor x="784" y="0" name="bottom"/>
  <anchor x="784" y="1462" name="top"/>
  <outline>
    <contour>
      <point x="784" y="1487" type="curve" smooth="yes"/>
      <point x="367" y="1487"/>
      <point x="129" y="1247"/>
      <point x="129" y="901" type="curve" smooth="yes"/>
      <point x="129" y="547"/>
      <point x="350" y="315"/>
      <point x="770" y="307" type="curve"/>
      <point x="770" y="0" type="line"/>
      <point x="823" y="0" type="line"/>
      <point x="823" y="309" type="line"/>
      <point x="1225" y="315"/>
      <point x="1436" y="551"/>
      <point x="1436" y="899" type="curve" smooth="yes"/>
      <point x="1436" y="1260"/>
      <point x="1212" y="1487"/>
    </contour>
    <contour>
      <point x="784" y="1436" type="curve" smooth="yes"/>
      <point x="1167" y="1436"/>
      <point x="1380" y="1229"/>
      <point x="1380" y="899" type="curve" smooth="yes"/>
      <point x="1380" y="575"/>
      <point x="1200" y="358"/>
      <point x="791" y="358" type="curve" smooth="yes"/>
      <point x="381" y="358"/>
      <point x="184" y="578"/>
      <point x="184" y="901" type="curve" smooth="yes"/>
      <point x="184" y="1212"/>
      <point x="393" y="1436"/>
    </contour>
  </outline>
</glyph>
<glyph name="uni03DE" format="2">
  <advance width="915"/>
  <unicode hex="03DE"/>
  <anchor x="459" y="0" name="bottom"/>
  <anchor x="459" y="1462" name="top"/>
  <outline>
    <contour>
      <point x="643" y="-16" type="curve" smooth="yes"/>
      <point x="682" y="-16"/>
      <point x="717" y="-8"/>
      <point x="735" y="2" type="curve"/>
      <point x="735" y="55" type="line"/>
      <point x="717" y="45"/>
      <point x="680" y="35"/>
      <point x="651" y="35" type="curve" smooth="yes"/>
      <point x="573" y="35"/>
      <point x="532" y="76"/>
      <point x="532" y="158" type="curve" smooth="yes"/>
      <point x="532" y="217"/>
      <point x="551" y="272"/>
      <point x="567" y="324" type="curve" smooth="yes"/>
      <point x="705" y="750" type="line"/>
      <point x="115" y="750" type="line"/>
      <point x="254" y="1137" type="line" smooth="yes"/>
      <point x="272" y="1188"/>
      <point x="291" y="1245"/>
      <point x="291" y="1309" type="curve" smooth="yes"/>
      <point x="291" y="1417"/>
      <point x="227" y="1479"/>
      <point x="125" y="1479" type="curve" smooth="yes"/>
      <point x="86" y="1479"/>
      <point x="51" y="1470"/>
      <point x="33" y="1460" type="curve"/>
      <point x="33" y="1407" type="line"/>
      <point x="51" y="1417"/>
      <point x="88" y="1427"/>
      <point x="117" y="1427" type="curve" smooth="yes"/>
      <point x="195" y="1427"/>
      <point x="236" y="1386"/>
      <point x="236" y="1305" type="curve" smooth="yes"/>
      <point x="236" y="1245"/>
      <point x="219" y="1190"/>
      <point x="201" y="1139" type="curve" smooth="yes"/>
      <point x="43" y="698" type="line"/>
      <point x="633" y="698" type="line"/>
      <point x="514" y="326" type="line" smooth="yes"/>
      <point x="498" y="274"/>
      <point x="477" y="217"/>
      <point x="477" y="154" type="curve" smooth="yes"/>
      <point x="477" y="45"/>
      <point x="541" y="-16"/>
    </contour>
  </outline>
</glyph>
<glyph name="uni03FC" format="2">
  <advance width="1169"/>
  <unicode hex="03FC"/>
  <anchor x="586" y="-492" name="bottom"/>
  <anchor x="586" y="1081" name="top"/>
  <outline>
    <contour>
      <point x="184" y="-492" type="line"/>
      <point x="238" y="-492" type="line"/>
      <point x="238" y="-260" type="line"/>
      <point x="678" y="-260" type="line"/>
      <point x="678" y="-209" type="line"/>
      <point x="238" y="-209" type="line"/>
      <point x="238" y="-29"/>
      <point x="238" y="8"/>
      <point x="233" y="94" type="curve"/>
      <point x="238" y="94" type="line"/>
      <point x="317" y="31"/>
      <point x="434" y="-20"/>
      <point x="594" y="-20" type="curve" smooth="yes"/>
      <point x="891" y="-20"/>
      <point x="1049" y="186"/>
      <point x="1049" y="545" type="curve" smooth="yes"/>
      <point x="1049" y="913"/>
      <point x="909" y="1102"/>
      <point x="618" y="1102" type="curve" smooth="yes"/>
      <point x="326" y="1102"/>
      <point x="184" y="920"/>
      <point x="184" y="582" type="curve" smooth="yes"/>
      <point x="184" y="-209" type="line"/>
      <point x="-2" y="-209" type="line"/>
      <point x="-2" y="-260" type="line"/>
      <point x="184" y="-260" type="line"/>
    </contour>
    <contour>
      <point x="598" y="31" type="curve" smooth="yes"/>
      <point x="451" y="31"/>
      <point x="328" y="80"/>
      <point x="238" y="156" type="curve"/>
      <point x="238" y="565" type="line" smooth="yes"/>
      <point x="238" y="877"/>
      <point x="352" y="1049"/>
      <point x="618" y="1049" type="curve" smooth="yes"/>
      <point x="879" y="1049"/>
      <point x="993" y="872"/>
      <point x="993" y="545" type="curve" smooth="yes"/>
      <point x="993" y="205"/>
      <point x="846" y="31"/>
    </contour>
  </outline>
</glyph>
<glyph name="afii10059" format="2">
  <advance width="1960"/>
  <unicode hex="040A"/>
  <anchor x="981" y="0" name="bottom"/>
  <anchor x="981" y="1462" name="top"/>
  <outline>
    <contour>
      <point x="211" y="0" type="line"/>
      <point x="264" y="0" type="line"/>
      <point x="264" y="754" type="line"/>
      <point x="1030" y="754" type="line"/>
      <point x="1030" y="0" type="line"/>
      <point x="1393" y="0" type="line" smooth="yes"/>
      <point x="1683" y="0"/>
      <point x="1847" y="137"/>
      <point x="1847" y="416" type="curve" smooth="yes"/>
      <point x="1847" y="715"/>
      <point x="1663" y="805"/>
      <point x="1370" y="805" type="curve" smooth="yes"/>
      <point x="1083" y="805" type="line"/>
      <point x="1083" y="1462" type="line"/>
      <point x="1030" y="1462" type="line"/>
      <point x="1030" y="805" type="line"/>
      <point x="264" y="805" type="line"/>
      <point x="264" y="1462" type="line"/>
      <point x="211" y="1462" type="line"/>
    </contour>
    <contour>
      <point x="1083" y="51" type="line"/>
      <point x="1083" y="754" type="line"/>
      <point x="1360" y="754" type="line" smooth="yes"/>
      <point x="1626" y="754"/>
      <point x="1792" y="686"/>
      <point x="1792" y="416" type="curve" smooth="yes"/>
      <point x="1792" y="160"/>
      <point x="1657" y="51"/>
      <point x="1378" y="51" type="curve" smooth="yes"/>
    </contour>
  </outline>
</glyph>
<glyph name="afii10066" format="2">
  <advance width="1145"/>
  <unicode hex="0431"/>
  <anchor x="573" y="0" name="bottom"/>
  <anchor x="573" y="1561" name="top"/>
  <outline>
    <contour>
      <point x="123" y="649" type="curve" smooth="yes"/>
      <point x="123" y="309"/>
      <point x="227" y="-20"/>
      <point x="582" y="-20" type="curve" smooth="yes"/>
      <point x="899" y="-20"/>
      <point x="1026" y="211"/>
      <point x="1026" y="512" type="curve" smooth="yes"/>
      <point x="1026" y="842"/>
      <point x="879" y="1006"/>
      <point x="612" y="1006" type="curve" smooth="yes"/>
      <point x="422" y="1006"/>
      <point x="264" y="909"/>
      <point x="180" y="741" type="curve"/>
      <point x="176" y="741" type="line"/>
      <point x="188" y="1010"/>
      <point x="250" y="1212"/>
      <point x="352" y="1317" type="curve" smooth="yes"/>
      <point x="455" y="1421"/>
      <point x="635" y="1473"/>
      <point x="991" y="1511" type="curve"/>
      <point x="985" y="1561" type="line"/>
      <point x="649" y="1526"/>
      <point x="434" y="1475"/>
      <point x="313" y="1350" type="curve" smooth="yes"/>
      <point x="197" y="1231"/>
      <point x="123" y="1016"/>
    </contour>
    <contour>
      <point x="586" y="31" type="curve" smooth="yes"/>
      <point x="262" y="31"/>
      <point x="178" y="346"/>
      <point x="178" y="662" type="curve"/>
      <point x="289" y="864"/>
      <point x="422" y="954"/>
      <point x="610" y="954" type="curve" smooth="yes"/>
      <point x="838" y="954"/>
      <point x="971" y="811"/>
      <point x="971" y="512" type="curve" smooth="yes"/>
      <point x="971" y="240"/>
      <point x="862" y="31"/>
    </contour>
  </outline>
</glyph>
<glyph name="afii10077" format="2">
  <advance width="1075"/>
  <unicode hex="043B"/>
  <anchor x="539" y="0" name="bottom"/>
  <anchor x="539" y="1081" name="top"/>
  <outline>
    <contour>
      <point x="889" y="0" type="line"/>
      <point x="889" y="1081" type="line"/>
      <point x="371" y="1081" type="line"/>
      <point x="328" y="369"/>
      <point x="262" y="43"/>
      <point x="76" y="43" type="curve" smooth="yes"/>
      <point x="41" y="43"/>
      <point x="23" y="45"/>
      <point x="8" y="49" type="curve"/>
      <point x="8" y="-2" type="line"/>
      <point x="20" y="-4"/>
      <point x="41" y="-8"/>
      <point x="76" y="-8" type="curve" smooth="yes"/>
      <point x="317" y="-8"/>
      <point x="373" y="346"/>
      <point x="422" y="1030" type="curve"/>
      <point x="836" y="1030" type="line"/>
      <point x="836" y="0" type="line"/>
    </contour>
  </outline>
</glyph>
<glyph name="uni0464" format="2">
  <advance width="1878"/>
  <unicode hex="0464"/>
  <anchor x="940" y="0" name="bottom"/>
  <anchor x="940" y="1462" name="top"/>
  <outline>
    <contour>
      <point x="1438" y="-20" type="curve" smooth="yes"/>
      <point x="1599" y="-20"/>
      <point x="1710" y="8"/>
      <point x="1800" y="43" type="curve"/>
      <point x="1800" y="90" type="line"/>
      <point x="1702" y="55"/>
      <point x="1595" y="31"/>
      <point x="1438" y="31" type="curve" smooth="yes"/>
      <point x="1059" y="31"/>
      <point x="860" y="307"/>
      <point x="856" y="725" type="curve"/>
      <point x="1647" y="725" type="line"/>
      <point x="1647" y="776" type="line"/>
      <point x="856" y="776" type="line"/>
      <point x="872" y="1159"/>
      <point x="1100" y="1432"/>
      <point x="1477" y="1432" type="curve" smooth="yes"/>
      <point x="1589" y="1432"/>
      <point x="1690" y="1417"/>
      <point x="1806" y="1356" type="curve"/>
      <point x="1827" y="1407" type="line"/>
      <point x="1714" y="1458"/>
      <point x="1610" y="1483"/>
      <point x="1477" y="1483" type="curve" smooth="yes"/>
      <point x="1069" y="1483"/>
      <point x="817" y="1182"/>
      <point x="801" y="776" type="curve"/>
      <point x="264" y="776" type="line"/>
      <point x="264" y="1462" type="line"/>
      <point x="211" y="1462" type="line"/>
      <point x="211" y="0" type="line"/>
      <point x="264" y="0" type="line"/>
      <point x="264" y="725" type="line"/>
      <point x="801" y="725" type="line"/>
      <point x="805" y="279"/>
      <point x="1028" y="-20"/>
    </contour>
  </outline>
</glyph>
<glyph name="uni0465" format="2">
  <advance width="1589"/>
  <unicode hex="0465"/>
  <anchor x="795" y="0" name="bottom"/>
  <anchor x="795" y="1081" name="top"/>
  <outline>
    <contour>
      <point x="1227" y="-20" type="curve" smooth="yes"/>
      <point x="1339" y="-20"/>
      <point x="1438" y="4"/>
      <point x="1505" y="33" type="curve"/>
      <point x="1505" y="84" type="line"/>
      <point x="1425" y="51"/>
      <point x="1325" y="31"/>
      <point x="1227" y="31" type="curve" smooth="yes"/>
      <point x="918" y="31"/>
      <point x="786" y="254"/>
      <point x="784" y="530" type="curve"/>
      <point x="1466" y="530" type="line"/>
      <point x="1466" y="582" type="line"/>
      <point x="786" y="582" type="line"/>
      <point x="805" y="860"/>
      <point x="983" y="1051"/>
      <point x="1262" y="1051" type="curve" smooth="yes"/>
      <point x="1339" y="1051"/>
      <point x="1421" y="1038"/>
      <point x="1503" y="1001" type="curve"/>
      <point x="1513" y="1053" type="line"/>
      <point x="1438" y="1085"/>
      <point x="1360" y="1102"/>
      <point x="1262" y="1102" type="curve" smooth="yes"/>
      <point x="946" y="1102"/>
      <point x="750" y="887"/>
      <point x="731" y="582" type="curve"/>
      <point x="240" y="582" type="line"/>
      <point x="240" y="1081" type="line"/>
      <point x="186" y="1081" type="line"/>
      <point x="186" y="0" type="line"/>
      <point x="240" y="0" type="line"/>
      <point x="240" y="530" type="line"/>
      <point x="729" y="530" type="line"/>
      <point x="731" y="215"/>
      <point x="883" y="-20"/>
    </contour>
  </outline>
</glyph>
<glyph name="uni0469" format="2">
  <advance width="1274"/>
  <unicode hex="0469"/>
  <anchor x="637" y="0" name="bottom"/>
  <anchor x="637" y="1081" name="top"/>
  <outline>
    <contour>
      <point x="844" y="1081" type="line"/>
      <point x="799" y="1081" type="line"/>
      <point x="594" y="553" type="line"/>
      <point x="240" y="553" type="line"/>
      <point x="240" y="1081" type="line"/>
      <point x="186" y="1081" type="line"/>
      <point x="186" y="0" type="line"/>
      <point x="240" y="0" type="line"/>
      <point x="240" y="502" type="line"/>
      <point x="575" y="502" type="line"/>
      <point x="381" y="0" type="line"/>
      <point x="436" y="0" type="line"/>
      <point x="629" y="502" type="line"/>
      <point x="801" y="502" type="line"/>
      <point x="801" y="0" type="line"/>
      <point x="854" y="0" type="line"/>
      <point x="854" y="502" type="line"/>
      <point x="1014" y="502" type="line"/>
      <point x="1206" y="0" type="line"/>
      <point x="1262" y="0" type="line"/>
    </contour>
    <contour>
      <point x="823" y="1008" type="line"/>
      <point x="846" y="940"/>
      <point x="864" y="887"/>
      <point x="899" y="799" type="curve" smooth="yes"/>
      <point x="993" y="553" type="line"/>
      <point x="649" y="553" type="line"/>
      <point x="743" y="799" type="line" smooth="yes"/>
      <point x="778" y="887"/>
      <point x="795" y="940"/>
      <point x="819" y="1008" type="curve"/>
    </contour>
  </outline>
</glyph>
<glyph name="uni046B" format="2">
  <advance width="1200"/>
  <unicode hex="046B"/>
  <anchor x="600" y="0" name="bottom"/>
  <anchor x="600" y="1081" name="top"/>
  <outline>
    <contour>
      <point x="1034" y="1081" type="line"/>
      <point x="162" y="1081" type="line"/>
      <point x="162" y="1016" type="line"/>
      <point x="532" y="610" type="line"/>
      <point x="309" y="602"/>
      <point x="213" y="526"/>
      <point x="143" y="348" type="curve" smooth="yes"/>
      <point x="8" y="0" type="line"/>
      <point x="68" y="0" type="line"/>
      <point x="188" y="317" type="line" smooth="yes"/>
      <point x="256" y="494"/>
      <point x="330" y="559"/>
      <point x="573" y="559" type="curve"/>
      <point x="573" y="0" type="line"/>
      <point x="627" y="0" type="line"/>
      <point x="627" y="559" type="line"/>
      <point x="868" y="559"/>
      <point x="942" y="502"/>
      <point x="1012" y="317" type="curve" smooth="yes"/>
      <point x="1133" y="0" type="line"/>
      <point x="1192" y="0" type="line"/>
      <point x="1053" y="348" type="line" smooth="yes"/>
      <point x="975" y="545"/>
      <point x="901" y="602"/>
      <point x="666" y="610" type="curve"/>
      <point x="1034" y="1016" type="line"/>
    </contour>
    <contour>
      <point x="977" y="1030" type="line"/>
      <point x="602" y="616" type="line"/>
      <point x="221" y="1030" type="line"/>
    </contour>
  </outline>
</glyph>
<glyph name="uni046D" format="2">
  <advance width="1575"/>
  <unicode hex="046D"/>
  <anchor x="788" y="0" name="bottom"/>
  <anchor x="788" y="1081" name="top"/>
  <outline>
    <contour>
      <point x="1417" y="1081" type="line"/>
      <point x="545" y="1081" type="line"/>
      <point x="545" y="1016" type="line"/>
      <point x="915" y="610" type="line"/>
      <point x="238" y="610" type="line"/>
      <point x="238" y="1081" type="line"/>
      <point x="184" y="1081" type="line"/>
      <point x="184" y="0" type="line"/>
      <point x="238" y="0" type="line"/>
      <point x="238" y="559" type="line"/>
      <point x="690" y="559" type="line"/>
      <point x="614" y="518"/>
      <point x="565" y="449"/>
      <point x="526" y="348" type="curve" smooth="yes"/>
      <point x="391" y="0" type="line"/>
      <point x="451" y="0" type="line"/>
      <point x="571" y="317" type="line" smooth="yes"/>
      <point x="639" y="494"/>
      <point x="713" y="559"/>
      <point x="956" y="559" type="curve"/>
      <point x="956" y="0" type="line"/>
      <point x="1010" y="0" type="line"/>
      <point x="1010" y="559" type="line"/>
      <point x="1251" y="559"/>
      <point x="1325" y="502"/>
      <point x="1395" y="317" type="curve" smooth="yes"/>
      <point x="1516" y="0" type="line"/>
      <point x="1575" y="0" type="line"/>
      <point x="1436" y="348" type="line" smooth="yes"/>
      <point x="1358" y="545"/>
      <point x="1284" y="602"/>
      <point x="1049" y="610" type="curve"/>
      <point x="1417" y="1016" type="line"/>
    </contour>
    <contour>
      <point x="1360" y="1030" type="line"/>
      <point x="985" y="616" type="line"/>
      <point x="604" y="1030" type="line"/>
    </contour>
  </outline>
</glyph>
<glyph name="uni046F" format="2">
  <advance width="879"/>
  <unicode hex="046F"/>
  <anchor x="440" y="-328" name="bottom"/>
  <anchor x="440" y="1350" name="top"/>
  <outline>
    <contour>
      <point x="694" y="1337" type="curve" smooth="yes"/>
      <point x="612" y="1337"/>
      <point x="524" y="1264"/>
      <point x="422" y="1133" type="curve"/>
      <point x="348" y="1221"/>
      <point x="264" y="1296"/>
      <point x="188" y="1350" type="curve"/>
      <point x="143" y="1350" type="line"/>
      <point x="143" y="1339" type="line"/>
      <point x="233" y="1272"/>
      <point x="322" y="1180"/>
      <point x="379" y="1106" type="curve"/>
      <point x="264" y="1098"/>
      <point x="180" y="1069"/>
      <point x="90" y="1022" type="curve"/>
      <point x="111" y="973" type="line"/>
      <point x="205" y="1022"/>
      <point x="297" y="1055"/>
      <point x="420" y="1055" type="curve" smooth="yes"/>
      <point x="584" y="1055"/>
      <point x="680" y="977"/>
      <point x="680" y="831" type="curve" smooth="yes"/>
      <point x="680" y="690"/>
      <point x="586" y="604"/>
      <point x="385" y="604" type="curve" smooth="yes"/>
      <point x="240" y="604" type="line"/>
      <point x="240" y="553" type="line"/>
      <point x="395" y="553" type="line" smooth="yes"/>
      <point x="606" y="553"/>
      <point x="715" y="487"/>
      <point x="715" y="336" type="curve" smooth="yes"/>
      <point x="715" y="147"/>
      <point x="592" y="90"/>
      <point x="377" y="68" type="curve" smooth="yes"/>
      <point x="164" y="45"/>
      <point x="41" y="8"/>
      <point x="41" y="-141" type="curve" smooth="yes"/>
      <point x="41" y="-274"/>
      <point x="156" y="-309"/>
      <point x="281" y="-309" type="curve" smooth="yes"/>
      <point x="383" y="-309"/>
      <point x="487" y="-293"/>
      <point x="586" y="-293" type="curve" smooth="yes"/>
      <point x="672" y="-293"/>
      <point x="733" y="-303"/>
      <point x="786" y="-328" type="curve"/>
      <point x="786" y="-270" type="line"/>
      <point x="739" y="-252"/>
      <point x="680" y="-242"/>
      <point x="588" y="-242" type="curve" smooth="yes"/>
      <point x="498" y="-242"/>
      <point x="399" y="-258"/>
      <point x="283" y="-258" type="curve" smooth="yes"/>
      <point x="180" y="-258"/>
      <point x="96" y="-231"/>
      <point x="96" y="-139" type="curve" smooth="yes"/>
      <point x="96" y="-31"/>
      <point x="193" y="-4"/>
      <point x="387" y="16" type="curve" smooth="yes"/>
      <point x="633" y="43"/>
      <point x="770" y="131"/>
      <point x="770" y="334" type="curve" smooth="yes"/>
      <point x="770" y="459"/>
      <point x="705" y="555"/>
      <point x="551" y="580" type="curve"/>
      <point x="551" y="584" type="line"/>
      <point x="668" y="618"/>
      <point x="733" y="713"/>
      <point x="733" y="836" type="curve" smooth="yes"/>
      <point x="733" y="993"/>
      <point x="629" y="1090"/>
      <point x="465" y="1104" type="curve"/>
      <point x="539" y="1204"/>
      <point x="616" y="1286"/>
      <point x="696" y="1286" type="curve" smooth="yes"/>
      <point x="711" y="1286"/>
      <point x="737" y="1284"/>
      <point x="754" y="1278" type="curve"/>
      <point x="754" y="1327" type="line"/>
      <point x="731" y="1337"/>
      <point x="711" y="1337"/>
    </contour>
  </outline>
</glyph>
<glyph name="uni0478" format="2">
  <advance width="2236"/>
  <unicode hex="0478"/>
  <anchor x="1118" y="-498" name="bottom"/>
  <anchor x="1118" y="1462" name="top"/>
  <outline>
    <contour>
      <point x="1249" y="733" type="curve" smooth="yes"/>
      <point x="1249" y="1208"/>
      <point x="1042" y="1485"/>
      <point x="700" y="1485" type="curve" smooth="yes"/>
      <point x="342" y="1485"/>
      <point x="129" y="1176"/>
      <point x="129" y="735" type="curve" smooth="yes"/>
      <point x="129" y="293"/>
      <point x="324" y="-20"/>
      <point x="688" y="-20" type="curve" smooth="yes"/>
      <point x="1059" y="-20"/>
      <point x="1249" y="293"/>
    </contour>
    <contour>
      <point x="184" y="735" type="curve" smooth="yes"/>
      <point x="184" y="1139"/>
      <point x="360" y="1434"/>
      <point x="700" y="1434" type="curve" smooth="yes"/>
      <point x="1008" y="1434"/>
      <point x="1194" y="1178"/>
      <point x="1194" y="733" type="curve" smooth="yes"/>
      <point x="1194" y="319"/>
      <point x="1030" y="31"/>
      <point x="690" y="31" type="curve" smooth="yes"/>
      <point x="352" y="31"/>
      <point x="184" y="326"/>
    </contour>
    <contour>
      <point x="1354" y="1081" type="line"/>
      <point x="1765" y="12" type="line"/>
      <point x="1681" y="-209" type="line" smooth="yes"/>
      <point x="1614" y="-383"/>
      <point x="1556" y="-446"/>
      <point x="1452" y="-446" type="curve" smooth="yes"/>
      <point x="1409" y="-446"/>
      <point x="1380" y="-438"/>
      <point x="1341" y="-424" type="curve"/>
      <point x="1341" y="-477" type="line"/>
      <point x="1380" y="-492"/>
      <point x="1413" y="-498"/>
      <point x="1452" y="-498" type="curve" smooth="yes"/>
      <point x="1585" y="-498"/>
      <point x="1657" y="-414"/>
      <point x="1724" y="-236" type="curve" smooth="yes"/>
      <point x="2234" y="1081" type="line"/>
      <point x="2179" y="1081" type="line"/>
      <point x="1894" y="344" type="line" smooth="yes"/>
      <point x="1847" y="221"/>
      <point x="1817" y="135"/>
      <point x="1796" y="76" type="curve"/>
      <point x="1792" y="76" type="line"/>
      <point x="1772" y="133"/>
      <point x="1739" y="221"/>
      <point x="1690" y="352" type="curve" smooth="yes"/>
      <point x="1409" y="1081" type="line"/>
    </contour>
  </outline>
</glyph>
<glyph name="titlocomb-cy" format="2">
  <unicode hex="0483"/>
  <anchor x="-573" y="1081" name="_top"/>
  <anchor x="-573" y="1425" name="top"/>
  <outline>
    <contour>
      <point x="-807" y="1284" type="curve"/>
      <point x="-293" y="1284" type="line" smooth="yes"/>
      <point x="-258" y="1284"/>
      <point x="-242" y="1307"/>
      <point x="-242" y="1354" type="curve" smooth="yes"/>
      <point x="-242" y="1395"/>
      <point x="-258" y="1421"/>
      <point x="-295" y="1421" type="curve" smooth="yes"/>
      <point x="-332" y="1421"/>
      <point x="-348" y="1395"/>
      <point x="-346" y="1335" type="curve"/>
      <point x="-860" y="1335" type="line" smooth="yes"/>
      <point x="-897" y="1335"/>
      <point x="-913" y="1317"/>
      <point x="-913" y="1266" type="curve" smooth="yes"/>
      <point x="-913" y="1225"/>
      <point x="-897" y="1198"/>
      <point x="-860" y="1198" type="curve" smooth="yes"/>
      <point x="-823" y="1198"/>
      <point x="-805" y="1225"/>
    </contour>
  </outline>
</glyph>
<glyph name="uni049C" format="2">
  <advance width="1145"/>
  <unicode hex="049C"/>
  <anchor x="573" y="0" name="bottom"/>
  <anchor x="573" y="1462" name="top"/>
  <outline>
    <contour>
      <point x="545" y="326" type="line"/>
      <point x="545" y="1212" type="line"/>
      <point x="492" y="1212" type="line"/>
      <point x="492" y="326" type="line"/>
    </contour>
    <component base="afii10028"/>
  </outline>
</glyph>
<glyph name="uni049D" format="2">
  <advance width="854"/>
  <unicode hex="049D"/>
  <anchor x="428" y="0" name="bottom"/>
  <anchor x="428" y="1081" name="top"/>
  <outline>
    <contour>
      <point x="461" y="1014" type="line"/>
      <point x="408" y="1014" type="line"/>
      <point x="408" y="115" type="line"/>
      <point x="461" y="115" type="line"/>
    </contour>
    <component base="afii10076"/>
  </outline>
</glyph>
<glyph name="uni04A0" format="2">
  <advance width="1260"/>
  <unicode hex="04A0"/>
  <anchor x="631" y="0" name="bottom"/>
  <anchor x="631" y="1462" name="top"/>
  <outline>
    <contour>
      <point x="1206" y="1462" type="line"/>
      <point x="1124" y="1462" type="line"/>
      <point x="387" y="754" type="line"/>
      <point x="387" y="1462" type="line"/>
      <point x="8" y="1462" type="line"/>
      <point x="8" y="1411" type="line"/>
      <point x="334" y="1411" type="line"/>
      <point x="334" y="0" type="line"/>
      <point x="387" y="0" type="line"/>
      <point x="387" y="748" type="line"/>
      <point x="1147" y="0" type="line"/>
      <point x="1225" y="0" type="line"/>
      <point x="459" y="752" type="line"/>
    </contour>
  </outline>
</glyph>
<glyph name="uni04A6" format="2">
  <advance width="2193"/>
  <unicode hex="04A6"/>
  <anchor x="1059" y="-512" name="bottom"/>
  <anchor x="1059" y="1462" name="top"/>
  <outline>
    <contour>
      <point x="1190" y="1462" type="line"/>
      <point x="211" y="1462" type="line"/>
      <point x="211" y="0" type="line"/>
      <point x="264" y="0" type="line"/>
      <point x="264" y="1411" type="line"/>
      <point x="1137" y="1411" type="line"/>
      <point x="1137" y="0" type="line"/>
      <point x="1190" y="0" type="line"/>
      <point x="1190" y="719" type="line"/>
      <point x="1249" y="735"/>
      <point x="1341" y="752"/>
      <point x="1456" y="752" type="curve" smooth="yes"/>
      <point x="1847" y="752"/>
      <point x="2003" y="500"/>
      <point x="2003" y="156" type="curve" smooth="yes"/>
      <point x="2003" y="-207"/>
      <point x="1839" y="-461"/>
      <point x="1542" y="-461" type="curve" smooth="yes"/>
      <point x="1444" y="-461"/>
      <point x="1374" y="-442"/>
      <point x="1296" y="-406" type="curve"/>
      <point x="1296" y="-463" type="line"/>
      <point x="1362" y="-496"/>
      <point x="1442" y="-512"/>
      <point x="1540" y="-512" type="curve" smooth="yes"/>
      <point x="1884" y="-512"/>
      <point x="2058" y="-242"/>
      <point x="2058" y="156" type="curve" smooth="yes"/>
      <point x="2058" y="526"/>
      <point x="1890" y="805"/>
      <point x="1462" y="805" type="curve" smooth="yes"/>
      <point x="1352" y="805"/>
      <point x="1251" y="788"/>
      <point x="1190" y="772" type="curve"/>
    </contour>
  </outline>
</glyph>
<glyph name="uni04B5" format="2">
  <advance width="1368"/>
  <unicode hex="04B5"/>
  <anchor x="684" y="-362" name="bottom"/>
  <anchor x="684" y="1081" name="top"/>
  <outline>
    <contour>
      <point x="1262" y="-362" type="line"/>
      <point x="1315" y="-362" type="line"/>
      <point x="1315" y="51" type="line"/>
      <point x="1176" y="51" type="line"/>
      <point x="1176" y="1081" type="line"/>
      <point x="1122" y="1081" type="line"/>
      <point x="1122" y="51" type="line"/>
      <point x="432" y="51" type="line"/>
      <point x="432" y="1030" type="line"/>
      <point x="846" y="1030" type="line"/>
      <point x="846" y="1081" type="line"/>
      <point x="41" y="1081" type="line"/>
      <point x="41" y="1030" type="line"/>
      <point x="379" y="1030" type="line"/>
      <point x="379" y="0" type="line"/>
      <point x="1262" y="0" type="line"/>
    </contour>
  </outline>
</glyph>
<glyph name="uni04FC" format="2">
  <advance width="1042"/>
  <unicode hex="04FC"/>
  <anchor x="522" y="-346" name="bottom"/>
  <anchor x="522" y="1462" name="top"/>
  <outline>
    <contour>
      <point x="967" y="-346" type="curve" smooth="yes"/>
      <point x="1061" y="-346"/>
      <point x="1112" y="-285"/>
      <point x="1112" y="-172" type="curve" smooth="yes"/>
      <point x="1112" y="51" type="line"/>
      <point x="1016" y="51" type="line"/>
      <point x="561" y="758" type="line"/>
      <point x="1012" y="1462" type="line"/>
      <point x="948" y="1462" type="line"/>
      <point x="526" y="799" type="line"/>
      <point x="109" y="1462" type="line"/>
      <point x="45" y="1462" type="line"/>
      <point x="489" y="758" type="line"/>
      <point x="-6" y="0" type="line"/>
      <point x="57" y="0" type="line"/>
      <point x="524" y="717" type="line"/>
      <point x="985" y="0" type="line"/>
      <point x="1059" y="0" type="line"/>
      <point x="1059" y="-166" type="line" smooth="yes"/>
      <point x="1059" y="-256"/>
      <point x="1030" y="-295"/>
      <point x="967" y="-295" type="curve" smooth="yes"/>
      <point x="936" y="-295"/>
      <point x="903" y="-287"/>
      <point x="881" y="-276" type="curve"/>
      <point x="881" y="-328" type="line"/>
      <point x="899" y="-338"/>
      <point x="932" y="-346"/>
    </contour>
  </outline>
</glyph>
<glyph name="uni04FD" format="2">
  <advance width="981"/>
  <unicode hex="04FD"/>
  <anchor x="492" y="-346" name="bottom"/>
  <anchor x="492" y="1081" name="top"/>
  <outline>
    <contour>
      <point x="831" y="-346" type="curve" smooth="yes"/>
      <point x="926" y="-346"/>
      <point x="977" y="-285"/>
      <point x="977" y="-172" type="curve" smooth="yes"/>
      <point x="977" y="51" type="line"/>
      <point x="883" y="51" type="line"/>
      <point x="520" y="557" type="line"/>
      <point x="895" y="1081" type="line"/>
      <point x="829" y="1081" type="line"/>
      <point x="483" y="594" type="line"/>
      <point x="137" y="1081" type="line"/>
      <point x="70" y="1081" type="line"/>
      <point x="449" y="557" type="line"/>
      <point x="53" y="0" type="line"/>
      <point x="117" y="0" type="line"/>
      <point x="483" y="518" type="line"/>
      <point x="854" y="0" type="line"/>
      <point x="924" y="0" type="line"/>
      <point x="924" y="-166" type="line" smooth="yes"/>
      <point x="924" y="-256"/>
      <point x="895" y="-295"/>
      <point x="831" y="-295" type="curve" smooth="yes"/>
      <point x="801" y="-295"/>
      <point x="768" y="-287"/>
      <point x="745" y="-276" type="curve"/>
      <point x="745" y="-328" type="line"/>
      <point x="764" y="-338"/>
      <point x="797" y="-346"/>
    </contour>
  </outline>
</glyph>
<glyph name="uni0506" format="2">
  <advance width="1110"/>
  <unicode hex="0506"/>
  <anchor x="555" y="-358" name="bottom"/>
  <anchor x="555" y="1462" name="top"/>
  <outline>
    <contour>
      <point x="547" y="1483" type="curve" smooth="yes"/>
      <point x="354" y="1483"/>
      <point x="223" y="1417"/>
      <point x="104" y="1329" type="curve"/>
      <point x="135" y="1288" type="line"/>
      <point x="254" y="1370"/>
      <point x="369" y="1432"/>
      <point x="547" y="1432" type="curve" smooth="yes"/>
      <point x="770" y="1432"/>
      <point x="911" y="1311"/>
      <point x="911" y="1114" type="curve" smooth="yes"/>
      <point x="911" y="903"/>
      <point x="778" y="786"/>
      <point x="500" y="786" type="curve" smooth="yes"/>
      <point x="260" y="786" type="line"/>
      <point x="260" y="735" type="line"/>
      <point x="481" y="735" type="line" smooth="yes"/>
      <point x="791" y="735"/>
      <point x="938" y="631"/>
      <point x="938" y="399" type="curve" smooth="yes"/>
      <point x="938" y="0" type="line"/>
      <point x="1081" y="0" type="line"/>
      <point x="1081" y="-358" type="line"/>
      <point x="1133" y="-358" type="line"/>
      <point x="1133" y="51" type="line"/>
      <point x="991" y="51" type="line"/>
      <point x="991" y="399" type="line" smooth="yes"/>
      <point x="991" y="610"/>
      <point x="887" y="715"/>
      <point x="700" y="760" type="curve"/>
      <point x="700" y="764" type="line"/>
      <point x="854" y="805"/>
      <point x="967" y="907"/>
      <point x="967" y="1114" type="curve" smooth="yes"/>
      <point x="967" y="1337"/>
      <point x="805" y="1483"/>
    </contour>
  </outline>
</glyph>
<glyph name="uni0508" format="2">
  <advance width="1839"/>
  <unicode hex="0508"/>
  <anchor x="920" y="0" name="bottom"/>
  <anchor x="920" y="1462" name="top"/>
  <outline>
    <contour>
      <point x="1110" y="1462" type="line"/>
      <point x="481" y="1462" type="line"/>
      <point x="459" y="1249"/>
      <point x="420" y="879"/>
      <point x="350" y="489" type="curve" smooth="yes"/>
      <point x="301" y="211"/>
      <point x="246" y="29"/>
      <point x="96" y="29" type="curve" smooth="yes"/>
      <point x="51" y="29"/>
      <point x="23" y="37"/>
      <point x="-8" y="49" type="curve"/>
      <point x="-8" y="-4" type="line"/>
      <point x="18" y="-16"/>
      <point x="47" y="-23"/>
      <point x="96" y="-23" type="curve" smooth="yes"/>
      <point x="291" y="-23"/>
      <point x="350" y="195"/>
      <point x="403" y="479" type="curve" smooth="yes"/>
      <point x="463" y="793"/>
      <point x="504" y="1151"/>
      <point x="528" y="1411" type="curve"/>
      <point x="1057" y="1411" type="line"/>
      <point x="1057" y="352" type="line" smooth="yes"/>
      <point x="1057" y="106"/>
      <point x="1159" y="-20"/>
      <point x="1389" y="-20" type="curve" smooth="yes"/>
      <point x="1595" y="-20"/>
      <point x="1712" y="106"/>
      <point x="1712" y="352" type="curve" smooth="yes"/>
      <point x="1712" y="848" type="line"/>
      <point x="1659" y="848" type="line"/>
      <point x="1659" y="362" type="line" smooth="yes"/>
      <point x="1659" y="131"/>
      <point x="1573" y="31"/>
      <point x="1389" y="31" type="curve" smooth="yes"/>
      <point x="1196" y="31"/>
      <point x="1110" y="131"/>
      <point x="1110" y="362" type="curve" smooth="yes"/>
    </contour>
  </outline>
</glyph>
<glyph name="uni050A" format="2">
  <advance width="1991"/>
  <unicode hex="050A"/>
  <anchor x="995" y="0" name="bottom"/>
  <anchor x="995" y="1462" name="top"/>
  <outline>
    <contour>
      <point x="1194" y="1462" type="line"/>
      <point x="1141" y="1462" type="line"/>
      <point x="1141" y="795" type="line"/>
      <point x="264" y="795" type="line"/>
      <point x="264" y="1462" type="line"/>
      <point x="211" y="1462" type="line"/>
      <point x="211" y="0" type="line"/>
      <point x="264" y="0" type="line"/>
      <point x="264" y="743" type="line"/>
      <point x="1141" y="743" type="line"/>
      <point x="1141" y="352" type="line" smooth="yes"/>
      <point x="1141" y="106"/>
      <point x="1243" y="-20"/>
      <point x="1473" y="-20" type="curve" smooth="yes"/>
      <point x="1679" y="-20"/>
      <point x="1796" y="106"/>
      <point x="1796" y="352" type="curve" smooth="yes"/>
      <point x="1796" y="848" type="line"/>
      <point x="1743" y="848" type="line"/>
      <point x="1743" y="362" type="line" smooth="yes"/>
      <point x="1743" y="131"/>
      <point x="1657" y="31"/>
      <point x="1473" y="31" type="curve" smooth="yes"/>
      <point x="1280" y="31"/>
      <point x="1194" y="131"/>
      <point x="1194" y="362" type="curve" smooth="yes"/>
    </contour>
  </outline>
</glyph>
<glyph name="uni0515" format="2">
  <advance width="1554"/>
  <unicode hex="0515"/>
  <anchor x="778" y="0" name="bottom"/>
  <anchor x="778" y="1081" name="top"/>
  <outline>
    <contour>
      <point x="76" y="-8" type="curve" smooth="yes"/>
      <point x="317" y="-8"/>
      <point x="373" y="346"/>
      <point x="422" y="1030" type="curve"/>
      <point x="680" y="1030" type="line"/>
      <point x="1022" y="557" type="line"/>
      <point x="627" y="0" type="line"/>
      <point x="690" y="0" type="line"/>
      <point x="1057" y="518" type="line"/>
      <point x="1427" y="0" type="line"/>
      <point x="1493" y="0" type="line"/>
      <point x="1094" y="557" type="line"/>
      <point x="1468" y="1081" type="line"/>
      <point x="1403" y="1081" type="line"/>
      <point x="1057" y="594" type="line"/>
      <point x="711" y="1081" type="line"/>
      <point x="371" y="1081" type="line"/>
      <point x="328" y="369"/>
      <point x="262" y="43"/>
      <point x="76" y="43" type="curve" smooth="yes"/>
      <point x="41" y="43"/>
      <point x="23" y="45"/>
      <point x="8" y="49" type="curve"/>
      <point x="8" y="-2" type="line"/>
      <point x="20" y="-4"/>
      <point x="41" y="-8"/>
    </contour>
  </outline>
</glyph>
<glyph name="uni0518" format="2">
  <advance width="1790"/>
  <unicode hex="0518"/>
  <anchor x="895" y="0" name="bottom"/>
  <anchor x="895" y="1462" name="top"/>
  <outline>
    <contour>
      <point x="53" y="0" type="line"/>
      <point x="121" y="0" type="line"/>
      <point x="512" y="655" type="line"/>
      <point x="897" y="655" type="line"/>
      <point x="897" y="0" type="line"/>
      <point x="1663" y="0" type="line"/>
      <point x="1663" y="51" type="line"/>
      <point x="950" y="51" type="line"/>
      <point x="950" y="745" type="line"/>
      <point x="1622" y="745" type="line"/>
      <point x="1622" y="797" type="line"/>
      <point x="950" y="797" type="line"/>
      <point x="950" y="1411" type="line"/>
      <point x="1663" y="1411" type="line"/>
      <point x="1663" y="1462" type="line"/>
      <point x="647" y="1462" type="line" smooth="yes"/>
      <point x="315" y="1462"/>
      <point x="125" y="1335"/>
      <point x="125" y="1044" type="curve" smooth="yes"/>
      <point x="125" y="807"/>
      <point x="258" y="700"/>
      <point x="453" y="666" type="curve"/>
    </contour>
    <contour>
      <point x="584" y="707" type="line" smooth="yes"/>
      <point x="330" y="707"/>
      <point x="180" y="811"/>
      <point x="180" y="1047" type="curve" smooth="yes"/>
      <point x="180" y="1307"/>
      <point x="344" y="1411"/>
      <point x="657" y="1411" type="curve" smooth="yes"/>
      <point x="897" y="1411" type="line"/>
      <point x="897" y="707" type="line"/>
    </contour>
  </outline>
</glyph>
<glyph name="uni051E" format="2">
  <advance width="1114"/>
  <unicode hex="051E"/>
  <anchor x="557" y="0" name="bottom"/>
  <anchor x="557" y="1462" name="top"/>
  <outline>
    <contour>
      <point x="520" y="1421" type="line"/>
      <point x="1040" y="905" type="line"/>
      <point x="1075" y="940" type="line"/>
      <point x="555" y="1456" type="line"/>
    </contour>
    <component base="afii10028"/>
  </outline>
</glyph>
<glyph name="uni0521" format="2">
  <advance width="1663"/>
  <unicode hex="0521"/>
  <anchor x="831" y="-502" name="bottom"/>
  <anchor x="831" y="1081" name="top"/>
  <outline>
    <contour>
      <point x="1159" y="-502" type="curve" smooth="yes"/>
      <point x="1436" y="-502"/>
      <point x="1583" y="-272"/>
      <point x="1583" y="76" type="curve" smooth="yes"/>
      <point x="1583" y="449"/>
      <point x="1434" y="637"/>
      <point x="1112" y="637" type="curve" smooth="yes"/>
      <point x="1032" y="637"/>
      <point x="936" y="621"/>
      <point x="868" y="596" type="curve"/>
      <point x="868" y="1081" type="line"/>
      <point x="371" y="1081" type="line"/>
      <point x="328" y="369"/>
      <point x="262" y="43"/>
      <point x="76" y="43" type="curve" smooth="yes"/>
      <point x="41" y="43"/>
      <point x="23" y="45"/>
      <point x="8" y="49" type="curve"/>
      <point x="8" y="-2" type="line"/>
      <point x="20" y="-4"/>
      <point x="41" y="-8"/>
      <point x="76" y="-8" type="curve" smooth="yes"/>
      <point x="317" y="-8"/>
      <point x="373" y="346"/>
      <point x="422" y="1030" type="curve"/>
      <point x="815" y="1030" type="line"/>
      <point x="815" y="0" type="line"/>
      <point x="868" y="0" type="line"/>
      <point x="868" y="541" type="line"/>
      <point x="928" y="567"/>
      <point x="1028" y="586"/>
      <point x="1108" y="586" type="curve" smooth="yes"/>
      <point x="1393" y="586"/>
      <point x="1528" y="418"/>
      <point x="1528" y="74" type="curve" smooth="yes"/>
      <point x="1528" y="-242"/>
      <point x="1399" y="-453"/>
      <point x="1171" y="-453" type="curve" smooth="yes"/>
      <point x="1081" y="-453"/>
      <point x="1006" y="-432"/>
      <point x="946" y="-399" type="curve"/>
      <point x="946" y="-457" type="line"/>
      <point x="997" y="-479"/>
      <point x="1069" y="-502"/>
    </contour>
  </outline>
</glyph>
<glyph name="uni0524" format="2">
  <advance width="1442"/>
  <unicode hex="0524"/>
  <anchor x="721" y="-358" name="bottom"/>
  <anchor x="721" y="1462" name="top"/>
  <outline>
    <contour>
      <point x="1317" y="-358" type="line"/>
      <point x="1368" y="-358" type="line"/>
      <point x="1368" y="51" type="line"/>
      <point x="1231" y="51" type="line"/>
      <point x="1231" y="1462" type="line"/>
      <point x="211" y="1462" type="line"/>
      <point x="211" y="0" type="line"/>
      <point x="264" y="0" type="line"/>
      <point x="264" y="1411" type="line"/>
      <point x="1178" y="1411" type="line"/>
      <point x="1178" y="0" type="line"/>
      <point x="1317" y="0" type="line"/>
    </contour>
  </outline>
</glyph>
<glyph name="uni052B" format="2">
  <advance width="2087"/>
  <unicode hex="052B"/>
  <anchor x="1020" y="-360" name="bottom"/>
  <anchor x="1020" y="1081" name="top"/>
  <outline>
    <contour>
      <point x="864" y="596" type="line"/>
      <point x="864" y="545" type="line"/>
      <point x="1442" y="545" type="line"/>
      <point x="1442" y="596" type="line"/>
    </contour>
    <component base="afii10069"/>
    <component base="afii10076" xOffset="1233"/>
  </outline>
</glyph>
<glyph name="uni052F" format="2">
  <advance width="1083"/>
  <unicode hex="052F"/>
  <anchor x="514" y="-360" name="bottom"/>
  <anchor x="514" y="1081" name="top"/>
  <outline>
    <contour>
      <point x="862" y="0" type="line"/>
      <point x="973" y="0" type="line"/>
      <point x="973" y="-360" type="line"/>
      <point x="1026" y="-360" type="line"/>
      <point x="1026" y="51" type="line"/>
      <point x="862" y="51" type="line"/>
    </contour>
    <component base="afii10077"/>
  </outline>
</glyph>
<glyph name="uni1AB5" format="2">
  <unicode hex="1AB5"/>
  <anchor x="2" y="0" name="_bottom"/>
  <anchor x="2" y="-444" name="bottom"/>
  <outline>
    <contour>
      <point x="-53" y="-236" type="line"/>
      <point x="-100" y="-186" type="line"/>
      <point x="-184" y="-268" type="line"/>
      <point x="-266" y="-186" type="line"/>
      <point x="-313" y="-231" type="line"/>
      <point x="-229" y="-315" type="line"/>
      <point x="-309" y="-395" type="line"/>
      <point x="-262" y="-442" type="line"/>
      <point x="-182" y="-362" type="line"/>
      <point x="-98" y="-444" type="line"/>
      <point x="-53" y="-399" type="line"/>
      <point x="-135" y="-317" type="line"/>
    </contour>
    <contour>
      <point x="315" y="-236" type="line"/>
      <point x="266" y="-186" type="line"/>
      <point x="184" y="-268" type="line"/>
      <point x="100" y="-186" type="line"/>
      <point x="55" y="-231" type="line"/>
      <point x="137" y="-315" type="line"/>
      <point x="57" y="-395" type="line"/>
      <point x="104" y="-442" type="line"/>
      <point x="186" y="-362" type="line"/>
      <point x="268" y="-444" type="line"/>
      <point x="313" y="-399" type="line"/>
      <point x="231" y="-317" type="line"/>
    </contour>
  </outline>
</glyph>
<glyph name="uni1AB8" format="2">
  <unicode hex="1AB8"/>
  <anchor x="2" y="0" name="_bottom"/>
  <anchor x="2" y="-383" name="bottom"/>
  <outline>
    <contour>
      <point x="-92" y="-383" type="curve"/>
      <point x="-92" y="-301" type="line"/>
      <point x="-123" y="-305"/>
      <point x="-141" y="-289"/>
      <point x="-141" y="-236" type="curve" smooth="yes"/>
      <point x="-141" y="-51" type="line"/>
      <point x="-221" y="-51" type="line"/>
      <point x="-221" y="-270" type="line" smooth="yes"/>
      <point x="-221" y="-350"/>
      <point x="-160" y="-383"/>
    </contour>
    <contour>
      <point x="223" y="-383" type="curve"/>
      <point x="223" y="-301" type="line"/>
      <point x="190" y="-305"/>
      <point x="172" y="-289"/>
      <point x="172" y="-236" type="curve" smooth="yes"/>
      <point x="172" y="-51" type="line"/>
      <point x="92" y="-51" type="line"/>
      <point x="92" y="-270" type="line" smooth="yes"/>
      <point x="92" y="-350"/>
      <point x="158" y="-383"/>
    </contour>
  </outline>
</glyph>
<glyph name="uni1ABC" format="2">
  <unicode hex="1ABC"/>
  <anchor x="0" y="1081" name="_top"/>
  <anchor x="0" y="1710" name="top"/>
  <outline>
    <contour>
      <point x="-651" y="1485" type="curve" smooth="yes"/>
      <point x="-651" y="1399"/>
      <point x="-608" y="1315"/>
      <point x="-518" y="1251" type="curve"/>
      <point x="-459" y="1251" type="line"/>
      <point x="-541" y="1317"/>
      <point x="-586" y="1399"/>
      <point x="-586" y="1485" type="curve" smooth="yes"/>
      <point x="-586" y="1565"/>
      <point x="-541" y="1647"/>
      <point x="-459" y="1710" type="curve"/>
      <point x="-518" y="1710" type="line"/>
      <point x="-608" y="1649"/>
      <point x="-651" y="1571"/>
    </contour>
    <contour>
      <point x="651" y="1479" type="curve" smooth="yes"/>
      <point x="651" y="1565"/>
      <point x="608" y="1647"/>
      <point x="516" y="1710" type="curve"/>
      <point x="457" y="1710" type="line"/>
      <point x="541" y="1645"/>
      <point x="584" y="1563"/>
      <point x="584" y="1479" type="curve" smooth="yes"/>
      <point x="584" y="1397"/>
      <point x="541" y="1315"/>
      <point x="457" y="1251" type="curve"/>
      <point x="516" y="1251" type="line"/>
      <point x="608" y="1313"/>
      <point x="651" y="1393"/>
    </contour>
    <contour>
      <point x="-406" y="1485" type="curve" smooth="yes"/>
      <point x="-406" y="1399"/>
      <point x="-362" y="1315"/>
      <point x="-272" y="1251" type="curve"/>
      <point x="-213" y="1251" type="line"/>
      <point x="-295" y="1317"/>
      <point x="-340" y="1399"/>
      <point x="-340" y="1485" type="curve" smooth="yes"/>
      <point x="-340" y="1565"/>
      <point x="-295" y="1647"/>
      <point x="-213" y="1710" type="curve"/>
      <point x="-272" y="1710" type="line"/>
      <point x="-362" y="1649"/>
      <point x="-406" y="1571"/>
    </contour>
    <contour>
      <point x="406" y="1479" type="curve" smooth="yes"/>
      <point x="406" y="1565"/>
      <point x="362" y="1647"/>
      <point x="270" y="1710" type="curve"/>
      <point x="211" y="1710" type="line"/>
      <point x="295" y="1645"/>
      <point x="338" y="1563"/>
      <point x="338" y="1479" type="curve" smooth="yes"/>
      <point x="338" y="1397"/>
      <point x="295" y="1315"/>
      <point x="211" y="1251" type="curve"/>
      <point x="270" y="1251" type="line"/>
      <point x="362" y="1313"/>
      <point x="406" y="1393"/>
    </contour>
  </outline>
</glyph>
<glyph name="uni1C81" format="2">
  <advance width="1075"/>
  <unicode hex="1C81"/>
  <anchor x="539" y="-492" name="bottom"/>
  <anchor x="539" y="1081" name="top"/>
  <outline>
    <contour>
      <point x="885" y="1081" type="line"/>
      <point x="389" y="1081" type="line"/>
      <point x="383" y="711"/>
      <point x="285" y="387"/>
      <point x="106" y="137" type="curve"/>
      <point x="43" y="137" type="line"/>
      <point x="43" y="-492" type="line"/>
      <point x="96" y="-492" type="line"/>
      <point x="96" y="86" type="line"/>
      <point x="969" y="86" type="line"/>
      <point x="969" y="-492" type="line"/>
      <point x="1022" y="-492" type="line"/>
      <point x="1022" y="137" type="line"/>
      <point x="885" y="137" type="line"/>
    </contour>
    <contour>
      <point x="831" y="1030" type="line"/>
      <point x="831" y="137" type="line"/>
      <point x="172" y="137" type="line"/>
      <point x="342" y="403"/>
      <point x="426" y="682"/>
      <point x="440" y="1030" type="curve"/>
    </contour>
  </outline>
</glyph>
<glyph name="uni1C85" format="2">
  <advance width="1688"/>
  <unicode hex="1C85"/>
  <anchor x="844" y="0" name="bottom"/>
  <anchor x="844" y="1081" name="top"/>
  <outline>
    <contour>
      <point x="182" y="0" type="line"/>
      <point x="236" y="0" type="line"/>
      <point x="236" y="1030" type="line"/>
      <point x="815" y="1030" type="line"/>
      <point x="815" y="0" type="line"/>
      <point x="868" y="0" type="line"/>
      <point x="868" y="1030" type="line"/>
      <point x="1448" y="1030" type="line"/>
      <point x="1448" y="0" type="line"/>
      <point x="1501" y="0" type="line"/>
      <point x="1501" y="1081" type="line"/>
      <point x="182" y="1081" type="line"/>
    </contour>
  </outline>
</glyph>
<glyph name="uni1D01" format="2">
  <advance width="1151"/>
  <unicode hex="1D01"/>
  <anchor x="610" y="0" name="bottom"/>
  <anchor x="608" y="1081" name="top"/>
  <outline>
    <contour>
      <point x="1096" y="0" type="line"/>
      <point x="1096" y="51" type="line"/>
      <point x="635" y="51" type="line"/>
      <point x="635" y="543" type="line"/>
      <point x="1069" y="543" type="line"/>
      <point x="1069" y="594" type="line"/>
      <point x="635" y="594" type="line"/>
      <point x="635" y="1030" type="line"/>
      <point x="1096" y="1030" type="line"/>
      <point x="1096" y="1081" type="line"/>
      <point x="455" y="1081" type="line"/>
      <point x="2" y="0" type="line"/>
      <point x="63" y="0" type="line"/>
      <point x="221" y="385" type="line"/>
      <point x="582" y="385" type="line"/>
      <point x="582" y="0" type="line"/>
    </contour>
    <contour>
      <point x="244" y="436" type="line"/>
      <point x="489" y="1030" type="line"/>
      <point x="582" y="1030" type="line"/>
      <point x="582" y="436" type="line"/>
    </contour>
  </outline>
</glyph>
<glyph name="uni1D05" format="2">
  <advance width="1038"/>
  <unicode hex="1D05"/>
  <anchor x="524" y="0" name="bottom"/>
  <anchor x="524" y="1081" name="top"/>
  <outline>
    <contour>
      <point x="956" y="551" type="curve" smooth="yes"/>
      <point x="956" y="895"/>
      <point x="786" y="1081"/>
      <point x="434" y="1081" type="curve" smooth="yes"/>
      <point x="154" y="1081" type="line"/>
      <point x="154" y="0" type="line"/>
      <point x="399" y="0" type="line" smooth="yes"/>
      <point x="774" y="0"/>
      <point x="956" y="190"/>
    </contour>
    <contour>
      <point x="901" y="551" type="curve" smooth="yes"/>
      <point x="901" y="215"/>
      <point x="737" y="51"/>
      <point x="399" y="51" type="curve" smooth="yes"/>
      <point x="207" y="51" type="line"/>
      <point x="207" y="1030" type="line"/>
      <point x="418" y="1030" type="line" smooth="yes"/>
      <point x="748" y="1030"/>
      <point x="901" y="866"/>
    </contour>
  </outline>
</glyph>
<glyph name="uni1D0F" format="2">
  <advance width="1178"/>
  <unicode hex="1D0F"/>
  <anchor x="590" y="0" name="bottom"/>
  <anchor x="590" y="1081" name="top"/>
  <outline>
    <contour>
      <point x="1096" y="541" type="curve" smooth="yes"/>
      <point x="1096" y="854"/>
      <point x="944" y="1102"/>
      <point x="598" y="1102" type="curve" smooth="yes"/>
      <point x="276" y="1102"/>
      <point x="80" y="885"/>
      <point x="80" y="541" type="curve" smooth="yes"/>
      <point x="80" y="219"/>
      <point x="254" y="-20"/>
      <point x="586" y="-20" type="curve" smooth="yes"/>
      <point x="928" y="-20"/>
      <point x="1096" y="223"/>
    </contour>
    <contour>
      <point x="135" y="541" type="curve" smooth="yes"/>
      <point x="135" y="860"/>
      <point x="307" y="1051"/>
      <point x="598" y="1051" type="curve" smooth="yes"/>
      <point x="907" y="1051"/>
      <point x="1040" y="823"/>
      <point x="1040" y="541" type="curve" smooth="yes"/>
      <point x="1040" y="244"/>
      <point x="893" y="31"/>
      <point x="586" y="31" type="curve" smooth="yes"/>
      <point x="289" y="31"/>
      <point x="135" y="240"/>
    </contour>
  </outline>
</glyph>
<glyph name="uni1D15" format="2">
  <advance width="1198"/>
  <unicode hex="1D15"/>
  <anchor x="602" y="0" name="bottom"/>
  <anchor x="602" y="1081" name="top"/>
  <outline>
    <contour>
      <point x="1024" y="1081" type="line"/>
      <point x="971" y="1081" type="line"/>
      <point x="971" y="1059" type="line" smooth="yes"/>
      <point x="971" y="819"/>
      <point x="840" y="690"/>
      <point x="602" y="690" type="curve" smooth="yes"/>
      <point x="354" y="690"/>
      <point x="225" y="813"/>
      <point x="225" y="1069" type="curve" smooth="yes"/>
      <point x="225" y="1081" type="line"/>
      <point x="172" y="1081" type="line"/>
      <point x="172" y="1065" type="line" smooth="yes"/>
      <point x="172" y="854"/>
      <point x="258" y="721"/>
      <point x="416" y="670" type="curve"/>
      <point x="195" y="631"/>
      <point x="80" y="506"/>
      <point x="80" y="330" type="curve" smooth="yes"/>
      <point x="80" y="121"/>
      <point x="223" y="-14"/>
      <point x="600" y="-14" type="curve" smooth="yes"/>
      <point x="954" y="-14"/>
      <point x="1116" y="117"/>
      <point x="1116" y="330" type="curve" smooth="yes"/>
      <point x="1116" y="502"/>
      <point x="1008" y="631"/>
      <point x="776" y="672" type="curve"/>
      <point x="932" y="721"/>
      <point x="1024" y="858"/>
      <point x="1024" y="1059" type="curve" smooth="yes"/>
    </contour>
    <contour>
      <point x="602" y="639" type="curve" smooth="yes"/>
      <point x="893" y="639"/>
      <point x="1061" y="535"/>
      <point x="1061" y="330" type="curve" smooth="yes"/>
      <point x="1061" y="145"/>
      <point x="924" y="37"/>
      <point x="600" y="37" type="curve" smooth="yes"/>
      <point x="254" y="37"/>
      <point x="135" y="152"/>
      <point x="135" y="330" type="curve" smooth="yes"/>
      <point x="135" y="518"/>
      <point x="287" y="639"/>
    </contour>
  </outline>
</glyph>
<glyph name="uni1D17" format="2">
  <advance width="1141"/>
  <unicode hex="1D17"/>
  <anchor x="586" y="0" name="bottom"/>
  <anchor x="586" y="545" name="top"/>
  <outline>
    <contour>
      <point x="1055" y="541" type="curve"/>
      <point x="999" y="541" type="line"/>
      <point x="999" y="242"/>
      <point x="872" y="31"/>
      <point x="586" y="31" type="curve" smooth="yes"/>
      <point x="309" y="31"/>
      <point x="176" y="238"/>
      <point x="176" y="541" type="curve"/>
      <point x="121" y="541" type="line"/>
      <point x="121" y="217"/>
      <point x="274" y="-20"/>
      <point x="586" y="-20" type="curve" smooth="yes"/>
      <point x="907" y="-20"/>
      <point x="1055" y="219"/>
    </contour>
  </outline>
</glyph>
<glyph name="uni1D24" format="2">
  <advance width="973"/>
  <unicode hex="1D24"/>
  <anchor x="561" y="0" name="bottom"/>
  <anchor x="528" y="1556" name="top"/>
  <outline>
    <contour>
      <point x="518" y="-27" type="curve" smooth="yes"/>
      <point x="643" y="-27"/>
      <point x="748" y="-4"/>
      <point x="866" y="47" type="curve"/>
      <point x="846" y="94" type="line"/>
      <point x="735" y="45"/>
      <point x="631" y="23"/>
      <point x="520" y="23" type="curve" smooth="yes"/>
      <point x="289" y="23"/>
      <point x="156" y="131"/>
      <point x="156" y="317" type="curve" smooth="yes"/>
      <point x="156" y="502"/>
      <point x="266" y="610"/>
      <point x="549" y="705" type="curve"/>
      <point x="549" y="809" type="line"/>
      <point x="823" y="909"/>
      <point x="944" y="1038"/>
      <point x="944" y="1233" type="curve" smooth="yes"/>
      <point x="944" y="1446"/>
      <point x="786" y="1563"/>
      <point x="526" y="1563" type="curve" smooth="yes"/>
      <point x="401" y="1563"/>
      <point x="297" y="1540"/>
      <point x="178" y="1489" type="curve"/>
      <point x="199" y="1442" type="line"/>
      <point x="309" y="1491"/>
      <point x="414" y="1513"/>
      <point x="524" y="1513" type="curve" smooth="yes"/>
      <point x="756" y="1513"/>
      <point x="889" y="1415"/>
      <point x="889" y="1229" type="curve" smooth="yes"/>
      <point x="889" y="1044"/>
      <point x="778" y="936"/>
      <point x="496" y="842" type="curve"/>
      <point x="496" y="737" type="line"/>
      <point x="221" y="637"/>
      <point x="100" y="508"/>
      <point x="100" y="313" type="curve" smooth="yes"/>
      <point x="100" y="100"/>
      <point x="258" y="-27"/>
    </contour>
  </outline>
</glyph>
<glyph name="uni1D27" format="2">
  <advance width="868"/>
  <unicode hex="1D27"/>
  <outline>
    <contour>
      <point x="-12" y="0" type="line"/>
      <point x="45" y="0" type="line"/>
      <point x="391" y="872" type="line" smooth="yes"/>
      <point x="408" y="915"/>
      <point x="428" y="965"/>
      <point x="440" y="1012" type="curve"/>
      <point x="453" y="965"/>
      <point x="471" y="915"/>
      <point x="487" y="874" type="curve" smooth="yes"/>
      <point x="823" y="0" type="line"/>
      <point x="881" y="0" type="line"/>
      <point x="463" y="1087" type="line"/>
      <point x="422" y="1087" type="line"/>
    </contour>
  </outline>
</glyph>
<glyph name="uni1D6B" format="2">
  <advance width="1915"/>
  <unicode hex="1D6B"/>
  <anchor x="977" y="0" name="bottom"/>
  <anchor x="979" y="1133" name="top"/>
  <outline>
    <contour>
      <point x="1790" y="545" type="line"/>
      <point x="1790" y="596" type="line" smooth="yes"/>
      <point x="1790" y="881"/>
      <point x="1673" y="1102"/>
      <point x="1397" y="1102" type="curve" smooth="yes"/>
      <point x="1188" y="1102"/>
      <point x="1053" y="985"/>
      <point x="985" y="817" type="curve"/>
      <point x="985" y="1081" type="line"/>
      <point x="932" y="1081" type="line"/>
      <point x="932" y="463" type="line" smooth="yes"/>
      <point x="932" y="168"/>
      <point x="780" y="31"/>
      <point x="545" y="31" type="curve" smooth="yes"/>
      <point x="334" y="31"/>
      <point x="221" y="139"/>
      <point x="221" y="381" type="curve" smooth="yes"/>
      <point x="221" y="1081" type="line"/>
      <point x="168" y="1081" type="line"/>
      <point x="168" y="373" type="line" smooth="yes"/>
      <point x="168" y="117"/>
      <point x="295" y="-20"/>
      <point x="545" y="-20" type="curve" smooth="yes"/>
      <point x="766" y="-20"/>
      <point x="918" y="88"/>
      <point x="965" y="297" type="curve"/>
      <point x="1024" y="104"/>
      <point x="1165" y="-20"/>
      <point x="1415" y="-20" type="curve" smooth="yes"/>
      <point x="1546" y="-20"/>
      <point x="1645" y="0"/>
      <point x="1749" y="47" type="curve"/>
      <point x="1749" y="102" type="line"/>
      <point x="1622" y="45"/>
      <point x="1546" y="31"/>
      <point x="1415" y="31" type="curve" smooth="yes"/>
      <point x="1143" y="31"/>
      <point x="989" y="195"/>
      <point x="985" y="545" type="curve"/>
    </contour>
    <contour>
      <point x="1735" y="596" type="curve"/>
      <point x="987" y="596" type="line"/>
      <point x="1012" y="893"/>
      <point x="1167" y="1051"/>
      <point x="1397" y="1051" type="curve" smooth="yes"/>
      <point x="1626" y="1051"/>
      <point x="1737" y="866"/>
    </contour>
  </outline>
</glyph>
<glyph name="uni1D70" format="2">
  <advance width="1174"/>
  <unicode hex="1D70"/>
  <outline>
    <contour>
      <point x="1194" y="664" type="curve"/>
      <point x="1145" y="664" type="line"/>
      <point x="1137" y="551"/>
      <point x="1067" y="467"/>
      <point x="918" y="467" type="curve" smooth="yes"/>
      <point x="692" y="467"/>
      <point x="526" y="655"/>
      <point x="279" y="655" type="curve" smooth="yes"/>
      <point x="106" y="655"/>
      <point x="-14" y="582"/>
      <point x="-20" y="410" type="curve"/>
      <point x="29" y="410" type="line"/>
      <point x="37" y="549"/>
      <point x="119" y="606"/>
      <point x="270" y="606" type="curve" smooth="yes"/>
      <point x="512" y="606"/>
      <point x="686" y="418"/>
      <point x="907" y="418" type="curve" smooth="yes"/>
      <point x="1061" y="418"/>
      <point x="1182" y="492"/>
    </contour>
    <component base="n"/>
  </outline>
</glyph>
<glyph name="uni1D82" format="2">
  <advance width="561"/>
  <unicode hex="1D82"/>
  <outline>
    <contour>
      <point x="193" y="-346" type="curve" smooth="yes"/>
      <point x="287" y="-346"/>
      <point x="338" y="-285"/>
      <point x="338" y="-172" type="curve" smooth="yes"/>
      <point x="338" y="51" type="line"/>
      <point x="285" y="51" type="line"/>
      <point x="285" y="0" type="line"/>
      <point x="285" y="-166" type="line" smooth="yes"/>
      <point x="285" y="-256"/>
      <point x="256" y="-295"/>
      <point x="193" y="-295" type="curve" smooth="yes"/>
      <point x="162" y="-295"/>
      <point x="129" y="-287"/>
      <point x="106" y="-276" type="curve"/>
      <point x="106" y="-328" type="line"/>
      <point x="125" y="-338"/>
      <point x="158" y="-346"/>
    </contour>
    <component base="f"/>
  </outline>
</glyph>
<glyph name="uni1D92" format="2">
  <advance width="1106"/>
  <unicode hex="1D92"/>
  <outline>
    <contour>
      <point x="606" y="-20" type="curve" smooth="yes"/>
      <point x="715" y="-20"/>
      <point x="801" y="-6"/>
      <point x="887" y="25" type="curve"/>
      <point x="887" y="-184" type="line" smooth="yes"/>
      <point x="887" y="-317"/>
      <point x="940" y="-379"/>
      <point x="1055" y="-379" type="curve" smooth="yes"/>
      <point x="1094" y="-379"/>
      <point x="1128" y="-369"/>
      <point x="1145" y="-360" type="curve"/>
      <point x="1145" y="-309" type="line"/>
      <point x="1122" y="-319"/>
      <point x="1090" y="-328"/>
      <point x="1055" y="-328" type="curve" smooth="yes"/>
      <point x="979" y="-328"/>
      <point x="940" y="-287"/>
      <point x="940" y="-178" type="curve" smooth="yes"/>
      <point x="940" y="102" type="line"/>
      <point x="813" y="45"/>
      <point x="737" y="31"/>
      <point x="606" y="31" type="curve" smooth="yes"/>
      <point x="326" y="31"/>
      <point x="172" y="215"/>
      <point x="176" y="545" type="curve"/>
      <point x="981" y="545" type="line"/>
      <point x="981" y="596" type="line" smooth="yes"/>
      <point x="981" y="881"/>
      <point x="864" y="1102"/>
      <point x="588" y="1102" type="curve" smooth="yes"/>
      <point x="272" y="1102"/>
      <point x="121" y="836"/>
      <point x="121" y="530" type="curve" smooth="yes"/>
      <point x="121" y="213"/>
      <point x="266" y="-20"/>
    </contour>
    <contour>
      <point x="588" y="1051" type="curve" smooth="yes"/>
      <point x="817" y="1051"/>
      <point x="928" y="866"/>
      <point x="926" y="596" type="curve"/>
      <point x="178" y="596" type="line"/>
      <point x="203" y="893"/>
      <point x="358" y="1051"/>
    </contour>
  </outline>
</glyph>
<glyph name="uni1D93" format="2">
  <advance width="879"/>
  <unicode hex="1D93"/>
  <outline>
    <contour>
      <point x="928" y="-379" type="curve" smooth="yes"/>
      <point x="967" y="-379"/>
      <point x="1001" y="-369"/>
      <point x="1018" y="-360" type="curve"/>
      <point x="1018" y="-309" type="line"/>
      <point x="995" y="-319"/>
      <point x="963" y="-328"/>
      <point x="928" y="-328" type="curve" smooth="yes"/>
      <point x="852" y="-328"/>
      <point x="813" y="-287"/>
      <point x="813" y="-178" type="curve" smooth="yes"/>
      <point x="813" y="92" type="line"/>
      <point x="711" y="53"/>
      <point x="610" y="31"/>
      <point x="487" y="31" type="curve" smooth="yes"/>
      <point x="256" y="31"/>
      <point x="152" y="139"/>
      <point x="152" y="283" type="curve" smooth="yes"/>
      <point x="152" y="471"/>
      <point x="289" y="551"/>
      <point x="524" y="551" type="curve" smooth="yes"/>
      <point x="647" y="551" type="line"/>
      <point x="647" y="602" type="line"/>
      <point x="537" y="602" type="line" smooth="yes"/>
      <point x="299" y="602"/>
      <point x="188" y="678"/>
      <point x="188" y="821" type="curve" smooth="yes"/>
      <point x="188" y="969"/>
      <point x="295" y="1051"/>
      <point x="498" y="1051" type="curve" smooth="yes"/>
      <point x="606" y="1051"/>
      <point x="713" y="1026"/>
      <point x="793" y="991" type="curve"/>
      <point x="811" y="1040" type="line"/>
      <point x="713" y="1079"/>
      <point x="629" y="1102"/>
      <point x="496" y="1102" type="curve" smooth="yes"/>
      <point x="307" y="1102"/>
      <point x="133" y="1026"/>
      <point x="133" y="821" type="curve" smooth="yes"/>
      <point x="133" y="711"/>
      <point x="180" y="625"/>
      <point x="336" y="580" type="curve"/>
      <point x="336" y="575" type="line"/>
      <point x="172" y="535"/>
      <point x="96" y="428"/>
      <point x="96" y="283" type="curve" smooth="yes"/>
      <point x="96" y="102"/>
      <point x="221" y="-20"/>
      <point x="487" y="-20" type="curve" smooth="yes"/>
      <point x="594" y="-20"/>
      <point x="690" y="-2"/>
      <point x="760" y="20" type="curve"/>
      <point x="760" y="-184" type="line" smooth="yes"/>
      <point x="760" y="-317"/>
      <point x="813" y="-379"/>
    </contour>
  </outline>
</glyph>
<glyph name="dottedgrave" format="2">
  <unicode hex="1DC0"/>
  <anchor x="0" y="1081" name="_top"/>
  <anchor x="0" y="1630" name="top"/>
  <outline>
    <contour>
      <point x="-31" y="1630" type="curve"/>
      <point x="-104" y="1630" type="line"/>
      <point x="-104" y="1610" type="line"/>
      <point x="-74" y="1528"/>
      <point x="-8" y="1405"/>
      <point x="59" y="1309" type="curve"/>
      <point x="94" y="1309" type="line"/>
      <point x="94" y="1333" type="line"/>
      <point x="49" y="1413"/>
      <point x="-6" y="1536"/>
    </contour>
    <contour>
      <point x="-217" y="1466" type="curve" smooth="yes"/>
      <point x="-254" y="1466"/>
      <point x="-264" y="1436"/>
      <point x="-264" y="1403" type="curve" smooth="yes"/>
      <point x="-264" y="1368"/>
      <point x="-254" y="1339"/>
      <point x="-217" y="1339" type="curve" smooth="yes"/>
      <point x="-172" y="1339"/>
      <point x="-166" y="1368"/>
      <point x="-166" y="1403" type="curve" smooth="yes"/>
      <point x="-166" y="1436"/>
      <point x="-172" y="1466"/>
    </contour>
    <contour>
      <point x="213" y="1630" type="curve" smooth="yes"/>
      <point x="176" y="1630"/>
      <point x="166" y="1599"/>
      <point x="166" y="1567" type="curve" smooth="yes"/>
      <point x="166" y="1532"/>
      <point x="176" y="1503"/>
      <point x="213" y="1503" type="curve" smooth="yes"/>
      <point x="258" y="1503"/>
      <point x="264" y="1532"/>
      <point x="264" y="1567" type="curve" smooth="yes"/>
      <point x="264" y="1599"/>
      <point x="258" y="1630"/>
    </contour>
  </outline>
</glyph>
<glyph name="graveacutegrave" format="2">
  <unicode hex="1DC8"/>
  <anchor x="0" y="1081" name="_top"/>
  <anchor x="0" y="1483" name="top"/>
  <outline>
    <contour>
      <point x="-106" y="1272" type="line"/>
      <point x="119" y="1427" type="line"/>
      <point x="350" y="1274" type="line"/>
      <point x="375" y="1307" type="line"/>
      <point x="115" y="1483" type="line"/>
      <point x="-119" y="1327" type="line"/>
      <point x="-350" y="1481" type="line"/>
      <point x="-375" y="1446" type="line"/>
    </contour>
  </outline>
</glyph>
<glyph name="urabove" format="2">
  <unicode hex="1DD1"/>
  <anchor x="2" y="1081" name="_top"/>
  <anchor x="2" y="1659" name="top"/>
  <outline>
    <contour>
      <point x="35" y="1446" type="curve" smooth="yes"/>
      <point x="35" y="1573"/>
      <point x="-49" y="1655"/>
      <point x="-176" y="1655" type="curve" smooth="yes"/>
      <point x="-301" y="1655"/>
      <point x="-387" y="1575"/>
      <point x="-387" y="1450" type="curve" smooth="yes"/>
      <point x="-387" y="1323"/>
      <point x="-303" y="1243"/>
      <point x="-174" y="1243" type="curve"/>
      <point x="-174" y="1298" type="line"/>
      <point x="-262" y="1298"/>
      <point x="-324" y="1354"/>
      <point x="-324" y="1452" type="curve" smooth="yes"/>
      <point x="-324" y="1542"/>
      <point x="-262" y="1599"/>
      <point x="-178" y="1599" type="curve" smooth="yes"/>
      <point x="-94" y="1599"/>
      <point x="-33" y="1544"/>
      <point x="-33" y="1458" type="curve" smooth="yes"/>
      <point x="-33" y="1329"/>
      <point x="51" y="1247"/>
      <point x="180" y="1247" type="curve" smooth="yes"/>
      <point x="305" y="1247"/>
      <point x="389" y="1323"/>
      <point x="389" y="1454" type="curve" smooth="yes"/>
      <point x="389" y="1579"/>
      <point x="305" y="1659"/>
      <point x="178" y="1659" type="curve"/>
      <point x="178" y="1606" type="line"/>
      <point x="262" y="1606"/>
      <point x="326" y="1548"/>
      <point x="326" y="1454" type="curve" smooth="yes"/>
      <point x="326" y="1358"/>
      <point x="268" y="1303"/>
      <point x="180" y="1303" type="curve" smooth="yes"/>
      <point x="94" y="1303"/>
      <point x="35" y="1358"/>
    </contour>
  </outline>
</glyph>
<glyph name="usabove" format="2">
  <unicode hex="1DD2"/>
  <anchor x="-4" y="819" name="_top"/>
  <anchor x="-4" y="1657" name="top"/>
  <outline>
    <contour>
      <point x="154" y="1407" type="curve" smooth="yes"/>
      <point x="154" y="1221"/>
      <point x="59" y="1151"/>
      <point x="-6" y="1143" type="curve"/>
      <point x="-6" y="1092" type="line"/>
      <point x="102" y="1108"/>
      <point x="207" y="1208"/>
      <point x="207" y="1407" type="curve" smooth="yes"/>
      <point x="207" y="1579"/>
      <point x="121" y="1657"/>
      <point x="-4" y="1657" type="curve" smooth="yes"/>
      <point x="-127" y="1657"/>
      <point x="-209" y="1571"/>
      <point x="-209" y="1446" type="curve" smooth="yes"/>
      <point x="-209" y="1321"/>
      <point x="-131" y="1241"/>
      <point x="-23" y="1241" type="curve" smooth="yes"/>
      <point x="12" y="1241"/>
      <point x="39" y="1247"/>
      <point x="55" y="1255" type="curve"/>
      <point x="55" y="1309" type="line"/>
      <point x="35" y="1298"/>
      <point x="6" y="1292"/>
      <point x="-23" y="1292" type="curve" smooth="yes"/>
      <point x="-102" y="1292"/>
      <point x="-156" y="1356"/>
      <point x="-156" y="1446" type="curve" smooth="yes"/>
      <point x="-156" y="1544"/>
      <point x="-96" y="1606"/>
      <point x="-4" y="1606" type="curve" smooth="yes"/>
      <point x="86" y="1606"/>
      <point x="154" y="1552"/>
    </contour>
  </outline>
</glyph>
<glyph name="arrowheadrightheaddownbelow" format="2">
  <unicode hex="1DFF"/>
  <anchor x="4" y="0" name="_bottom"/>
  <anchor x="4" y="-504" name="bottom"/>
  <outline>
    <contour>
      <point x="381" y="-127" type="curve"/>
      <point x="381" y="-115" type="line"/>
      <point x="338" y="-115" type="line"/>
      <point x="279" y="-178"/>
      <point x="207" y="-279"/>
      <point x="160" y="-354" type="curve"/>
      <point x="117" y="-283"/>
      <point x="45" y="-182"/>
      <point x="-16" y="-115" type="curve"/>
      <point x="-57" y="-115" type="line"/>
      <point x="-57" y="-127" type="line"/>
      <point x="12" y="-211"/>
      <point x="98" y="-354"/>
      <point x="143" y="-436" type="curve"/>
      <point x="178" y="-436" type="line"/>
      <point x="221" y="-354"/>
      <point x="317" y="-207"/>
    </contour>
    <contour>
      <point x="-362" y="-66" type="curve"/>
      <point x="-375" y="-66" type="line"/>
      <point x="-375" y="-109" type="line"/>
      <point x="-311" y="-168"/>
      <point x="-211" y="-240"/>
      <point x="-135" y="-287" type="curve"/>
      <point x="-207" y="-330"/>
      <point x="-307" y="-401"/>
      <point x="-375" y="-463" type="curve"/>
      <point x="-375" y="-504" type="line"/>
      <point x="-362" y="-504" type="line"/>
      <point x="-279" y="-434"/>
      <point x="-135" y="-348"/>
      <point x="-53" y="-303" type="curve"/>
      <point x="-53" y="-268" type="line"/>
      <point x="-135" y="-225"/>
      <point x="-283" y="-129"/>
    </contour>
  </outline>
</glyph>
<glyph name="Yloop" format="2">
  <advance width="1112"/>
  <unicode hex="1EFE"/>
  <anchor x="557" y="0" name="bottom"/>
  <anchor x="557" y="1462" name="top"/>
  <outline>
    <contour>
      <point x="156" y="-20" type="curve" smooth="yes"/>
      <point x="293" y="-20"/>
      <point x="393" y="70"/>
      <point x="604" y="477" type="curve" smooth="yes"/>
      <point x="1112" y="1462" type="line"/>
      <point x="1051" y="1462" type="line"/>
      <point x="678" y="735" type="line" smooth="yes"/>
      <point x="639" y="657"/>
      <point x="623" y="621"/>
      <point x="594" y="559" type="curve"/>
      <point x="590" y="559" type="line"/>
      <point x="559" y="621"/>
      <point x="532" y="670"/>
      <point x="500" y="727" type="curve" smooth="yes"/>
      <point x="82" y="1462" type="line"/>
      <point x="20" y="1462" type="line"/>
      <point x="563" y="510" type="line"/>
      <point x="362" y="119"/>
      <point x="268" y="31"/>
      <point x="162" y="31" type="curve" smooth="yes"/>
      <point x="106" y="31"/>
      <point x="72" y="70"/>
      <point x="72" y="129" type="curve" smooth="yes"/>
      <point x="72" y="293"/>
      <point x="285" y="434"/>
      <point x="578" y="500" type="curve"/>
      <point x="561" y="545" type="line"/>
      <point x="256" y="477"/>
      <point x="16" y="324"/>
      <point x="16" y="129" type="curve" smooth="yes"/>
      <point x="16" y="49"/>
      <point x="68" y="-20"/>
    </contour>
  </outline>
</glyph>
<glyph name="uni1FC1" format="2">
  <advance width="1253"/>
  <unicode hex="1FC1"/>
  <anchor x="608" y="1081" name="_top"/>
  <outline>
    <contour>
      <point x="242" y="1559" type="curve"/>
      <point x="291" y="1559" type="line"/>
      <point x="297" y="1669"/>
      <point x="336" y="1741"/>
      <point x="436" y="1741" type="curve" smooth="yes"/>
      <point x="567" y="1741"/>
      <point x="618" y="1563"/>
      <point x="784" y="1563" type="curve" smooth="yes"/>
      <point x="913" y="1563"/>
      <point x="967" y="1653"/>
      <point x="973" y="1794" type="curve"/>
      <point x="924" y="1794" type="line"/>
      <point x="915" y="1675"/>
      <point x="883" y="1612"/>
      <point x="784" y="1612" type="curve" smooth="yes"/>
      <point x="645" y="1612"/>
      <point x="602" y="1790"/>
      <point x="436" y="1790" type="curve" smooth="yes"/>
      <point x="307" y="1790"/>
      <point x="252" y="1702"/>
    </contour>
    <contour>
      <point x="428" y="1309" type="curve" smooth="yes"/>
      <point x="473" y="1309"/>
      <point x="479" y="1337"/>
      <point x="479" y="1372" type="curve" smooth="yes"/>
      <point x="479" y="1405"/>
      <point x="473" y="1436"/>
      <point x="428" y="1436" type="curve" smooth="yes"/>
      <point x="391" y="1436"/>
      <point x="381" y="1405"/>
      <point x="381" y="1372" type="curve" smooth="yes"/>
      <point x="381" y="1337"/>
      <point x="391" y="1309"/>
    </contour>
    <contour>
      <point x="807" y="1309" type="curve" smooth="yes"/>
      <point x="852" y="1309"/>
      <point x="858" y="1337"/>
      <point x="858" y="1372" type="curve" smooth="yes"/>
      <point x="858" y="1405"/>
      <point x="852" y="1436"/>
      <point x="807" y="1436" type="curve" smooth="yes"/>
      <point x="770" y="1436"/>
      <point x="760" y="1405"/>
      <point x="760" y="1372" type="curve" smooth="yes"/>
      <point x="760" y="1337"/>
      <point x="770" y="1309"/>
    </contour>
  </outline>
</glyph>
<glyph name="uni1FDD" format="2">
  <advance width="1257"/>
  <unicode hex="1FDD"/>
  <anchor x="686" y="1081" name="_top"/>
  <anchor x="686" y="1565" name="top"/>
  <outline>
    <contour>
      <point x="856" y="1300" type="curve"/>
      <point x="887" y="1300" type="line"/>
      <point x="887" y="1325" type="line"/>
      <point x="850" y="1386"/>
      <point x="807" y="1495"/>
      <point x="793" y="1565" type="curve"/>
      <point x="725" y="1565" type="line"/>
      <point x="725" y="1544" type="line"/>
      <point x="745" y="1479"/>
      <point x="795" y="1384"/>
    </contour>
    <contour>
      <point x="629" y="1300" type="curve"/>
      <point x="629" y="1343" type="line"/>
      <point x="584" y="1356"/>
      <point x="537" y="1399"/>
      <point x="535" y="1444" type="curve"/>
      <point x="584" y="1444"/>
      <point x="616" y="1470"/>
      <point x="616" y="1505" type="curve" smooth="yes"/>
      <point x="616" y="1540"/>
      <point x="596" y="1563"/>
      <point x="561" y="1563" type="curve" smooth="yes"/>
      <point x="522" y="1563"/>
      <point x="485" y="1538"/>
      <point x="485" y="1468" type="curve" smooth="yes"/>
      <point x="485" y="1378"/>
      <point x="557" y="1321"/>
    </contour>
  </outline>
</glyph>
<glyph name="uni1FEE" format="2">
  <advance width="1257"/>
  <unicode hex="1FEE"/>
  <anchor x="623" y="1081" name="_top"/>
  <outline>
    <contour>
      <point x="543" y="1262" type="line"/>
      <point x="578" y="1262" type="line"/>
      <point x="645" y="1358"/>
      <point x="711" y="1481"/>
      <point x="741" y="1563" type="curve"/>
      <point x="741" y="1583" type="line"/>
      <point x="668" y="1583" type="line"/>
      <point x="643" y="1489"/>
      <point x="588" y="1366"/>
      <point x="543" y="1286" type="curve"/>
    </contour>
    <contour>
      <point x="362" y="1292" type="curve" smooth="yes"/>
      <point x="408" y="1292"/>
      <point x="414" y="1321"/>
      <point x="414" y="1356" type="curve" smooth="yes"/>
      <point x="414" y="1389"/>
      <point x="408" y="1419"/>
      <point x="362" y="1419" type="curve" smooth="yes"/>
      <point x="326" y="1419"/>
      <point x="315" y="1389"/>
      <point x="315" y="1356" type="curve" smooth="yes"/>
      <point x="315" y="1321"/>
      <point x="326" y="1292"/>
    </contour>
    <contour>
      <point x="877" y="1292" type="curve" smooth="yes"/>
      <point x="922" y="1292"/>
      <point x="928" y="1321"/>
      <point x="928" y="1356" type="curve" smooth="yes"/>
      <point x="928" y="1389"/>
      <point x="922" y="1419"/>
      <point x="877" y="1419" type="curve" smooth="yes"/>
      <point x="840" y="1419"/>
      <point x="829" y="1389"/>
      <point x="829" y="1356" type="curve" smooth="yes"/>
      <point x="829" y="1321"/>
      <point x="840" y="1292"/>
    </contour>
  </outline>
</glyph>
<glyph name="uni2012" format="2">
  <advance width="1106"/>
  <unicode hex="2012"/>
  <outline>
    <contour>
      <point x="82" y="678" type="line"/>
      <point x="1024" y="678" type="line"/>
      <point x="1024" y="725" type="line"/>
      <point x="82" y="725" type="line"/>
    </contour>
  </outline>
</glyph>
<glyph name="quotereversed" format="2">
  <advance width="260"/>
  <unicode hex="201B"/>
  <outline>
    <contour>
      <point x="94" y="1462" type="curve"/>
      <point x="53" y="1462" type="line"/>
      <point x="41" y="1444" type="line"/>
      <point x="66" y="1276"/>
      <point x="123" y="1102"/>
      <point x="188" y="961" type="curve"/>
      <point x="223" y="961" type="line"/>
      <point x="160" y="1104"/>
      <point x="109" y="1315"/>
    </contour>
  </outline>
</glyph>
<glyph name="daggerdbl" format="2">
  <advance width="979"/>
  <unicode hex="2021"/>
  <outline>
    <contour>
      <point x="498" y="455" type="line"/>
      <point x="502" y="784" type="line"/>
      <point x="498" y="1102" type="line"/>
      <point x="852" y="1096" type="line"/>
      <point x="852" y="1147" type="line"/>
      <point x="498" y="1141" type="line"/>
      <point x="506" y="1556" type="line"/>
      <point x="451" y="1556" type="line"/>
      <point x="459" y="1141" type="line"/>
      <point x="104" y="1147" type="line"/>
      <point x="104" y="1096" type="line"/>
      <point x="459" y="1102" type="line"/>
      <point x="455" y="784" type="line"/>
      <point x="459" y="455" type="line"/>
      <point x="104" y="461" type="line"/>
      <point x="104" y="410" type="line"/>
      <point x="459" y="416" type="line"/>
      <point x="451" y="0" type="line"/>
      <point x="506" y="0" type="line"/>
      <point x="498" y="416" type="line"/>
      <point x="852" y="410" type="line"/>
      <point x="852" y="461" type="line"/>
    </contour>
  </outline>
</glyph>
<glyph name="caret" format="2">
  <advance width="817"/>
  <unicode hex="2038"/>
  <outline>
    <contour>
      <point x="41" y="-492" type="line"/>
      <point x="100" y="-492" type="line"/>
      <point x="410" y="96" type="line"/>
      <point x="698" y="-492" type="line"/>
      <point x="760" y="-492" type="line"/>
      <point x="436" y="164" type="line"/>
      <point x="389" y="164" type="line"/>
    </contour>
  </outline>
</glyph>
<glyph name="undertie" format="2">
  <advance width="1247"/>
  <unicode hex="203F"/>
  <outline>
    <contour>
      <point x="111" y="-78" type="curve"/>
      <point x="53" y="-106" type="line"/>
      <point x="184" y="-362"/>
      <point x="371" y="-492"/>
      <point x="625" y="-492" type="curve" smooth="yes"/>
      <point x="883" y="-492"/>
      <point x="1073" y="-369"/>
      <point x="1194" y="-115" type="curve"/>
      <point x="1139" y="-80" type="line"/>
      <point x="1032" y="-313"/>
      <point x="852" y="-430"/>
      <point x="625" y="-430" type="curve" smooth="yes"/>
      <point x="395" y="-430"/>
      <point x="219" y="-305"/>
    </contour>
  </outline>
</glyph>
<glyph name="bracketrightwithquill" format="2">
  <advance width="647"/>
  <unicode hex="2046"/>
  <outline>
    <contour>
      <point x="49" y="-324" type="line"/>
      <point x="459" y="-324" type="line"/>
      <point x="459" y="1462" type="line"/>
      <point x="49" y="1462" type="line"/>
      <point x="49" y="1411" type="line"/>
      <point x="408" y="1411" type="line"/>
      <point x="408" y="-272" type="line"/>
      <point x="49" y="-272" type="line"/>
    </contour>
    <contour>
      <point x="43" y="543" type="line"/>
      <point x="424" y="543" type="line"/>
      <point x="424" y="594" type="line"/>
      <point x="43" y="594" type="line"/>
    </contour>
  </outline>
</glyph>
<glyph name="fourdotmark" format="2">
  <advance width="1257"/>
  <unicode hex="205B"/>
  <outline>
    <contour>
      <point x="610" y="1290" type="curve" smooth="yes"/>
      <point x="655" y="1290"/>
      <point x="670" y="1319"/>
      <point x="670" y="1370" type="curve" smooth="yes"/>
      <point x="670" y="1423"/>
      <point x="655" y="1452"/>
      <point x="610" y="1452" type="curve" smooth="yes"/>
      <point x="567" y="1452"/>
      <point x="553" y="1423"/>
      <point x="553" y="1370" type="curve" smooth="yes"/>
      <point x="553" y="1319"/>
      <point x="567" y="1290"/>
    </contour>
    <contour>
      <point x="610" y="-18" type="curve" smooth="yes"/>
      <point x="655" y="-18"/>
      <point x="670" y="10"/>
      <point x="670" y="61" type="curve" smooth="yes"/>
      <point x="670" y="113"/>
      <point x="655" y="143"/>
      <point x="610" y="143" type="curve" smooth="yes"/>
      <point x="567" y="143"/>
      <point x="553" y="113"/>
      <point x="553" y="61" type="curve" smooth="yes"/>
      <point x="553" y="10"/>
      <point x="567" y="-18"/>
    </contour>
    <contour>
      <point x="156" y="629" type="curve" smooth="yes"/>
      <point x="201" y="629"/>
      <point x="215" y="657"/>
      <point x="215" y="709" type="curve" smooth="yes"/>
      <point x="215" y="760"/>
      <point x="201" y="791"/>
      <point x="156" y="791" type="curve" smooth="yes"/>
      <point x="113" y="791"/>
      <point x="98" y="760"/>
      <point x="98" y="709" type="curve" smooth="yes"/>
      <point x="98" y="657"/>
      <point x="113" y="629"/>
    </contour>
    <contour>
      <point x="1098" y="629" type="curve" smooth="yes"/>
      <point x="1143" y="629"/>
      <point x="1157" y="657"/>
      <point x="1157" y="709" type="curve" smooth="yes"/>
      <point x="1157" y="760"/>
      <point x="1143" y="791"/>
      <point x="1098" y="791" type="curve" smooth="yes"/>
      <point x="1055" y="791"/>
      <point x="1040" y="760"/>
      <point x="1040" y="709" type="curve" smooth="yes"/>
      <point x="1040" y="657"/>
      <point x="1055" y="629"/>
    </contour>
  </outline>
</glyph>
<glyph name="eightsuperior" format="2">
  <advance width="672"/>
  <unicode hex="2078"/>
  <outline>
    <contour>
      <point x="332" y="1739" type="curve" smooth="yes"/>
      <point x="180" y="1739"/>
      <point x="84" y="1647"/>
      <point x="84" y="1528" type="curve" smooth="yes"/>
      <point x="84" y="1430"/>
      <point x="131" y="1360"/>
      <point x="252" y="1315" type="curve"/>
      <point x="123" y="1266"/>
      <point x="61" y="1200"/>
      <point x="61" y="1079" type="curve" smooth="yes"/>
      <point x="61" y="946"/>
      <point x="164" y="848"/>
      <point x="336" y="848" type="curve" smooth="yes"/>
      <point x="504" y="848"/>
      <point x="610" y="948"/>
      <point x="610" y="1083" type="curve" smooth="yes"/>
      <point x="610" y="1194"/>
      <point x="551" y="1268"/>
      <point x="408" y="1313" type="curve"/>
      <point x="526" y="1356"/>
      <point x="584" y="1425"/>
      <point x="584" y="1530" type="curve" smooth="yes"/>
      <point x="584" y="1651"/>
      <point x="492" y="1739"/>
    </contour>
    <contour>
      <point x="324" y="1292" type="curve"/>
      <point x="354" y="1284" type="line" smooth="yes"/>
      <point x="516" y="1241"/>
      <point x="557" y="1163"/>
      <point x="557" y="1083" type="curve" smooth="yes"/>
      <point x="557" y="967"/>
      <point x="477" y="897"/>
      <point x="336" y="897" type="curve" smooth="yes"/>
      <point x="201" y="897"/>
      <point x="115" y="975"/>
      <point x="115" y="1079" type="curve" smooth="yes"/>
      <point x="115" y="1192"/>
      <point x="180" y="1255"/>
    </contour>
    <contour>
      <point x="332" y="1692" type="curve" smooth="yes"/>
      <point x="457" y="1692"/>
      <point x="530" y="1628"/>
      <point x="530" y="1530" type="curve" smooth="yes"/>
      <point x="530" y="1436"/>
      <point x="473" y="1372"/>
      <point x="334" y="1335" type="curve"/>
      <point x="205" y="1372"/>
      <point x="137" y="1427"/>
      <point x="137" y="1528" type="curve" smooth="yes"/>
      <point x="137" y="1626"/>
      <point x="213" y="1692"/>
    </contour>
  </outline>
</glyph>
<glyph name="equalsuperior" format="2">
  <advance width="631"/>
  <unicode hex="207C"/>
  <outline>
    <contour>
      <point x="72" y="1014" type="line"/>
      <point x="559" y="1014" type="line"/>
      <point x="559" y="1065" type="line"/>
      <point x="72" y="1065" type="line"/>
    </contour>
    <contour>
      <point x="72" y="821" type="line"/>
      <point x="559" y="821" type="line"/>
      <point x="559" y="872" type="line"/>
      <point x="72" y="872" type="line"/>
    </contour>
  </outline>
</glyph>
<glyph name="uni20A0" format="2">
  <advance width="1116"/>
  <unicode hex="20A0"/>
  <outline>
    <contour>
      <point x="541" y="1489" type="curve" smooth="yes"/>
      <point x="266" y="1489"/>
      <point x="80" y="1307"/>
      <point x="80" y="1022" type="curve" smooth="yes"/>
      <point x="80" y="715"/>
      <point x="236" y="549"/>
      <point x="522" y="545" type="curve"/>
      <point x="522" y="-6" type="line"/>
      <point x="1042" y="-6" type="line"/>
      <point x="1042" y="45" type="line"/>
      <point x="575" y="45" type="line"/>
      <point x="575" y="446" type="line"/>
      <point x="1018" y="446" type="line"/>
      <point x="1018" y="498" type="line"/>
      <point x="575" y="498" type="line"/>
      <point x="575" y="848" type="line"/>
      <point x="1042" y="848" type="line"/>
      <point x="1042" y="899" type="line"/>
      <point x="522" y="899" type="line"/>
      <point x="522" y="596" type="line"/>
      <point x="272" y="600"/>
      <point x="135" y="754"/>
      <point x="135" y="1026" type="curve" smooth="yes"/>
      <point x="135" y="1282"/>
      <point x="297" y="1438"/>
      <point x="545" y="1438" type="curve" smooth="yes"/>
      <point x="641" y="1438"/>
      <point x="715" y="1419"/>
      <point x="778" y="1389" type="curve"/>
      <point x="795" y="1440" type="line"/>
      <point x="735" y="1466"/>
      <point x="649" y="1489"/>
    </contour>
  </outline>
</glyph>
<glyph name="uni20A8" format="2">
  <advance width="1516"/>
  <unicode hex="20A8"/>
  <outline>
    <contour>
      <point x="369" y="1462" type="curve" smooth="yes"/>
      <point x="190" y="1462" type="line"/>
      <point x="190" y="0" type="line"/>
      <point x="244" y="0" type="line"/>
      <point x="244" y="655" type="line"/>
      <point x="469" y="655" type="line"/>
      <point x="780" y="0" type="line"/>
      <point x="844" y="0" type="line"/>
      <point x="522" y="670" type="line"/>
      <point x="688" y="717"/>
      <point x="811" y="858"/>
      <point x="811" y="1075" type="curve" smooth="yes"/>
      <point x="811" y="1378"/>
      <point x="641" y="1462"/>
    </contour>
    <contour>
      <point x="358" y="1411" type="line" smooth="yes"/>
      <point x="612" y="1411"/>
      <point x="756" y="1335"/>
      <point x="756" y="1073" type="curve" smooth="yes"/>
      <point x="756" y="840"/>
      <point x="602" y="707"/>
      <point x="393" y="707" type="curve" smooth="yes"/>
      <point x="244" y="707" type="line"/>
      <point x="244" y="1411" type="line"/>
    </contour>
    <contour>
      <point x="1182" y="1102" type="curve" smooth="yes"/>
      <point x="1024" y="1102"/>
      <point x="901" y="1010"/>
      <point x="901" y="842" type="curve" smooth="yes"/>
      <point x="901" y="662"/>
      <point x="1030" y="596"/>
      <point x="1155" y="526" type="curve" smooth="yes"/>
      <point x="1288" y="453"/>
      <point x="1391" y="399"/>
      <point x="1391" y="260" type="curve" smooth="yes"/>
      <point x="1391" y="129"/>
      <point x="1317" y="31"/>
      <point x="1141" y="31" type="curve" smooth="yes"/>
      <point x="1049" y="31"/>
      <point x="969" y="59"/>
      <point x="883" y="100" type="curve"/>
      <point x="883" y="39" type="line"/>
      <point x="938" y="16"/>
      <point x="1026" y="-20"/>
      <point x="1141" y="-20" type="curve" smooth="yes"/>
      <point x="1339" y="-20"/>
      <point x="1446" y="98"/>
      <point x="1446" y="260" type="curve" smooth="yes"/>
      <point x="1446" y="426"/>
      <point x="1315" y="500"/>
      <point x="1184" y="573" type="curve" smooth="yes"/>
      <point x="1081" y="631"/>
      <point x="956" y="694"/>
      <point x="956" y="842" type="curve" smooth="yes"/>
      <point x="956" y="977"/>
      <point x="1057" y="1051"/>
      <point x="1182" y="1051" type="curve" smooth="yes"/>
      <point x="1260" y="1051"/>
      <point x="1329" y="1034"/>
      <point x="1405" y="997" type="curve"/>
      <point x="1427" y="1049" type="line"/>
      <point x="1341" y="1083"/>
      <point x="1280" y="1102"/>
    </contour>
  </outline>
</glyph>
<glyph name="Euro" format="2">
  <advance width="1167"/>
  <unicode hex="20AC"/>
  <outline>
    <contour>
      <point x="817" y="1487" type="curve" smooth="yes"/>
      <point x="512" y="1487"/>
      <point x="322" y="1247"/>
      <point x="283" y="893" type="curve"/>
      <point x="90" y="893" type="line"/>
      <point x="90" y="842" type="line"/>
      <point x="276" y="842" type="line"/>
      <point x="274" y="813"/>
      <point x="272" y="760"/>
      <point x="272" y="713" type="curve" smooth="yes"/>
      <point x="272" y="670"/>
      <point x="274" y="625"/>
      <point x="276" y="594" type="curve"/>
      <point x="90" y="594" type="line"/>
      <point x="90" y="543" type="line"/>
      <point x="281" y="543" type="line"/>
      <point x="330" y="143"/>
      <point x="528" y="-20"/>
      <point x="815" y="-20" type="curve" smooth="yes"/>
      <point x="928" y="-20"/>
      <point x="1016" y="4"/>
      <point x="1090" y="37" type="curve"/>
      <point x="1090" y="94" type="line"/>
      <point x="1010" y="55"/>
      <point x="920" y="31"/>
      <point x="819" y="31" type="curve" smooth="yes"/>
      <point x="532" y="31"/>
      <point x="373" y="219"/>
      <point x="336" y="543" type="curve"/>
      <point x="877" y="543" type="line"/>
      <point x="877" y="594" type="line"/>
      <point x="332" y="594" type="line"/>
      <point x="330" y="623"/>
      <point x="328" y="664"/>
      <point x="328" y="717" type="curve" smooth="yes"/>
      <point x="328" y="766"/>
      <point x="330" y="815"/>
      <point x="332" y="842" type="curve"/>
      <point x="877" y="842" type="line"/>
      <point x="877" y="893" type="line"/>
      <point x="338" y="893" type="line"/>
      <point x="377" y="1245"/>
      <point x="571" y="1436"/>
      <point x="817" y="1436" type="curve" smooth="yes"/>
      <point x="926" y="1436"/>
      <point x="1008" y="1415"/>
      <point x="1090" y="1372" type="curve"/>
      <point x="1106" y="1425" type="line"/>
      <point x="1024" y="1464"/>
      <point x="946" y="1487"/>
    </contour>
  </outline>
</glyph>
<glyph name="uni20B1" format="2">
  <advance width="1171"/>
  <unicode hex="20B1"/>
  <outline>
    <contour>
      <point x="471" y="1462" type="curve" smooth="yes"/>
      <point x="211" y="1462" type="line"/>
      <point x="211" y="1176" type="line"/>
      <point x="25" y="1176" type="line"/>
      <point x="25" y="1124" type="line"/>
      <point x="211" y="1124" type="line"/>
      <point x="211" y="889" type="line"/>
      <point x="25" y="889" type="line"/>
      <point x="25" y="838" type="line"/>
      <point x="211" y="838" type="line"/>
      <point x="211" y="0" type="line"/>
      <point x="264" y="0" type="line"/>
      <point x="264" y="555" type="line"/>
      <point x="442" y="555" type="line" smooth="yes"/>
      <point x="698" y="555"/>
      <point x="883" y="631"/>
      <point x="948" y="838" type="curve"/>
      <point x="1122" y="838" type="line"/>
      <point x="1122" y="889" type="line"/>
      <point x="963" y="889" type="line"/>
      <point x="971" y="930"/>
      <point x="975" y="977"/>
      <point x="975" y="1028" type="curve" smooth="yes"/>
      <point x="975" y="1063"/>
      <point x="973" y="1094"/>
      <point x="969" y="1124" type="curve"/>
      <point x="1122" y="1124" type="line"/>
      <point x="1122" y="1176" type="line"/>
      <point x="958" y="1176" type="line"/>
      <point x="909" y="1384"/>
      <point x="741" y="1462"/>
    </contour>
    <contour>
      <point x="891" y="838" type="line"/>
      <point x="827" y="657"/>
      <point x="662" y="606"/>
      <point x="438" y="606" type="curve" smooth="yes"/>
      <point x="264" y="606" type="line"/>
      <point x="264" y="838" type="line"/>
    </contour>
    <contour>
      <point x="913" y="1124" type="line"/>
      <point x="918" y="1094"/>
      <point x="920" y="1061"/>
      <point x="920" y="1026" type="curve" smooth="yes"/>
      <point x="920" y="975"/>
      <point x="915" y="930"/>
      <point x="905" y="889" type="curve"/>
      <point x="264" y="889" type="line"/>
      <point x="264" y="1124" type="line"/>
    </contour>
    <contour>
      <point x="463" y="1411" type="line" smooth="yes"/>
      <point x="711" y="1411"/>
      <point x="854" y="1346"/>
      <point x="901" y="1176" type="curve"/>
      <point x="264" y="1176" type="line"/>
      <point x="264" y="1411" type="line"/>
    </contour>
  </outline>
</glyph>
<glyph name="uni20B2" format="2">
  <advance width="1479"/>
  <unicode hex="20B2"/>
  <outline>
    <contour>
      <point x="854" y="-20" type="curve" smooth="yes"/>
      <point x="1016" y="-20"/>
      <point x="1178" y="10"/>
      <point x="1309" y="74" type="curve"/>
      <point x="1309" y="717" type="line"/>
      <point x="825" y="717" type="line"/>
      <point x="825" y="666" type="line"/>
      <point x="1255" y="666" type="line"/>
      <point x="1255" y="102" type="line"/>
      <point x="1149" y="57"/>
      <point x="1016" y="31"/>
      <point x="858" y="31" type="curve" smooth="yes"/>
      <point x="449" y="31"/>
      <point x="184" y="233"/>
      <point x="184" y="729" type="curve" smooth="yes"/>
      <point x="184" y="1135"/>
      <point x="442" y="1436"/>
      <point x="850" y="1436" type="curve" smooth="yes"/>
      <point x="997" y="1436"/>
      <point x="1128" y="1413"/>
      <point x="1268" y="1346" type="curve"/>
      <point x="1292" y="1397" type="line"/>
      <point x="1163" y="1460"/>
      <point x="1024" y="1487"/>
      <point x="852" y="1487" type="curve" smooth="yes"/>
      <point x="408" y="1487"/>
      <point x="129" y="1159"/>
      <point x="129" y="727" type="curve" smooth="yes"/>
      <point x="129" y="248"/>
      <point x="381" y="-20"/>
    </contour>
    <contour>
      <point x="817" y="-184" type="line"/>
      <point x="870" y="-184" type="line"/>
      <point x="870" y="1612" type="line"/>
      <point x="817" y="1612" type="line"/>
    </contour>
  </outline>
</glyph>
<glyph name="uni20B3" format="2">
  <advance width="1153"/>
  <unicode hex="20B3"/>
  <outline>
    <contour>
      <point x="602" y="1462" type="line"/>
      <point x="551" y="1462" type="line"/>
      <point x="319" y="848" type="line"/>
      <point x="4" y="848" type="line"/>
      <point x="4" y="797" type="line"/>
      <point x="301" y="797" type="line"/>
      <point x="188" y="500" type="line"/>
      <point x="4" y="500" type="line"/>
      <point x="4" y="449" type="line"/>
      <point x="170" y="449" type="line"/>
      <point x="0" y="0" type="line"/>
      <point x="57" y="0" type="line"/>
      <point x="225" y="449" type="line"/>
      <point x="926" y="449" type="line"/>
      <point x="1096" y="0" type="line"/>
      <point x="1153" y="0" type="line"/>
      <point x="983" y="449" type="line"/>
      <point x="1147" y="449" type="line"/>
      <point x="1147" y="500" type="line"/>
      <point x="965" y="500" type="line"/>
      <point x="852" y="797" type="line"/>
      <point x="1147" y="797" type="line"/>
      <point x="1147" y="848" type="line"/>
      <point x="834" y="848" type="line"/>
    </contour>
    <contour>
      <point x="795" y="797" type="line"/>
      <point x="907" y="500" type="line"/>
      <point x="246" y="500" type="line"/>
      <point x="356" y="797" type="line"/>
    </contour>
    <contour>
      <point x="575" y="1386" type="curve"/>
      <point x="596" y="1325"/>
      <point x="627" y="1245"/>
      <point x="774" y="848" type="curve"/>
      <point x="377" y="848" type="line"/>
      <point x="508" y="1196"/>
      <point x="549" y="1307"/>
    </contour>
  </outline>
</glyph>
<glyph name="uni20B5" format="2">
  <advance width="1257"/>
  <unicode hex="20B5"/>
  <outline>
    <contour>
      <point x="829" y="1612" type="line"/>
      <point x="776" y="1612" type="line"/>
      <point x="776" y="1481" type="line"/>
      <point x="371" y="1456"/>
      <point x="129" y="1145"/>
      <point x="129" y="737" type="curve" smooth="yes"/>
      <point x="129" y="289"/>
      <point x="352" y="-14"/>
      <point x="776" y="-20" type="curve"/>
      <point x="776" y="-184" type="line"/>
      <point x="829" y="-184" type="line"/>
      <point x="829" y="-20" type="line"/>
      <point x="973" y="-16"/>
      <point x="1085" y="10"/>
      <point x="1167" y="43" type="curve"/>
      <point x="1167" y="90" type="line"/>
      <point x="1077" y="57"/>
      <point x="969" y="35"/>
      <point x="829" y="31" type="curve"/>
      <point x="829" y="1432" type="line"/>
      <point x="942" y="1432"/>
      <point x="1057" y="1417"/>
      <point x="1174" y="1356" type="curve"/>
      <point x="1194" y="1407" type="line"/>
      <point x="1081" y="1458"/>
      <point x="963" y="1483"/>
      <point x="829" y="1483" type="curve"/>
    </contour>
    <contour>
      <point x="776" y="1430" type="curve"/>
      <point x="776" y="31" type="line"/>
      <point x="383" y="37"/>
      <point x="184" y="317"/>
      <point x="184" y="737" type="curve" smooth="yes"/>
      <point x="184" y="1118"/>
      <point x="397" y="1405"/>
    </contour>
  </outline>
</glyph>
<glyph name="tenge" format="2">
  <advance width="1047"/>
  <unicode hex="20B8"/>
  <outline>
    <contour>
      <point x="551" y="0" type="line"/>
      <point x="551" y="1178" type="line"/>
      <point x="1018" y="1178" type="line"/>
      <point x="1018" y="1229" type="line"/>
      <point x="29" y="1229" type="line"/>
      <point x="29" y="1178" type="line"/>
      <point x="498" y="1178" type="line"/>
      <point x="498" y="0" type="line"/>
    </contour>
    <contour>
      <point x="29" y="1462" type="line"/>
      <point x="29" y="1411" type="line"/>
      <point x="1018" y="1411" type="line"/>
      <point x="1018" y="1462" type="line"/>
    </contour>
  </outline>
</glyph>
<glyph name="uni20BE" format="2">
  <advance width="1268"/>
  <unicode hex="20BE"/>
  <outline>
    <contour>
      <point x="113" y="55" type="line"/>
      <point x="113" y="0" type="line"/>
      <point x="1163" y="0" type="line"/>
      <point x="1163" y="55" type="line"/>
    </contour>
    <contour>
      <point x="842" y="55" type="line"/>
      <point x="485" y="55"/>
      <point x="180" y="319"/>
      <point x="180" y="754" type="curve" smooth="yes"/>
      <point x="180" y="1165"/>
      <point x="395" y="1411"/>
      <point x="807" y="1411" type="curve" smooth="yes"/>
      <point x="946" y="1411"/>
      <point x="1061" y="1393"/>
      <point x="1147" y="1368" type="curve"/>
      <point x="1147" y="1417" type="line"/>
      <point x="1067" y="1442"/>
      <point x="956" y="1462"/>
      <point x="807" y="1462" type="curve" smooth="yes"/>
      <point x="356" y="1462"/>
      <point x="125" y="1196"/>
      <point x="125" y="748" type="curve" smooth="yes"/>
      <point x="125" y="297"/>
      <point x="422" y="12"/>
      <point x="842" y="12" type="curve"/>
    </contour>
    <contour>
      <point x="627" y="1669" type="line"/>
      <point x="627" y="846" type="line"/>
      <point x="680" y="846" type="line"/>
      <point x="680" y="1669" type="line"/>
    </contour>
    <contour>
      <point x="913" y="1669" type="line"/>
      <point x="913" y="846" type="line"/>
      <point x="967" y="846" type="line"/>
      <point x="967" y="1669" type="line"/>
    </contour>
  </outline>
</glyph>
<glyph name="accountof" format="2">
  <advance width="1266"/>
  <unicode hex="2100"/>
  <anchor x="1047" y="713" name="top"/>
  <outline>
    <contour>
      <point x="346" y="1479" type="curve" smooth="yes"/>
      <point x="268" y="1479"/>
      <point x="195" y="1456"/>
      <point x="131" y="1425" type="curve"/>
      <point x="152" y="1376" type="line"/>
      <point x="215" y="1411"/>
      <point x="274" y="1427"/>
      <point x="344" y="1427" type="curve" smooth="yes"/>
      <point x="440" y="1427"/>
      <point x="496" y="1378"/>
      <point x="496" y="1266" type="curve" smooth="yes"/>
      <point x="496" y="1202" type="line"/>
      <point x="403" y="1198" type="line" smooth="yes"/>
      <point x="184" y="1188"/>
      <point x="84" y="1124"/>
      <point x="84" y="995" type="curve" smooth="yes"/>
      <point x="84" y="874"/>
      <point x="164" y="815"/>
      <point x="293" y="815" type="curve" smooth="yes"/>
      <point x="393" y="815"/>
      <point x="463" y="860"/>
      <point x="494" y="920" type="curve"/>
      <point x="502" y="823" type="line"/>
      <point x="549" y="823" type="line"/>
      <point x="549" y="1274" type="line" smooth="yes"/>
      <point x="549" y="1405"/>
      <point x="483" y="1479"/>
    </contour>
    <contour>
      <point x="496" y="1151" type="line"/>
      <point x="496" y="1079" type="line" smooth="yes"/>
      <point x="496" y="946"/>
      <point x="428" y="866"/>
      <point x="295" y="866" type="curve" smooth="yes"/>
      <point x="195" y="866"/>
      <point x="139" y="909"/>
      <point x="139" y="995" type="curve" smooth="yes"/>
      <point x="139" y="1102"/>
      <point x="223" y="1139"/>
      <point x="401" y="1147" type="curve" smooth="yes"/>
    </contour>
    <contour>
      <point x="1053" y="-20" type="curve" smooth="yes"/>
      <point x="1126" y="-20"/>
      <point x="1186" y="-6"/>
      <point x="1231" y="12" type="curve"/>
      <point x="1231" y="68" type="line"/>
      <point x="1176" y="45"/>
      <point x="1114" y="33"/>
      <point x="1051" y="33" type="curve" smooth="yes"/>
      <point x="872" y="33"/>
      <point x="791" y="162"/>
      <point x="791" y="344" type="curve" smooth="yes"/>
      <point x="791" y="543"/>
      <point x="887" y="659"/>
      <point x="1063" y="659" type="curve" smooth="yes"/>
      <point x="1110" y="659"/>
      <point x="1163" y="649"/>
      <point x="1223" y="629" type="curve"/>
      <point x="1237" y="680" type="line"/>
      <point x="1184" y="700"/>
      <point x="1126" y="713"/>
      <point x="1065" y="713" type="curve" smooth="yes"/>
      <point x="848" y="713"/>
      <point x="729" y="563"/>
      <point x="729" y="342" type="curve" smooth="yes"/>
      <point x="729" y="125"/>
      <point x="838" y="-20"/>
    </contour>
    <contour>
      <point x="1057" y="1462" type="line"/>
      <point x="999" y="1462" type="line"/>
      <point x="238" y="0" type="line"/>
      <point x="295" y="0" type="line"/>
    </contour>
  </outline>
</glyph>
<glyph name="lbbarsymbol" format="2">
  <advance width="1593"/>
  <unicode hex="2114"/>
  <outline>
    <contour>
      <point x="1001" y="-20" type="curve" smooth="yes"/>
      <point x="1331" y="-20"/>
      <point x="1470" y="233"/>
      <point x="1470" y="545" type="curve" smooth="yes"/>
      <point x="1470" y="909"/>
      <point x="1321" y="1104"/>
      <point x="1034" y="1104" type="curve" smooth="yes"/>
      <point x="827" y="1104"/>
      <point x="678" y="989"/>
      <point x="633" y="831" type="curve"/>
      <point x="629" y="831" type="line"/>
      <point x="631" y="899"/>
      <point x="633" y="1010"/>
      <point x="633" y="1075" type="curve" smooth="yes"/>
      <point x="633" y="1290" type="line"/>
      <point x="1047" y="1290" type="line"/>
      <point x="1047" y="1341" type="line"/>
      <point x="633" y="1341" type="line"/>
      <point x="633" y="1556" type="line"/>
      <point x="580" y="1556" type="line"/>
      <point x="580" y="1341" type="line"/>
      <point x="240" y="1341" type="line"/>
      <point x="240" y="1556" type="line"/>
      <point x="186" y="1556" type="line"/>
      <point x="186" y="1341" type="line"/>
      <point x="39" y="1341" type="line"/>
      <point x="39" y="1290" type="line"/>
      <point x="186" y="1290" type="line"/>
      <point x="186" y="0" type="line"/>
      <point x="240" y="0" type="line"/>
      <point x="240" y="1290" type="line"/>
      <point x="580" y="1290" type="line"/>
      <point x="580" y="0" type="line"/>
      <point x="625" y="0" type="line"/>
      <point x="633" y="213" type="line"/>
      <point x="637" y="213" type="line"/>
      <point x="686" y="78"/>
      <point x="807" y="-20"/>
    </contour>
    <contour>
      <point x="1001" y="31" type="curve" smooth="yes"/>
      <point x="754" y="31"/>
      <point x="633" y="201"/>
      <point x="633" y="518" type="curve" smooth="yes"/>
      <point x="633" y="539" type="line" smooth="yes"/>
      <point x="633" y="858"/>
      <point x="762" y="1053"/>
      <point x="1034" y="1053" type="curve" smooth="yes"/>
      <point x="1288" y="1053"/>
      <point x="1415" y="881"/>
      <point x="1415" y="545" type="curve" smooth="yes"/>
      <point x="1415" y="217"/>
      <point x="1272" y="31"/>
    </contour>
  </outline>
</glyph>
<glyph name="alephsymbol" format="2">
  <advance width="1219"/>
  <unicode hex="2135"/>
  <outline>
    <contour>
      <point x="1087" y="-33" type="curve"/>
      <point x="1130" y="-2" type="line"/>
      <point x="1036" y="133"/>
      <point x="915" y="311"/>
      <point x="788" y="481" type="curve"/>
      <point x="985" y="696"/>
      <point x="1102" y="975"/>
      <point x="1118" y="1190" type="curve"/>
      <point x="1065" y="1190" type="line"/>
      <point x="1057" y="983"/>
      <point x="940" y="723"/>
      <point x="758" y="518" type="curve"/>
      <point x="553" y="793"/>
      <point x="348" y="1032"/>
      <point x="166" y="1214" type="curve"/>
      <point x="127" y="1176" type="line"/>
      <point x="217" y="1085"/>
      <point x="311" y="991"/>
      <point x="403" y="879" type="curve"/>
      <point x="178" y="582"/>
      <point x="94" y="233"/>
      <point x="80" y="-2" type="curve"/>
      <point x="133" y="-2" type="line"/>
      <point x="150" y="227"/>
      <point x="225" y="547"/>
      <point x="438" y="838" type="curve"/>
      <point x="668" y="578"/>
      <point x="930" y="203"/>
    </contour>
  </outline>
</glyph>
<glyph name="partialdiff" format="2">
  <advance width="1157"/>
  <unicode hex="2202"/>
  <outline>
    <contour>
      <point x="647" y="1489" type="curve" smooth="yes"/>
      <point x="559" y="1489"/>
      <point x="477" y="1468"/>
      <point x="408" y="1438" type="curve"/>
      <point x="408" y="1382" type="line"/>
      <point x="469" y="1411"/>
      <point x="553" y="1438"/>
      <point x="639" y="1438" type="curve" smooth="yes"/>
      <point x="868" y="1438"/>
      <point x="958" y="1290"/>
      <point x="958" y="930" type="curve" smooth="yes"/>
      <point x="958" y="860"/>
      <point x="952" y="791"/>
      <point x="948" y="735" type="curve"/>
      <point x="903" y="893"/>
      <point x="784" y="1008"/>
      <point x="616" y="1008" type="curve" smooth="yes"/>
      <point x="313" y="1008"/>
      <point x="129" y="717"/>
      <point x="129" y="362" type="curve" smooth="yes"/>
      <point x="129" y="102"/>
      <point x="264" y="-20"/>
      <point x="463" y="-20" type="curve" smooth="yes"/>
      <point x="860" y="-20"/>
      <point x="1014" y="559"/>
      <point x="1014" y="930" type="curve" smooth="yes"/>
      <point x="1014" y="1331"/>
      <point x="905" y="1489"/>
    </contour>
    <contour>
      <point x="608" y="956" type="curve" smooth="yes"/>
      <point x="760" y="956"/>
      <point x="862" y="868"/>
      <point x="932" y="657" type="curve"/>
      <point x="893" y="418"/>
      <point x="764" y="31"/>
      <point x="463" y="31" type="curve" smooth="yes"/>
      <point x="293" y="31"/>
      <point x="184" y="143"/>
      <point x="184" y="362" type="curve" smooth="yes"/>
      <point x="184" y="690"/>
      <point x="354" y="956"/>
    </contour>
  </outline>
</glyph>
